<svg xmlns="http://www.w3.org/2000/svg" viewBox="0 0 43.49 57.97">
  <g id="Layer_2" data-name="Layer 2">
    <g id="Layer_1-2" data-name="Layer 1">
      <path d="M43.49,56.32A1.62,1.62,0,0,1,41.84,58H1.58a1.43,1.43,0,0,1-1.14-.51A1.72,1.72,0,0,1,0,56.32V1.58A1.54,1.54,0,0,1,.44.44,1.54,1.54,0,0,1,1.58,0H41.84A1.71,1.71,0,0,1,43,.44a1.47,1.47,0,0,1,.49,1.14Zm-1-54.74a.52.52,0,0,0-.16-.38A.58.58,0,0,0,41.84,1H1.58A.5.5,0,0,0,1,1.58V56.32a.58.58,0,0,0,.18.47.52.52,0,0,0,.38.16H41.84a.56.56,0,0,0,.63-.63ZM7.28,8.3l-.57.56L6.05,8.3a2.71,2.71,0,0,1-1.37.35,2.36,2.36,0,0,1-1.87-.77,3.15,3.15,0,0,1-.63-2,3.17,3.17,0,0,1,.63-2A2.35,2.35,0,0,1,4.68,3a2.44,2.44,0,0,1,1.89.81,2.84,2.84,0,0,1,.64,1.94,4.26,4.26,0,0,1-.13,1.14,1.63,1.63,0,0,1-.44.79Zm-.21,4.81a1.1,1.1,0,0,1-.34.83,1.12,1.12,0,0,1-.82.33A1.05,1.05,0,0,1,5.13,14a1.93,1.93,0,0,1-.45-.74q0,.39,0,.87a1.61,1.61,0,0,0,.25.79H4.25a1.76,1.76,0,0,0,.23-.78,7.36,7.36,0,0,0,.06-.88,2.08,2.08,0,0,1-.46.74,1.05,1.05,0,0,1-.78.28,1.06,1.06,0,0,1-.8-.33,1.16,1.16,0,0,1-.32-.83,1,1,0,0,1,.37-.88,1.46,1.46,0,0,1,.9-.28,1.66,1.66,0,0,1,.66.14,1.91,1.91,0,0,1-.47-.54,1.27,1.27,0,0,1-.19-.65A1.13,1.13,0,0,1,4.61,9.74a1.12,1.12,0,0,1,.82.33,1.14,1.14,0,0,1,.34.83,1.36,1.36,0,0,1-.18.65,1.61,1.61,0,0,1-.46.54A1.61,1.61,0,0,1,5.77,12a1.56,1.56,0,0,1,.91.28A1,1,0,0,1,7.07,13.11Zm-1-7.27C6.12,4.59,5.64,4,4.68,4s-1.45.62-1.45,1.87S3.71,7.7,4.68,7.7a1.2,1.2,0,0,0,.59-.14l-.52-.49.59-.57.5.5A2.4,2.4,0,0,0,6.12,5.84ZM35.3,49.78H8.3V8.3h27Zm-.95-1V9.21H9.21V48.83ZM19.16,41.2a2,2,0,0,1-.72,1.67,2.95,2.95,0,0,1-3,.27,3.39,3.39,0,0,1,.86,1,2.61,2.61,0,0,1,.37,1.27,2.1,2.1,0,0,1-2.15,2.14A2.11,2.11,0,0,1,13,47a2.05,2.05,0,0,1-.63-1.53,2.7,2.7,0,0,1,.36-1.27,3.42,3.42,0,0,1,.87-1,2.54,2.54,0,0,1-1.23.28,2.7,2.7,0,0,1-1.73-.56A2,2,0,0,1,10,41.2a2.17,2.17,0,0,1,.61-1.53A2,2,0,0,1,12.09,39a2,2,0,0,1,1.45.55,4.36,4.36,0,0,1,.87,1.35,15.14,15.14,0,0,0-.1-1.62,3.1,3.1,0,0,0-.49-1.47h1.44a2.87,2.87,0,0,0-.49,1.49c0,.6-.07,1.13-.07,1.6a3.41,3.41,0,0,1,.82-1.35A2,2,0,0,1,17,39a2.09,2.09,0,0,1,1.55.65A2.15,2.15,0,0,1,19.16,41.2Zm5-20.53a5,5,0,0,1-.41,2.18,5.5,5.5,0,0,1-1.21,1.79,5.8,5.8,0,0,1-1.79,1.22,5.51,5.51,0,0,1-2.18.44,6.13,6.13,0,0,1-1.34-.16,3.86,3.86,0,0,1-1.19-.51,3.59,3.59,0,0,1,.08.53,1.63,1.63,0,0,0,.09.42l.11.42c.07.21,0,.32-.21.32h-4q-.21,0-.21-.18l-.14-.67-.21-1.61a8.51,8.51,0,0,1,3.45-8.51,2.4,2.4,0,0,1,.47-.37l.55-.34.14-.07a.21.21,0,0,0,.14-.07,5.19,5.19,0,0,1,2.25-.45,5.49,5.49,0,0,1,3.95,1.65,5.8,5.8,0,0,1,1.2,1.79A5.51,5.51,0,0,1,24.19,20.67Zm-8-4.53a9.1,9.1,0,0,0-2.52,2.14,7.19,7.19,0,0,0-1.26,2.5,9.36,9.36,0,0,0-.32,2.83,25.38,25.38,0,0,0,.34,3.18h3.34c0-.19-.1-.41-.16-.67s-.14-.54-.23-.84a2.46,2.46,0,0,1-.07-.57,3.71,3.71,0,0,0-.07-.59c-.12-.78-.22-1.47-.3-2.08a8.24,8.24,0,0,1,.32-3.65A13.68,13.68,0,0,1,16.21,16.14Zm.14,18.07a.78.78,0,0,1-.88.88.9.9,0,0,1-.42-.14.9.9,0,0,1,.14.42.75.75,0,0,1-.85.84.82.82,0,0,1-.58-.23.83.83,0,0,1-.22-.61.8.8,0,0,1,.14-.42.82.82,0,0,1-.5.14.78.78,0,0,1-.56-.25.87.87,0,0,1-.24-.63.74.74,0,0,1,.24-.55.8.8,0,0,1,.56-.23.82.82,0,0,1,.5.14.77.77,0,0,1-.14-.52.65.65,0,0,1,.59-.71v-.88h-1.3c-.19,0-.28-.08-.28-.24s.09-.25.28-.25h.49A1.34,1.34,0,0,1,13,30.5a1.13,1.13,0,0,1-.07-.69,1.67,1.67,0,0,1,.49-.95,1.76,1.76,0,0,1,.95-.42,1.43,1.43,0,0,1,1.08.46A1.47,1.47,0,0,1,15.86,30a1.16,1.16,0,0,1-.46,1h.53c.18,0,.28.08.28.25s-.1.24-.28.24H14.62v.88a.64.64,0,0,1,.57.71.83.83,0,0,1-.14.52.9.9,0,0,1,.42-.14.89.89,0,0,1,.63.23A.71.71,0,0,1,16.35,34.21Zm-2.81,0c0-.19-.12-.28-.36-.28a.25.25,0,0,0-.28.28c0,.23.1.35.28.35A.32.32,0,0,0,13.54,34.21ZM15.33,30a1,1,0,0,0-.28-.68.94.94,0,0,0-.71-.3,1.53,1.53,0,0,0-.61.26.91.91,0,0,0-.09,1.36,1,1,0,0,0,.7.31,1,1,0,0,0,.71-.28A1,1,0,0,0,15.33,30Zm7.06-15.18a.21.21,0,0,1-.12.22A.23.23,0,0,1,22,15a5.77,5.77,0,0,0-1.67-.83,6.7,6.7,0,0,0-1.84-.23,5.71,5.71,0,0,0-2,.27,5.87,5.87,0,0,0-1.13.51,5.24,5.24,0,0,1-.58.31c-.12.05-.22,0-.3-.28a7.64,7.64,0,0,1-.24-1.3c-.09-.63-.23-1.56-.44-2.78-.05-.14,0-.23.07-.26a.33.33,0,0,1,.31,0l1.66,1.16c.37-.42.63-.73.79-.93s.29-.3.42-.3.29.11.47.32.5.51.92.91c.42-.4.72-.7.91-.91s.35-.32.48-.32.27.1.42.3.4.51.75.93l1.66-1.16q.55-.24.45.21ZM14.7,33.05c0-.19-.12-.28-.36-.28a.25.25,0,0,0-.28.28c0,.25.1.38.28.38S14.7,33.3,14.7,33.05Zm0,1.16c0-.19-.12-.28-.36-.28a.25.25,0,0,0-.28.28c0,.23.1.35.28.35A.32.32,0,0,0,14.7,34.21Zm0,1.16c0-.19-.12-.28-.36-.28a.25.25,0,0,0-.28.28c0,.23.1.35.28.35A.32.32,0,0,0,14.7,35.37Zm7.84-24.12c-.45.3-.77.54-1,.7a.84.84,0,0,1-.48.25c-.11,0-.25-.09-.4-.28s-.4-.48-.76-.88c-.42.37-.72.66-.91.84a.77.77,0,0,1-.48.28.77.77,0,0,1-.47-.28c-.19-.18-.49-.47-.91-.84-.36.4-.6.69-.74.88a.56.56,0,0,1-.41.28A.91.91,0,0,1,15.5,12c-.21-.16-.55-.4-1-.7l.57,3.09a5.65,5.65,0,0,1,1.67-.75,7.53,7.53,0,0,1,1.81-.2,7.67,7.67,0,0,1,1.84.2,4.91,4.91,0,0,1,1.6.75Zm-6.68,23c0-.19-.13-.28-.39-.28a.24.24,0,0,0-.28.28c0,.23.09.35.28.35S15.86,34.44,15.86,34.21ZM23.7,20.67a4.91,4.91,0,0,0-.41-2,5.08,5.08,0,0,0-1.09-1.62A5.19,5.19,0,0,0,20.58,16a4.91,4.91,0,0,0-2-.41,5.8,5.8,0,0,0-.88.06,4,4,0,0,0-.88.23,1.64,1.64,0,0,0-.21.49,3.69,3.69,0,0,1-.28.67,12.18,12.18,0,0,0-.76,2.07,7.51,7.51,0,0,0-.23,1.79,13,13,0,0,0,.14,1.83c.1.63.21,1.35.36,2.15l.07.14a4.75,4.75,0,0,0,2.67.8,4.9,4.9,0,0,0,2-.4,5.26,5.26,0,0,0,2.75-2.74A4.58,4.58,0,0,0,23.7,20.67ZM19.37,33.43c.19,0,.28.09.28.25s-.09.22-.28.18a5.32,5.32,0,0,1-2-.39,5.22,5.22,0,0,1-1.69-1.06c-.16-.14-.18-.27-.07-.4A.23.23,0,0,1,16,32,5.23,5.23,0,0,0,19.37,33.43ZM18.6,18.6a2.74,2.74,0,0,1-.42.77,1,1,0,0,1-.81.35.93.93,0,0,1-.78-.35,3.11,3.11,0,0,1-.45-.77,1.4,1.4,0,0,0,.37.07h.33a2.09,2.09,0,0,1,.56-.11,1.78,1.78,0,0,1,.53.11h.33A1.09,1.09,0,0,0,18.6,18.6Zm1.86,4.08c0,.16-.16.3-.47.42a2.53,2.53,0,0,1-.69.17.91.91,0,0,1-.26-.05c-.13,0-.25-.08-.37-.12a1,1,0,0,1-.32-.2.33.33,0,0,1-.14-.22c0-.19.11-.29.32-.29s.17.07.3.2a.61.61,0,0,0,.47.19.84.84,0,0,0,.55-.19.68.68,0,0,1,.33-.2C20.37,22.39,20.46,22.49,20.46,22.68Zm-1.72-1.41c-.19,0-.28-.08-.28-.23s.09-.25.28-.3h.49L19,19.16c-.05-.19,0-.29.18-.32s.24,0,.24.18.1.56.16.83.11.51.14.72a1.52,1.52,0,0,1,0,.51.23.23,0,0,1-.25.19ZM32,33.19A10.42,10.42,0,0,1,31.43,38a8.39,8.39,0,0,1-2.92,3.68,3.44,3.44,0,0,1-.46.38c-.16.12-.34.24-.52.35l-.18.07a.23.23,0,0,0-.14.07A5.58,5.58,0,0,1,25,43a5.49,5.49,0,0,1-4-1.66,6,6,0,0,1-1.21-1.79,5.2,5.2,0,0,1-.46-2.18,5,5,0,0,1,.41-2.18A5.31,5.31,0,0,1,21,33.42a5.72,5.72,0,0,1,4-1.64,5.44,5.44,0,0,1,1.3.16,4.68,4.68,0,0,1,1.23.47,3.73,3.73,0,0,1-.11-.52,2.1,2.1,0,0,0-.1-.43L27.21,31c-.07-.23,0-.35.21-.35h4c.15,0,.22.07.22.21l.1.67a6,6,0,0,1,.12.72C31.87,32.56,31.91,32.86,32,33.19ZM22.11,18.6a2.06,2.06,0,0,1-.38.77,1,1,0,0,1-.85.35.91.91,0,0,1-.77-.35,3.14,3.14,0,0,1-.46-.77,1.46,1.46,0,0,0,.39.07h.35a1.78,1.78,0,0,1,.53-.11,1.85,1.85,0,0,1,.53.11h.33A1,1,0,0,0,22.11,18.6Zm5.56,14.45A4.89,4.89,0,0,0,25,32.27a5.13,5.13,0,0,0-2,.41,5.06,5.06,0,0,0-1.64,1.09,5.2,5.2,0,0,0-1.09,1.61,4.64,4.64,0,0,0-.37,2,5,5,0,0,0,.41,2A5.36,5.36,0,0,0,21.36,41,4.93,4.93,0,0,0,23,42.1a5.07,5.07,0,0,0,2,.4,4.47,4.47,0,0,0,.86-.07,6.11,6.11,0,0,0,.86-.24,1.72,1.72,0,0,0,.21-.48,4.1,4.1,0,0,1,.28-.65A10.31,10.31,0,0,0,28,39a10.85,10.85,0,0,0,.25-1.83,10.62,10.62,0,0,0-.11-1.85c-.09-.63-.21-1.35-.35-2.14Zm2,14.34c0,.14,0,.23-.05.26a.32.32,0,0,1-.3,0l-1.65-1.16q-.57.63-.81.93c-.16.2-.31.3-.44.28a.79.79,0,0,1-.46-.31c-.17-.2-.47-.5-.89-.9a12.92,12.92,0,0,0-.92.92.74.74,0,0,1-.49.31.61.61,0,0,1-.44-.3c-.15-.2-.4-.51-.76-.93L20.81,47.6a.42.42,0,0,1-.35,0c-.09,0-.12-.12-.07-.26l.77-4.11c0-.12,0-.2.13-.23a.27.27,0,0,1,.26,0,5.94,5.94,0,0,0,1.64.84,6.44,6.44,0,0,0,1.88.25A5.57,5.57,0,0,0,27,43.89a5.87,5.87,0,0,0,1.13-.51l.58-.33c.11-.06.21,0,.28.26a10.85,10.85,0,0,1,.24,1.3C29.31,45.25,29.46,46.17,29.67,47.39ZM28.51,43.7a5.84,5.84,0,0,1-1.65.76,7.93,7.93,0,0,1-1.79.19,8.35,8.35,0,0,1-1.87-.19,5.06,5.06,0,0,1-1.58-.76L21,46.83c.45-.31.77-.54,1-.71a.89.89,0,0,1,.47-.24c.12,0,.26.09.41.28s.4.48.75.88c.43-.38.73-.66.92-.84a.78.78,0,0,1,.49-.29.76.76,0,0,1,.49.29l.92.84c.35-.4.6-.69.74-.88s.27-.28.4-.28a1,1,0,0,1,.51.24c.21.17.55.4,1,.71Zm-4.6-4.22a1.13,1.13,0,0,0-.37-.07H23.2a2.09,2.09,0,0,1-.56.11,1.78,1.78,0,0,1-.53-.11h-.33a.78.78,0,0,0-.33.07,2.41,2.41,0,0,1,.42-.81,1,1,0,0,1,.81-.35,1,1,0,0,1,.77.35A3.21,3.21,0,0,1,23.91,39.48Zm1.44-4.11a.25.25,0,0,1-.28.28.62.62,0,0,1-.32-.18.77.77,0,0,0-.49-.17.84.84,0,0,0-.53.17.62.62,0,0,1-.32.18.25.25,0,0,1-.28-.28c0-.14.16-.27.46-.39a2.09,2.09,0,0,1,.67-.18.89.89,0,0,1,.24.06l.37.12a1.56,1.56,0,0,1,.34.18A.29.29,0,0,1,25.35,35.37Zm-1,1.93.24,1.58c.05.19,0,.3-.19.34s-.26,0-.26-.2-.1-.52-.16-.79a5.66,5.66,0,0,1-.12-.74,1.61,1.61,0,0,1,0-.54q0-.21.21-.21h.81c.18,0,.28.08.28.24s-.1.25-.28.25Zm3.55-11.67c.14.16.16.31.05.44a.2.2,0,0,1-.33,0,4.75,4.75,0,0,0-1.6-1,6.2,6.2,0,0,0-1.81-.43c-.19,0-.28-.11-.28-.26s.09-.22.28-.19a5.22,5.22,0,0,1,2,.4A5.79,5.79,0,0,1,27.88,25.63Zm5.76-8.75A2.19,2.19,0,0,1,31.46,19,2,2,0,0,1,30,18.49a3.79,3.79,0,0,1-.84-1.33c0,.21,0,.45,0,.73a7.9,7.9,0,0,0,.07.85,5.66,5.66,0,0,0,.16.82,2,2,0,0,0,.31.69H28.3a2.9,2.9,0,0,0,.49-1.49c.05-.6.07-1.14.07-1.6A3.26,3.26,0,0,1,28,18.49a2,2,0,0,1-1.46.53,2.19,2.19,0,0,1-2.18-2.14,2,2,0,0,1,.72-1.69,2.72,2.72,0,0,1,1.74-.57,3.36,3.36,0,0,1,.63.06,1.53,1.53,0,0,1,.6.23,3.44,3.44,0,0,1-.86-1,2.49,2.49,0,0,1-.37-1.25A2.15,2.15,0,0,1,29,10.44a2.05,2.05,0,0,1,1.53.63,2.15,2.15,0,0,1,.61,1.55,2.49,2.49,0,0,1-.37,1.25,3.44,3.44,0,0,1-.86,1,1.53,1.53,0,0,1,.6-.23,3.36,3.36,0,0,1,.63-.06,2.67,2.67,0,0,1,1.74.59A2,2,0,0,1,33.64,16.88Zm-6.22,22.6a1.09,1.09,0,0,0-.37-.07h-.33a1.78,1.78,0,0,1-.53.11,2.09,2.09,0,0,1-.56-.11h-.32a.76.76,0,0,0-.31.07,2,2,0,0,1,.38-.81,1,1,0,0,1,.85-.35.89.89,0,0,1,.75.35A3.5,3.5,0,0,1,27.42,39.48Zm3.76-15.71a.77.77,0,0,1-.88.87.86.86,0,0,1-.42-.14.86.86,0,0,1,.14.43c0,.44-.18.7-.56.77v.81l1.3.07c.19,0,.28.11.28.26s-.09.23-.28.23h-.53a1.19,1.19,0,0,1,.46,1,1.37,1.37,0,0,1-.44,1,1.49,1.49,0,0,1-1.07.42,1.12,1.12,0,0,1-1-.39,1.49,1.49,0,0,1-.42-1.05,1.33,1.33,0,0,1,.42-1h-.49c-.19,0-.28-.08-.28-.23s.09-.24.28-.26l1.26-.07V25.7a.68.68,0,0,1-.56-.77,1,1,0,0,1,.14-.43.73.73,0,0,1-.49.14.77.77,0,0,1-.56-.24.85.85,0,0,1-.25-.63.7.7,0,0,1,.25-.55A.8.8,0,0,1,28,23a.79.79,0,0,1,.49.14.83.83,0,0,1-.14-.52.75.75,0,0,1,.23-.55.8.8,0,0,1,.58-.23.82.82,0,0,1,.61.23.71.71,0,0,1,.23.55.77.77,0,0,1-.14.52A1,1,0,0,1,30.3,23a.93.93,0,0,1,.64.23A.72.72,0,0,1,31.18,23.77Zm-3.37,7.48.35,1.52a2.47,2.47,0,0,1,.07.58,2.6,2.6,0,0,0,.07.58q.18,1.16.3,2.07a9.17,9.17,0,0,1,.07,1.81,8,8,0,0,1-.35,1.86,13.18,13.18,0,0,1-1,2.24,8.87,8.87,0,0,0,2.52-2.11,7.46,7.46,0,0,0,1.26-2.5,9.45,9.45,0,0,0,.32-2.85,25.49,25.49,0,0,0-.34-3.2Zm.56-7.48c0-.19-.12-.29-.35-.29s-.28.1-.28.29.09.35.28.35A.31.31,0,0,0,28.37,23.77Zm1.79,4.32a1,1,0,0,0-.28-.7.91.91,0,0,0-.7-.32.88.88,0,0,0-.67.32,1,1,0,0,0,0,1.4.69.69,0,0,0,.67.25.94.94,0,0,0,.7-.28A.91.91,0,0,0,30.16,28.09Zm-.63-5.48c0-.19-.12-.29-.35-.29a.32.32,0,0,0-.21.09.27.27,0,0,0-.11.2.39.39,0,0,0,.11.28.29.29,0,0,0,.21.1C29.41,23,29.53,22.86,29.53,22.61Zm0,1.16c0-.19-.12-.29-.35-.29a.32.32,0,0,0-.21.09.27.27,0,0,0-.11.2A.33.33,0,0,0,29,24a.32.32,0,0,0,.21.09A.31.31,0,0,0,29.53,23.77Zm0,1.16c0-.19-.12-.29-.35-.29a.32.32,0,0,0-.21.09.27.27,0,0,0-.11.2.33.33,0,0,0,.11.26.32.32,0,0,0,.21.09A.31.31,0,0,0,29.53,24.93Zm1.16-1.16c0-.19-.13-.29-.39-.29a.26.26,0,0,0-.28.29c0,.23.1.35.28.35S30.69,24,30.69,23.77ZM41.77,52.21a3,3,0,0,1-.64,2,2.39,2.39,0,0,1-1.9.81,2.21,2.21,0,0,1-1.86-.81,2.87,2.87,0,0,1-.63-1.93,4.84,4.84,0,0,1,.12-1.13,1.68,1.68,0,0,1,.44-.81l-.63-.56.56-.6.63.6a2.83,2.83,0,0,1,1.37-.39,2.39,2.39,0,0,1,1.9.81A3,3,0,0,1,41.77,52.21Zm0-7.28a1.05,1.05,0,0,1-.37.88,1.5,1.5,0,0,1-.94.28,1.6,1.6,0,0,1-.63-.14,1.43,1.43,0,0,1,.63,1.23,1.15,1.15,0,0,1-.33.83,1.13,1.13,0,0,1-.83.33,1.06,1.06,0,0,1-.8-.33,1.18,1.18,0,0,1-.32-.83A1.43,1.43,0,0,1,38.81,46a1.6,1.6,0,0,1-.63.14,1.45,1.45,0,0,1-.93-.28,1,1,0,0,1-.37-.88,1.07,1.07,0,0,1,.33-.81A1.18,1.18,0,0,1,38,43.8a1,1,0,0,1,.75.29,2,2,0,0,1,.44.7c0-.26,0-.55,0-.86a1.57,1.57,0,0,0-.25-.79h.74a1.79,1.79,0,0,0-.24.77,5.85,5.85,0,0,0-.07.88,1.92,1.92,0,0,1,.45-.7,1.06,1.06,0,0,1,.78-.29,1.16,1.16,0,0,1,.82.32A1.08,1.08,0,0,1,41.77,44.93Zm-1.09,7.28c0-1.25-.48-1.87-1.45-1.87a1.16,1.16,0,0,0-.56.14l.49.5-.56.59-.49-.52a1.86,1.86,0,0,0-.25.56,2.9,2.9,0,0,0-.07.6q0,1.86,1.44,1.86C40.2,54.07,40.68,53.45,40.68,52.21Z" style="fill: #231f20"/>
    </g>
  </g>
</svg>
