<svg xmlns="http://www.w3.org/2000/svg" viewBox="0 0 43.49 57.97">
  <g id="Layer_2" data-name="Layer 2">
    <g id="Layer_1-2" data-name="Layer 1">
      <path d="M43.49,56.32A1.62,1.62,0,0,1,41.84,58H1.58a1.43,1.43,0,0,1-1.14-.51A1.72,1.72,0,0,1,0,56.32V1.58A1.54,1.54,0,0,1,.44.44,1.54,1.54,0,0,1,1.58,0H41.84A1.71,1.71,0,0,1,43,.44a1.47,1.47,0,0,1,.49,1.14Zm-1-54.74a.52.52,0,0,0-.16-.38A.58.58,0,0,0,41.84,1H1.58A.5.5,0,0,0,1,1.58V56.32a.58.58,0,0,0,.18.47.52.52,0,0,0,.38.16H41.84a.56.56,0,0,0,.63-.63ZM7.07,13.11a1.1,1.1,0,0,1-.34.83,1.12,1.12,0,0,1-.82.33A1.05,1.05,0,0,1,5.13,14a1.93,1.93,0,0,1-.45-.74q0,.39,0,.87a1.61,1.61,0,0,0,.25.79H4.25a1.76,1.76,0,0,0,.23-.78,7.36,7.36,0,0,0,.06-.88,2.08,2.08,0,0,1-.46.74,1.05,1.05,0,0,1-.78.28,1.06,1.06,0,0,1-.8-.33,1.16,1.16,0,0,1-.32-.83,1,1,0,0,1,.37-.88,1.46,1.46,0,0,1,.9-.28,1.66,1.66,0,0,1,.66.14,1.91,1.91,0,0,1-.47-.54,1.27,1.27,0,0,1-.19-.65A1.13,1.13,0,0,1,4.61,9.74a1.12,1.12,0,0,1,.82.33,1.14,1.14,0,0,1,.34.83,1.36,1.36,0,0,1-.18.65,1.61,1.61,0,0,1-.46.54A1.61,1.61,0,0,1,5.77,12a1.56,1.56,0,0,1,.91.28A1,1,0,0,1,7.07,13.11Zm-1-6.18A1.5,1.5,0,0,1,4.46,8.65c-1.14,0-1.72-.67-1.72-2V6.5h1v.14c0,.71.21,1.06.63,1.06s.67-.26.67-.77V3.27H6.12ZM35.3,49.78H8.3V8.3h27Zm-.95-1V9.21H9.21V48.83ZM12.23,25.63l.07,7.8-1,1.45-1-1.45-.07-7.8H9.81c-.19,0-.28-.08-.28-.25s.09-.24.28-.24h.49A1.49,1.49,0,0,1,10,23.47a1.85,1.85,0,0,1,.35-.48V20.81a.19.19,0,0,1,.21-.21H12c.19,0,.28.07.28.21V23a1.49,1.49,0,0,1,.53,1.13,1.34,1.34,0,0,1-.45,1h.52c.19,0,.28.08.28.24s-.09.25-.28.25Zm6,15.71a1.84,1.84,0,0,1-.61,1.52,2.42,2.42,0,0,1-1.53.49A2.43,2.43,0,0,1,15,43.14a2.17,2.17,0,0,1,.77.88,2.4,2.4,0,0,1,.32,1.12,1.92,1.92,0,0,1-.57,1.39,1.81,1.81,0,0,1-1.37.58,1.89,1.89,0,0,1-1.39-.58,1.93,1.93,0,0,1-.58-1.39A2.22,2.22,0,0,1,12.5,44a2.39,2.39,0,0,1,.75-.88,2.43,2.43,0,0,1-1.09.21,2.32,2.32,0,0,1-1.53-.51,1.83,1.83,0,0,1-.61-1.5A1.94,1.94,0,0,1,10.55,40a1.75,1.75,0,0,1,1.33-.56,1.82,1.82,0,0,1,1.3.47A3.33,3.33,0,0,1,14,41.13a12,12,0,0,0-.11-1.49,3.56,3.56,0,0,0-.39-1.32h1.31a2.43,2.43,0,0,0-.44,1.34q-.06.81-.06,1.47a3.33,3.33,0,0,1,.78-1.25,1.82,1.82,0,0,1,1.3-.47,1.75,1.75,0,0,1,1.33.56A1.9,1.9,0,0,1,18.21,41.34ZM12.3,24.12a1,1,0,0,0-.26-.71.87.87,0,0,0-.65-.28,1,1,0,0,0-.74.28,1,1,0,0,0-.28.71.91.91,0,0,0,.28.67,1,1,0,0,0,.74.28.87.87,0,0,0,.65-.28A.93.93,0,0,0,12.3,24.12Zm-.56,9.24V25.63h-1v7.73l.53.71Zm.07-12.27h-1v1.59a1.62,1.62,0,0,1,.53-.07,1.23,1.23,0,0,1,.42.07Zm12.76-4c0,.18-.08.29-.19.31s-.22,0-.33-.17a5.84,5.84,0,0,0-2.22-2.46,6.86,6.86,0,0,0-3.23-.85,5.7,5.7,0,0,0-5.49,3.31c-.28.32-.44.28-.49-.14l-.32-5.7a.14.14,0,0,1,0-.19.18.18,0,0,1,.23,0l2.11.21c.61,0,1.27.09,2,.12s1.36,0,2,0,1.23,0,1.93,0l2-.12,1.09-.07c.35,0,.7-.06,1.05-.11a.14.14,0,0,1,.2,0,.26.26,0,0,1,.09.19Zm-.24-5.42-1,.09-1.48.11-1.65.1c-.56,0-1.09,0-1.58,0A14.21,14.21,0,0,1,17,12c-.58,0-1.13-.06-1.67-.1l-1.48-.14-1-.11L13,16.28a6.55,6.55,0,0,1,2.36-2.22,6.22,6.22,0,0,1,3.2-.67,7.35,7.35,0,0,1,3.16.73,6,6,0,0,1,2.36,2.16Zm-.14,9a5.77,5.77,0,0,1-.32,1.92,5.47,5.47,0,0,1-.9,1.62,5.57,5.57,0,0,1-1.37,1.23,5.17,5.17,0,0,1-1.74.72l-.28.91c0,.16-.14.23-.28.19s-.19-.14-.14-.33l.14-.7h-.14a.19.19,0,0,0-.14.07V27c0,.19-.08.28-.25.28s-.24-.09-.24-.28v-.7a1.46,1.46,0,0,1-.39-.07l.14.7q.11.29-.12.33c-.15,0-.25,0-.3-.19l-.21-.91a5.63,5.63,0,0,1-3.36-1.85A5.31,5.31,0,0,1,13,20.67a5.2,5.2,0,0,1,.46-2.18,5.72,5.72,0,0,1,1.23-1.79,5.61,5.61,0,0,1,1.79-1.21,5.27,5.27,0,0,1,2.15-.44,5.49,5.49,0,0,1,3.95,1.65,5.8,5.8,0,0,1,1.2,1.79A5.51,5.51,0,0,1,24.19,20.67Zm-4.82,13c.19,0,.26.16.21.32s-.14.22-.28.18a13.91,13.91,0,0,1-1.72-.37,9.1,9.1,0,0,1-1.48-.58,9.41,9.41,0,0,1-1.35-.83,15.49,15.49,0,0,1-1.36-1.11.23.23,0,0,1,0-.35.24.24,0,0,1,.36,0A10.05,10.05,0,0,0,15.05,32a8.16,8.16,0,0,0,1.3.76,9,9,0,0,0,1.4.53C18.25,33.4,18.79,33.53,19.37,33.64Zm4.33-13a4.91,4.91,0,0,0-.41-2,5,5,0,0,0-1.11-1.62A5.39,5.39,0,0,0,20.57,16a4.83,4.83,0,0,0-2-.41,4.92,4.92,0,0,0-2,.41A5.36,5.36,0,0,0,15,17.07a5,5,0,0,0-1.11,1.62,4.91,4.91,0,0,0-.41,2,4.79,4.79,0,0,0,1.13,3.22,5.3,5.3,0,0,0,2.92,1.74l-.14-.49c-.05-.14,0-.24.17-.28s.27,0,.32.14l.14.7a.92.92,0,0,1,.25.05.66.66,0,0,0,.28.05v-.66c0-.19.08-.28.24-.28s.25.09.25.28v.66a.69.69,0,0,1,.42-.1l.14-.7c.05-.19.16-.26.34-.21a.25.25,0,0,1,.19.35l-.18.42a5.07,5.07,0,0,0,2.78-1.79A5,5,0,0,0,23.7,20.67Zm-5.84-1a3.4,3.4,0,0,0-1.2-.17,4,4,0,0,0-1.26.17,2.42,2.42,0,0,1,.46-.81,1,1,0,0,1,.77-.31,1.07,1.07,0,0,1,.84.31A1.71,1.71,0,0,1,17.86,19.72Zm.21,1.62a.19.19,0,0,1-.21-.18,1.41,1.41,0,0,1,0-.49,5.78,5.78,0,0,1,.17-.74c.08-.28.16-.58.23-.91a.21.21,0,0,1,.12-.14.44.44,0,0,1,.2,0,.26.26,0,0,1,.17.09.21.21,0,0,1,0,.21l-.39,1.65h.95c.19,0,.28.09.28.27s-.09.26-.28.26ZM31.25,46.65a.19.19,0,0,1,0,.23.14.14,0,0,1-.2,0l-2.14-.21-2-.16c-.7-.06-1.35-.09-1.93-.09s-1.27.06-2,.11-1.36.09-2,.14L19,46.9a.13.13,0,0,1-.19,0,.3.3,0,0,1-.09-.23L19,41q0-.29.18-.33c.09,0,.19,0,.31.19a5.68,5.68,0,0,0,2.23,2.44,6.89,6.89,0,0,0,3.26.8,5.55,5.55,0,0,0,5.45-3.24c.11-.16.22-.23.33-.19s.17.14.19.33ZM21.62,19.72a3.62,3.62,0,0,0-1.21-.17,4,4,0,0,0-1.25.17,2.42,2.42,0,0,1,.46-.81,1,1,0,0,1,.77-.31,1,1,0,0,1,.81.31A2,2,0,0,1,21.62,19.72Zm8.93,22.05A6.14,6.14,0,0,1,25,44.58a7.83,7.83,0,0,1-3.19-.69,5.88,5.88,0,0,1-2.37-2.12l-.21,4.6,1-.1c.44-.05.94-.09,1.48-.13L23.4,46,25,46l1.6,0c.57,0,1.13.07,1.67.13l1.47.16,1,.1Zm.07-4.4a5.2,5.2,0,0,1-.46,2.18,5.89,5.89,0,0,1-3,3A5.39,5.39,0,0,1,25,43a5.48,5.48,0,0,1-2.18-.44A5.85,5.85,0,0,1,21,41.34a5.66,5.66,0,0,1-1.21-1.79,5.51,5.51,0,0,1-.44-2.18,5.79,5.79,0,0,1,.32-1.9,5.14,5.14,0,0,1,.89-1.61A6,6,0,0,1,22,32.64a5.17,5.17,0,0,1,1.74-.72L24,31a.22.22,0,0,1,.28-.17c.14,0,.19.13.14.31l-.14.74h.16a.19.19,0,0,0,.15-.07V31c0-.18.09-.28.25-.28s.25.1.25.28v.74a1.07,1.07,0,0,1,.35.07l-.14-.74c-.07-.18,0-.29.12-.31a.24.24,0,0,1,.3.17l.21,1a6.16,6.16,0,0,1,1.88.65,5.8,5.8,0,0,1,1.5,1.18,5.07,5.07,0,0,1,1,1.63A5.75,5.75,0,0,1,30.62,37.37Zm-.53,0A4.9,4.9,0,0,0,29,34.19a5.25,5.25,0,0,0-2.9-1.78l.14.5c0,.16,0,.26-.2.3s-.28,0-.33-.16l-.14-.71-.25,0a1.2,1.2,0,0,0-.24,0v.64c0,.18-.09.28-.25.28s-.25-.1-.25-.28v-.64a1.33,1.33,0,0,1-.45.07l-.14.71a.26.26,0,0,1-.34.21.23.23,0,0,1-.16-.35l.14-.43a4.94,4.94,0,0,0-2.77,1.83,5.15,5.15,0,0,0-.58,5A5.24,5.24,0,0,0,21.38,41,5.12,5.12,0,0,0,23,42.1a5.13,5.13,0,0,0,4,0A5.08,5.08,0,0,0,28.6,41a5.36,5.36,0,0,0,1.09-1.63A5,5,0,0,0,30.09,37.37Zm-5.69,1a3.24,3.24,0,0,1-.44.83.92.92,0,0,1-.76.33,1,1,0,0,1-.84-.33,1.88,1.88,0,0,1-.39-.83,3.11,3.11,0,0,0,1.18.18A3.71,3.71,0,0,0,24.4,38.32Zm1.09-1.58c.23,0,.29.22.17.65s-.24,1-.38,1.63a.25.25,0,0,1-.32.2c-.16,0-.22-.15-.17-.34l.35-1.65h-.95c-.19,0-.28-.08-.28-.25s.09-.24.28-.24Zm4.67-10a.25.25,0,0,1-.35.35,10.78,10.78,0,0,0-1.3-1.07,8.8,8.8,0,0,0-1.28-.74,9.35,9.35,0,0,0-1.41-.51c-.5-.14-1.05-.27-1.63-.39q-.29-.06-.21-.33c0-.18.14-.24.28-.19a16.26,16.26,0,0,1,1.72.4,9.4,9.4,0,0,1,1.46.56,10.49,10.49,0,0,1,1.35.81A15.91,15.91,0,0,1,30.16,26.79ZM33.57,16.7A2,2,0,0,1,33,18.09a1.81,1.81,0,0,1-1.35.58,1.77,1.77,0,0,1-1.3-.49A3.5,3.5,0,0,1,29.6,17a14.14,14.14,0,0,0,.09,1.44,3.08,3.08,0,0,0,.4,1.33h-1.3a2.57,2.57,0,0,0,.46-1.33c.05-.54.07-1,.07-1.44a3.39,3.39,0,0,1-.79,1.23,1.85,1.85,0,0,1-1.32.49,1.73,1.73,0,0,1-1.33-.58,2,2,0,0,1-.53-1.39A1.8,1.8,0,0,1,26,15.19a2.43,2.43,0,0,1,1.55-.49,2.34,2.34,0,0,1,1,.21,2.36,2.36,0,0,1-.74-.88,2.44,2.44,0,0,1-.31-1.13,1.85,1.85,0,0,1,.56-1.37,2,2,0,0,1,2.74,0,1.85,1.85,0,0,1,.56,1.37A2.44,2.44,0,0,1,31.08,14a2.19,2.19,0,0,1-.78.88,2.62,2.62,0,0,1,1.09-.21,2.34,2.34,0,0,1,1.55.52A1.83,1.83,0,0,1,33.57,16.7ZM28.16,38.32a2.75,2.75,0,0,1-.46.83.94.94,0,0,1-.77.33,1.07,1.07,0,0,1-.83-.33,1.79,1.79,0,0,1-.4-.83,3.36,3.36,0,0,0,1.21.18A3.67,3.67,0,0,0,28.16,38.32Zm5.1-5.41a1.34,1.34,0,0,1,.45,1,1.37,1.37,0,0,1-.15.66,2.4,2.4,0,0,1-.37.5v2.07c0,.19-.07.28-.21.28H31.54c-.19,0-.29-.09-.29-.28V35.09a2,2,0,0,1-.35-.5,1.49,1.49,0,0,1-.14-.66,1.39,1.39,0,0,1,.42-1h-.49c-.19,0-.28-.09-.28-.25s.09-.25.28-.25h.63V24.64l1-1.44,1,1.44v7.77h.53c.18,0,.28.09.28.25s-.1.25-.28.25Zm-.07,1a.94.94,0,0,0-.27-.67.83.83,0,0,0-.65-.28,1,1,0,0,0-.73.28.92.92,0,0,0-.29.67,1,1,0,0,0,.29.72.94.94,0,0,0,.73.3.82.82,0,0,0,.65-.3A1,1,0,0,0,33.19,33.93Zm-.49,1.44a1.68,1.68,0,0,1-.43.07,1.87,1.87,0,0,1-.52-.07V37h1Zm.07-3v-7.7l-.5-.73-.45.73v7.7Zm9,12.52a1.05,1.05,0,0,1-.37.88,1.5,1.5,0,0,1-.94.28,1.6,1.6,0,0,1-.63-.14,1.43,1.43,0,0,1,.63,1.23,1.15,1.15,0,0,1-.33.83,1.13,1.13,0,0,1-.83.33,1.06,1.06,0,0,1-.8-.33,1.18,1.18,0,0,1-.32-.83A1.43,1.43,0,0,1,38.81,46a1.6,1.6,0,0,1-.63.14,1.45,1.45,0,0,1-.93-.28,1,1,0,0,1-.37-.88,1.07,1.07,0,0,1,.33-.81A1.18,1.18,0,0,1,38,43.8a1,1,0,0,1,.75.29,2,2,0,0,1,.44.7c0-.26,0-.55,0-.86a1.57,1.57,0,0,0-.25-.79h.74a1.79,1.79,0,0,0-.24.77,5.85,5.85,0,0,0-.07.88,1.92,1.92,0,0,1,.45-.7,1.06,1.06,0,0,1,.78-.29,1.16,1.16,0,0,1,.82.32A1.08,1.08,0,0,1,41.77,44.93Zm-.57,6.64h-1v-.14c0-.72-.21-1.09-.63-1.09s-.67.26-.67.78v3.69H37.79V51.12c0-1.15.55-1.73,1.66-1.73s1.75.68,1.75,2Z" style="fill: #231f20"/>
    </g>
  </g>
</svg>
