<svg xmlns="http://www.w3.org/2000/svg" viewBox="0 0 43.49 57.97">
  <g id="Layer_2" data-name="Layer 2">
    <g id="Layer_1-2" data-name="Layer 1">
      <path d="M43.49,56.32A1.62,1.62,0,0,1,41.84,58H1.58a1.43,1.43,0,0,1-1.14-.51A1.72,1.72,0,0,1,0,56.32V1.58A1.54,1.54,0,0,1,.44.44,1.54,1.54,0,0,1,1.58,0H41.84A1.71,1.71,0,0,1,43,.44a1.47,1.47,0,0,1,.49,1.14Zm-1-54.74a.52.52,0,0,0-.16-.38A.58.58,0,0,0,41.84,1H1.58A.5.5,0,0,0,1,1.58V56.32a.58.58,0,0,0,.18.47.52.52,0,0,0,.38.16H41.84a.56.56,0,0,0,.63-.63ZM7.07,13.11a1.1,1.1,0,0,1-.34.83,1.12,1.12,0,0,1-.82.33A1.05,1.05,0,0,1,5.13,14a1.93,1.93,0,0,1-.45-.74q0,.39,0,.87a1.61,1.61,0,0,0,.25.79H4.25a1.76,1.76,0,0,0,.23-.78,7.36,7.36,0,0,0,.06-.88,2.08,2.08,0,0,1-.46.74,1.05,1.05,0,0,1-.78.28,1.06,1.06,0,0,1-.8-.33,1.16,1.16,0,0,1-.32-.83,1,1,0,0,1,.37-.88,1.46,1.46,0,0,1,.9-.28,1.66,1.66,0,0,1,.66.14,1.91,1.91,0,0,1-.47-.54,1.27,1.27,0,0,1-.19-.65A1.13,1.13,0,0,1,4.61,9.74a1.12,1.12,0,0,1,.82.33,1.14,1.14,0,0,1,.34.83,1.36,1.36,0,0,1-.18.65,1.61,1.61,0,0,1-.46.54A1.61,1.61,0,0,1,5.77,12a1.56,1.56,0,0,1,.91.28A1,1,0,0,1,7.07,13.11ZM6.33,6.93H5.55v1.3H4.68V6.93H2.39V6.36L4.75,3h.8V6.19h.78ZM4.68,6.19V4.46L3.38,6.19Zm13,5.13a2.08,2.08,0,0,1-.62,1.51,2.25,2.25,0,0,1-3,.11,3.25,3.25,0,0,1-.85-1.34c0,.47,0,1,.07,1.6a3,3,0,0,0,.5,1.5H12.38a3.19,3.19,0,0,0,.49-1.48A14.84,14.84,0,0,0,13,11.6a3.73,3.73,0,0,1-.86,1.34,2,2,0,0,1-1.46.52,2.05,2.05,0,0,1-1.53-.63,2.08,2.08,0,0,1-.61-1.51,2,2,0,0,1,.7-1.67,2.59,2.59,0,0,1,1.72-.58,2.2,2.2,0,0,1,1.23.32,3.59,3.59,0,0,1-.86-1.06,2.69,2.69,0,0,1-.37-1.26,2,2,0,0,1,.64-1.53,2.12,2.12,0,0,1,1.54-.62,2.12,2.12,0,0,1,2.15,2.15,2.77,2.77,0,0,1-.35,1.26,3.28,3.28,0,0,1-.85,1.06,2,2,0,0,1,.58-.25,2.56,2.56,0,0,1,.62-.07A2.77,2.77,0,0,1,17,9.63,2,2,0,0,1,17.72,11.32Zm0,35.4A2,2,0,0,1,17,48.39a2.67,2.67,0,0,1-1.74.58,3.18,3.18,0,0,1-.62,0,1.68,1.68,0,0,1-.58-.23,3.3,3.3,0,0,1,.85,1A2.67,2.67,0,0,1,15.26,51a2.12,2.12,0,0,1-.62,1.54,2,2,0,0,1-1.53.64A2.19,2.19,0,0,1,10.93,51a2.59,2.59,0,0,1,.37-1.25,3.62,3.62,0,0,1,.86-1,2.38,2.38,0,0,1-1.23.28,2.74,2.74,0,0,1-1.72-.54,2,2,0,0,1-.7-1.71,2.1,2.1,0,0,1,.61-1.49,2,2,0,0,1,1.53-.65,2.05,2.05,0,0,1,1.48.53A3.3,3.3,0,0,1,13,46.44c0-.21,0-.46,0-.74s0-.56-.08-.84a4.31,4.31,0,0,0-.17-.81,2.65,2.65,0,0,0-.33-.7h1.44a2,2,0,0,0-.32.68,7.6,7.6,0,0,0-.16.83c0,.28-.06.56-.07.84s0,.53,0,.74a3.58,3.58,0,0,1,.87-1.33,2,2,0,0,1,1.45-.53,2,2,0,0,1,1.53.65A2.11,2.11,0,0,1,17.72,46.72Zm17.37-35.4a2,2,0,0,1-.64,1.51,2.09,2.09,0,0,1-1.54.63,2,2,0,0,1-1.46-.52,3.32,3.32,0,0,1-.83-1.34c0,.47,0,1,.07,1.6a3,3,0,0,0,.49,1.5H29.74a3.32,3.32,0,0,0,.46-1.48,14.84,14.84,0,0,0,.1-1.62,3.83,3.83,0,0,1-.84,1.34,1.94,1.94,0,0,1-1.44.52,2.11,2.11,0,0,1-1.55-.63,2.05,2.05,0,0,1-.63-1.51,2,2,0,0,1,.72-1.67,2.67,2.67,0,0,1,1.74-.58,2.7,2.7,0,0,1,.63.07,2,2,0,0,1,.6.25,3.44,3.44,0,0,1-.86-1.06,2.58,2.58,0,0,1-.37-1.26,2.12,2.12,0,0,1,2.15-2.15A2.14,2.14,0,0,1,32,5.54a2.05,2.05,0,0,1,.63,1.53,2.67,2.67,0,0,1-.36,1.26,3.46,3.46,0,0,1-.87,1.06,2,2,0,0,1,.6-.25,2.7,2.7,0,0,1,.63-.07,2.82,2.82,0,0,1,1.75.56A2,2,0,0,1,35.09,11.32Zm0,35.4a2,2,0,0,1-.72,1.67,2.71,2.71,0,0,1-1.75.58,3.35,3.35,0,0,1-.63,0,1.7,1.7,0,0,1-.6-.23,3.49,3.49,0,0,1,.87,1A2.57,2.57,0,0,1,32.62,51a2.17,2.17,0,0,1-2.17,2.18,2,2,0,0,1-1.53-.64A2.12,2.12,0,0,1,28.3,51a2.49,2.49,0,0,1,.37-1.25,3.47,3.47,0,0,1,.86-1,1.7,1.7,0,0,1-.6.23,3.35,3.35,0,0,1-.63,0,2.82,2.82,0,0,1-1.74-.54,2,2,0,0,1-.72-1.71A2.19,2.19,0,0,1,28,44.58a2,2,0,0,1,1.46.53,3.26,3.26,0,0,1,.82,1.33c0-.47,0-1-.07-1.6a2.87,2.87,0,0,0-.49-1.49h1.44a1.94,1.94,0,0,0-.31.68,5.79,5.79,0,0,0-.16.83,7.93,7.93,0,0,0-.07.84c0,.28,0,.53,0,.74a3.79,3.79,0,0,1,.84-1.33,2,2,0,0,1,1.45-.53,2.2,2.2,0,0,1,2.18,2.14Zm6.68-1.79a1.05,1.05,0,0,1-.37.88,1.5,1.5,0,0,1-.94.28,1.6,1.6,0,0,1-.63-.14,1.43,1.43,0,0,1,.63,1.23,1.15,1.15,0,0,1-.33.83,1.13,1.13,0,0,1-.83.33,1.06,1.06,0,0,1-.8-.33,1.18,1.18,0,0,1-.32-.83A1.43,1.43,0,0,1,38.81,46a1.6,1.6,0,0,1-.63.14,1.45,1.45,0,0,1-.93-.28,1,1,0,0,1-.37-.88,1.07,1.07,0,0,1,.33-.81A1.18,1.18,0,0,1,38,43.8a1,1,0,0,1,.75.29,2,2,0,0,1,.44.7c0-.26,0-.55,0-.86a1.57,1.57,0,0,0-.25-.79h.74a1.79,1.79,0,0,0-.24.77,5.85,5.85,0,0,0-.07.88,1.92,1.92,0,0,1,.45-.7,1.06,1.06,0,0,1,.78-.29,1.16,1.16,0,0,1,.82.32A1.08,1.08,0,0,1,41.77,44.93Zm-.22,6.78-2.39,3.38h-.77V51.86h-.81v-.74h.81V49.85h.84v1.27h2.32Zm-1,.15H39.23v1.72Z" style="fill: #231f20"/>
    </g>
  </g>
</svg>
