<svg xmlns="http://www.w3.org/2000/svg" viewBox="0 0 43.49 57.97">
  <g id="Layer_2" data-name="Layer 2">
    <g id="Layer_1-2" data-name="Layer 1">
      <path d="M43.49,56.32A1.62,1.62,0,0,1,41.84,58H1.58a1.43,1.43,0,0,1-1.14-.51A1.72,1.72,0,0,1,0,56.32V1.58A1.54,1.54,0,0,1,.44.44,1.54,1.54,0,0,1,1.58,0H41.84A1.71,1.71,0,0,1,43,.44a1.47,1.47,0,0,1,.49,1.14Zm-1-54.74a.52.52,0,0,0-.16-.38A.58.58,0,0,0,41.84,1H1.58A.5.5,0,0,0,1,1.58V56.32a.58.58,0,0,0,.18.47.52.52,0,0,0,.38.16H41.84a.56.56,0,0,0,.63-.63ZM7.07,13.11a1.1,1.1,0,0,1-.34.83,1.12,1.12,0,0,1-.82.33A1.05,1.05,0,0,1,5.13,14a1.93,1.93,0,0,1-.45-.74q0,.39,0,.87a1.61,1.61,0,0,0,.25.79H4.25a1.76,1.76,0,0,0,.23-.78,7.36,7.36,0,0,0,.06-.88,2.08,2.08,0,0,1-.46.74,1.05,1.05,0,0,1-.78.28,1.06,1.06,0,0,1-.8-.33,1.16,1.16,0,0,1-.32-.83,1,1,0,0,1,.37-.88,1.46,1.46,0,0,1,.9-.28,1.66,1.66,0,0,1,.66.14,1.91,1.91,0,0,1-.47-.54,1.27,1.27,0,0,1-.19-.65A1.13,1.13,0,0,1,4.61,9.74a1.12,1.12,0,0,1,.82.33,1.14,1.14,0,0,1,.34.83,1.36,1.36,0,0,1-.18.65,1.61,1.61,0,0,1-.46.54A1.61,1.61,0,0,1,5.77,12a1.56,1.56,0,0,1,.91.28A1,1,0,0,1,7.07,13.11Zm-.6-7.2a5.39,5.39,0,0,1-.09,1,2.3,2.3,0,0,1-.32.84,1.78,1.78,0,0,1-.59.6,1.78,1.78,0,0,1-.93.23,1.61,1.61,0,0,1-1.06-.34,1.53,1.53,0,0,1-.53-1l.88-.14a3.32,3.32,0,0,0,.23.58.51.51,0,0,0,.48.3.74.74,0,0,0,.77-.51,4.81,4.81,0,0,0,.24-.94,1.58,1.58,0,0,1-1,.36,1.63,1.63,0,0,1-1.2-.46,1.64,1.64,0,0,1-.46-1.2,2,2,0,0,1,.48-1.37,1.63,1.63,0,0,1,1.32-.56,1.51,1.51,0,0,1,.91.25,1.58,1.58,0,0,1,.54.61A2.76,2.76,0,0,1,6.4,5,6,6,0,0,1,6.47,5.91Zm-1-.78a1.67,1.67,0,0,0-.19-.81A.72.72,0,0,0,4.61,4a.6.6,0,0,0-.6.39,1.84,1.84,0,0,0-.18.77A1.31,1.31,0,0,0,4,5.82a.62.62,0,0,0,.6.3.75.75,0,0,0,.66-.3A1.17,1.17,0,0,0,5.48,5.13Zm12.24,6.19a2.08,2.08,0,0,1-.62,1.51,2.25,2.25,0,0,1-3,.11,3.25,3.25,0,0,1-.85-1.34c0,.47,0,1,.07,1.6a3,3,0,0,0,.5,1.5H12.38a3.19,3.19,0,0,0,.49-1.48A14.84,14.84,0,0,0,13,11.6a3.73,3.73,0,0,1-.86,1.34,2,2,0,0,1-1.46.52,2.05,2.05,0,0,1-1.53-.63,2.08,2.08,0,0,1-.61-1.51,2,2,0,0,1,.7-1.67,2.59,2.59,0,0,1,1.72-.58,2.2,2.2,0,0,1,1.23.32,3.59,3.59,0,0,1-.86-1.06,2.69,2.69,0,0,1-.37-1.26,2,2,0,0,1,.64-1.53,2.12,2.12,0,0,1,1.54-.62,2.12,2.12,0,0,1,2.15,2.15,2.77,2.77,0,0,1-.35,1.26,3.28,3.28,0,0,1-.85,1.06,2,2,0,0,1,.58-.25,2.56,2.56,0,0,1,.62-.07A2.77,2.77,0,0,1,17,9.63,2,2,0,0,1,17.72,11.32Zm0,12.3a2.15,2.15,0,0,1-.62,1.53,2,2,0,0,1-1.53.65,2,2,0,0,1-1.47-.54,3.35,3.35,0,0,1-.85-1.35c0,.47,0,1,.07,1.6a3,3,0,0,0,.5,1.49H12.38a3.11,3.11,0,0,0,.49-1.48,14.82,14.82,0,0,0,.1-1.61,3.86,3.86,0,0,1-.86,1.35,2,2,0,0,1-1.46.54,2,2,0,0,1-1.53-.65,2.14,2.14,0,0,1-.61-1.53A2,2,0,0,1,9.21,22a2.69,2.69,0,0,1,1.72-.56,2.38,2.38,0,0,1,1.23.28,3.67,3.67,0,0,1-.86-1.05,2.72,2.72,0,0,1-.37-1.27,2,2,0,0,1,.64-1.53,2.11,2.11,0,0,1,1.54-.61,2.1,2.1,0,0,1,2.15,2.14,2.8,2.8,0,0,1-.35,1.27,3.35,3.35,0,0,1-.85,1.05,1.68,1.68,0,0,1,.58-.23,4.21,4.21,0,0,1,.62-.05A2.76,2.76,0,0,1,17,22,2,2,0,0,1,17.72,23.62Zm0,10.8A2,2,0,0,1,17,36.09a2.72,2.72,0,0,1-1.74.58,4.21,4.21,0,0,1-.62-.05,1.9,1.9,0,0,1-.58-.23,3.26,3.26,0,0,1,.85,1,2.7,2.7,0,0,1,.35,1.25,2.14,2.14,0,0,1-.62,1.55,2.05,2.05,0,0,1-1.53.63,2.17,2.17,0,0,1-2.18-2.18,2.62,2.62,0,0,1,.37-1.25,3.57,3.57,0,0,1,.86-1,2.49,2.49,0,0,1-1.23.28,2.69,2.69,0,0,1-1.72-.56,2,2,0,0,1-.7-1.69,2.14,2.14,0,0,1,.61-1.5,2,2,0,0,1,1.53-.65,2.1,2.1,0,0,1,1.48.53A3.33,3.33,0,0,1,13,34.14c0-.47,0-1-.07-1.6a2.83,2.83,0,0,0-.52-1.5h1.44a2,2,0,0,0-.32.69,7.43,7.43,0,0,0-.16.82c0,.29-.06.57-.07.85s0,.53,0,.74a3.62,3.62,0,0,1,.87-1.34,2,2,0,0,1,1.45-.53,2,2,0,0,1,1.53.65A2.15,2.15,0,0,1,17.72,34.42Zm0,12.3A2,2,0,0,1,17,48.39a2.67,2.67,0,0,1-1.74.58,3.18,3.18,0,0,1-.62,0,1.68,1.68,0,0,1-.58-.23,3.3,3.3,0,0,1,.85,1A2.67,2.67,0,0,1,15.26,51a2.12,2.12,0,0,1-.62,1.54,2,2,0,0,1-1.53.64A2.19,2.19,0,0,1,10.93,51a2.59,2.59,0,0,1,.37-1.25,3.62,3.62,0,0,1,.86-1,2.38,2.38,0,0,1-1.23.28,2.74,2.74,0,0,1-1.72-.54,2,2,0,0,1-.7-1.71,2.1,2.1,0,0,1,.61-1.49,2,2,0,0,1,1.53-.65,2.05,2.05,0,0,1,1.48.53A3.3,3.3,0,0,1,13,46.44c0-.21,0-.46,0-.74s0-.56-.08-.84a4.31,4.31,0,0,0-.17-.81,2.65,2.65,0,0,0-.33-.7h1.44a2,2,0,0,0-.32.68,7.6,7.6,0,0,0-.16.83c0,.28-.06.56-.07.84s0,.53,0,.74a3.58,3.58,0,0,1,.87-1.33,2,2,0,0,1,1.45-.53,2,2,0,0,1,1.53.65A2.11,2.11,0,0,1,17.72,46.72Zm8.65-16.31A2.12,2.12,0,0,1,25.73,32a2,2,0,0,1-1.54.65,2,2,0,0,1-1.46-.52,3.32,3.32,0,0,1-.83-1.34c0,.47,0,1,.07,1.6a3,3,0,0,0,.49,1.5H21a3.29,3.29,0,0,0,.5-1.52,14.62,14.62,0,0,0,.1-1.58,4.22,4.22,0,0,1-.88,1.34,1.94,1.94,0,0,1-1.44.52A2,2,0,0,1,17.77,32a2.17,2.17,0,0,1-.61-1.56,1.92,1.92,0,0,1,.7-1.63,2.69,2.69,0,0,1,1.72-.55,2.43,2.43,0,0,1,1.23.28,3.47,3.47,0,0,1-.86-1,2.59,2.59,0,0,1-.37-1.24,2.15,2.15,0,0,1,2.18-2.18,2.05,2.05,0,0,1,1.53.63,2.14,2.14,0,0,1,.62,1.55,2.59,2.59,0,0,1-.37,1.24,3.62,3.62,0,0,1-.86,1,2.65,2.65,0,0,1,1.23-.28,2.76,2.76,0,0,1,1.74.55A1.9,1.9,0,0,1,26.37,30.41Zm8.72-19.09a2,2,0,0,1-.64,1.51,2.09,2.09,0,0,1-1.54.63,2,2,0,0,1-1.46-.52,3.32,3.32,0,0,1-.83-1.34c0,.47,0,1,.07,1.6a3,3,0,0,0,.49,1.5H29.74a3.32,3.32,0,0,0,.46-1.48,14.84,14.84,0,0,0,.1-1.62,3.83,3.83,0,0,1-.84,1.34,1.94,1.94,0,0,1-1.44.52,2.11,2.11,0,0,1-1.55-.63,2.05,2.05,0,0,1-.63-1.51,2,2,0,0,1,.72-1.67,2.67,2.67,0,0,1,1.74-.58,2.7,2.7,0,0,1,.63.07,2,2,0,0,1,.6.25,3.44,3.44,0,0,1-.86-1.06,2.58,2.58,0,0,1-.37-1.26,2.12,2.12,0,0,1,2.15-2.15A2.14,2.14,0,0,1,32,5.54a2.05,2.05,0,0,1,.63,1.53,2.67,2.67,0,0,1-.36,1.26,3.46,3.46,0,0,1-.87,1.06,2,2,0,0,1,.6-.25,2.7,2.7,0,0,1,.63-.07,2.82,2.82,0,0,1,1.75.56A2,2,0,0,1,35.09,11.32Zm0,12.3a2.09,2.09,0,0,1-.64,1.53,2,2,0,0,1-1.54.65,2,2,0,0,1-1.46-.54,3.42,3.42,0,0,1-.83-1.35c0,.47,0,1,.07,1.6A3,3,0,0,0,31.18,27H29.74a3.23,3.23,0,0,0,.46-1.48,14.82,14.82,0,0,0,.1-1.61,4,4,0,0,1-.84,1.35A1.92,1.92,0,0,1,28,25.8a2.05,2.05,0,0,1-1.55-.65,2.12,2.12,0,0,1-.63-1.53A2,2,0,0,1,26.56,22a2.77,2.77,0,0,1,1.74-.56,4.46,4.46,0,0,1,.63.05,1.7,1.7,0,0,1,.6.23,3.51,3.51,0,0,1-.86-1.05,2.61,2.61,0,0,1-.37-1.27,2.1,2.1,0,0,1,2.15-2.14,2.13,2.13,0,0,1,1.54.61,2.05,2.05,0,0,1,.63,1.53,2.7,2.7,0,0,1-.36,1.27,3.54,3.54,0,0,1-.87,1.05,1.7,1.7,0,0,1,.6-.23,4.46,4.46,0,0,1,.63-.05,2.81,2.81,0,0,1,1.75.55A2,2,0,0,1,35.09,23.62Zm0,10.8a2,2,0,0,1-.72,1.67,2.77,2.77,0,0,1-1.75.58,4.46,4.46,0,0,1-.63-.05,1.91,1.91,0,0,1-.6-.23,3.44,3.44,0,0,1,.87,1,2.6,2.6,0,0,1,.36,1.25,2.15,2.15,0,0,1-2.17,2.18,2.05,2.05,0,0,1-1.53-.63,2.14,2.14,0,0,1-.62-1.55,2.51,2.51,0,0,1,.37-1.25,3.42,3.42,0,0,1,.86-1,1.91,1.91,0,0,1-.6.23,4.46,4.46,0,0,1-.63.05,2.77,2.77,0,0,1-1.74-.56,2,2,0,0,1-.72-1.69,2.11,2.11,0,0,1,.63-1.5A2.09,2.09,0,0,1,28,32.27a2,2,0,0,1,1.46.53,3.3,3.3,0,0,1,.82,1.34c0-.47,0-1-.07-1.6a2.91,2.91,0,0,0-.49-1.5h1.44a2,2,0,0,0-.31.69,5.66,5.66,0,0,0-.16.82,8.34,8.34,0,0,0-.07.85c0,.28,0,.53,0,.74a3.83,3.83,0,0,1,.84-1.34,2,2,0,0,1,1.45-.53,2.2,2.2,0,0,1,2.18,2.15Zm0,12.3a2,2,0,0,1-.72,1.67,2.71,2.71,0,0,1-1.75.58,3.35,3.35,0,0,1-.63,0,1.7,1.7,0,0,1-.6-.23,3.49,3.49,0,0,1,.87,1A2.57,2.57,0,0,1,32.62,51a2.17,2.17,0,0,1-2.17,2.18,2,2,0,0,1-1.53-.64A2.12,2.12,0,0,1,28.3,51a2.49,2.49,0,0,1,.37-1.25,3.47,3.47,0,0,1,.86-1,1.7,1.7,0,0,1-.6.23,3.35,3.35,0,0,1-.63,0,2.82,2.82,0,0,1-1.74-.54,2,2,0,0,1-.72-1.71A2.19,2.19,0,0,1,28,44.58a2,2,0,0,1,1.46.53,3.26,3.26,0,0,1,.82,1.33c0-.47,0-1-.07-1.6a2.87,2.87,0,0,0-.49-1.49h1.44a1.94,1.94,0,0,0-.31.68,5.79,5.79,0,0,0-.16.83,7.93,7.93,0,0,0-.07.84c0,.28,0,.53,0,.74a3.79,3.79,0,0,1,.84-1.33,2,2,0,0,1,1.45-.53,2.2,2.2,0,0,1,2.18,2.14Zm6.68-1.79a1.05,1.05,0,0,1-.37.88,1.5,1.5,0,0,1-.94.28,1.6,1.6,0,0,1-.63-.14,1.43,1.43,0,0,1,.63,1.23,1.15,1.15,0,0,1-.33.83,1.13,1.13,0,0,1-.83.33,1.06,1.06,0,0,1-.8-.33,1.18,1.18,0,0,1-.32-.83A1.43,1.43,0,0,1,38.81,46a1.6,1.6,0,0,1-.63.14,1.45,1.45,0,0,1-.93-.28,1,1,0,0,1-.37-.88,1.07,1.07,0,0,1,.33-.81A1.18,1.18,0,0,1,38,43.8a1,1,0,0,1,.75.29,2,2,0,0,1,.44.7c0-.26,0-.55,0-.86a1.57,1.57,0,0,0-.25-.79h.74a1.79,1.79,0,0,0-.24.77,5.85,5.85,0,0,0-.07.88,1.92,1.92,0,0,1,.45-.7,1.06,1.06,0,0,1,.78-.29,1.16,1.16,0,0,1,.82.32A1.08,1.08,0,0,1,41.77,44.93Zm-.71,8a2.11,2.11,0,0,1-.47,1.37,1.7,1.7,0,0,1-1.36.56,1.51,1.51,0,0,1-.91-.25,1.57,1.57,0,0,1-.54-.63,3,3,0,0,1-.27-.86,6,6,0,0,1-.07-.93,5.5,5.5,0,0,1,.09-1,2.37,2.37,0,0,1,.32-.84,1.88,1.88,0,0,1,.59-.6,1.79,1.79,0,0,1,.94-.23A1.45,1.45,0,0,1,41,50.84l-.85.14a2,2,0,0,0-.23-.57.54.54,0,0,0-.5-.28.71.71,0,0,0-.76.49,6.22,6.22,0,0,0-.23,1,1.52,1.52,0,0,1,1-.38,1.56,1.56,0,0,1,1.68,1.69Zm-1,.07a1.52,1.52,0,0,0-.17-.71.67.67,0,0,0-.64-.31.7.7,0,0,0-.63.31,1.26,1.26,0,0,0-.21.71,1.68,1.68,0,0,0,.18.77.67.67,0,0,0,.66.35.64.64,0,0,0,.64-.37A1.82,1.82,0,0,0,40.11,53Z" style="fill: #231f20"/>
    </g>
  </g>
</svg>
