<svg xmlns="http://www.w3.org/2000/svg" viewBox="0 0 43.49 57.97">
  <g id="Layer_2" data-name="Layer 2">
    <g id="Layer_1-2" data-name="Layer 1">
      <path d="M43.49,56.32A1.62,1.62,0,0,1,41.84,58H1.58a1.43,1.43,0,0,1-1.14-.51A1.72,1.72,0,0,1,0,56.32V1.58A1.54,1.54,0,0,1,.44.44,1.54,1.54,0,0,1,1.58,0H41.84A1.71,1.71,0,0,1,43,.44a1.47,1.47,0,0,1,.49,1.14Zm-1-54.74a.52.52,0,0,0-.16-.38A.58.58,0,0,0,41.84,1H1.58A.5.5,0,0,0,1,1.58V56.32a.58.58,0,0,0,.18.47.52.52,0,0,0,.38.16H41.84a.56.56,0,0,0,.63-.63ZM7.07,13.11a1.1,1.1,0,0,1-.34.83,1.12,1.12,0,0,1-.82.33A1.05,1.05,0,0,1,5.13,14a1.93,1.93,0,0,1-.45-.74q0,.39,0,.87a1.61,1.61,0,0,0,.25.79H4.25a1.76,1.76,0,0,0,.23-.78,7.36,7.36,0,0,0,.06-.88,2.08,2.08,0,0,1-.46.74,1.05,1.05,0,0,1-.78.28,1.06,1.06,0,0,1-.8-.33,1.16,1.16,0,0,1-.32-.83,1,1,0,0,1,.37-.88,1.46,1.46,0,0,1,.9-.28,1.66,1.66,0,0,1,.66.14,1.91,1.91,0,0,1-.47-.54,1.27,1.27,0,0,1-.19-.65A1.13,1.13,0,0,1,4.61,9.74a1.12,1.12,0,0,1,.82.33,1.14,1.14,0,0,1,.34.83,1.36,1.36,0,0,1-.18.65,1.61,1.61,0,0,1-.46.54A1.61,1.61,0,0,1,5.77,12a1.56,1.56,0,0,1,.91.28A1,1,0,0,1,7.07,13.11Zm.07-4.53H5.7L4,6.29l-.49.57V8.58H2.46V3.34H3.55V5.48l2-2.14H7L4.82,5.48ZM35.3,49.78H8.3V8.3h27Zm-.95-1V9.21H9.21V48.83ZM18.74,16.88a2.08,2.08,0,0,1-.63,1.49,2.11,2.11,0,0,1-1.55.65,2,2,0,0,1-1.46-.53,3.39,3.39,0,0,1-.83-1.33c0,.46,0,1,.07,1.6a2.91,2.91,0,0,0,.5,1.49H13.39a1.83,1.83,0,0,0,.32-.69,7.43,7.43,0,0,0,.16-.82c0-.28.06-.56.07-.85s0-.52,0-.73a3.81,3.81,0,0,1-.85,1.33,2,2,0,0,1-1.44.53,2,2,0,0,1-1.53-.65,2.1,2.1,0,0,1-.61-1.49,2,2,0,0,1,.7-1.67A2.6,2.6,0,0,1,12,14.62a3.47,3.47,0,0,1,.64.06,1.43,1.43,0,0,1,.59.23,3.76,3.76,0,0,1-.86-1A2.59,2.59,0,0,1,12,12.62a2.17,2.17,0,0,1,2.18-2.18,2.05,2.05,0,0,1,1.53.63,2.16,2.16,0,0,1,.62,1.55,2.59,2.59,0,0,1-.37,1.25,3.6,3.6,0,0,1-.86,1,1.43,1.43,0,0,1,.59-.23,3.55,3.55,0,0,1,.64-.06,2.72,2.72,0,0,1,1.74.57A2,2,0,0,1,18.74,16.88ZM12.23,31.46l.07,7.81-1,1.41-1-1.41-.07-7.81H9.81c-.19,0-.28-.08-.28-.24s.09-.25.28-.25h.49a1.19,1.19,0,0,1-.42-1,1.32,1.32,0,0,1,.49-1.05V26.72c0-.19.07-.28.21-.28H12a.24.24,0,0,1,.28.28V28.9A1.22,1.22,0,0,1,12.83,30a1.16,1.16,0,0,1-.45,1h.52c.19,0,.28.08.28.25s-.09.24-.28.24ZM12.3,30a1,1,0,0,0-.26-.68.82.82,0,0,0-.65-.3,1,1,0,0,0-.74.3,1,1,0,0,0-.28.68.91.91,0,0,0,.28.67,1,1,0,0,0,.74.28.83.83,0,0,0,.65-.28A.93.93,0,0,0,12.3,30Zm-.56,9.21v-7.7h-1v7.7l.53.74Zm.07-12.23h-1v1.65a1.1,1.1,0,0,1,.53-.14.9.9,0,0,1,.42.14ZM24.47,47.6c0,.42-.14.47-.42.14l-1.16-1.65c-.4.61-.68,1.06-.85,1.35s-.31.44-.45.44-.31-.16-.5-.47-.49-.78-.91-1.39a12,12,0,0,0-1.11,1.39c-.2.31-.37.47-.53.47s-.33-.16-.54-.47A15.51,15.51,0,0,0,16.91,46c-.42.61-.73,1.07-.91,1.39s-.36.47-.5.47-.29-.14-.45-.44-.45-.74-.85-1.35L13,47.74a.36.36,0,0,1-.33.18c-.11,0-.16-.13-.16-.32V41.06a.24.24,0,0,1,.19-.26c.13,0,.23,0,.3.19a6,6,0,0,0,5.49,3.17,5.82,5.82,0,0,0,5.52-3.38c.07-.16.16-.23.26-.21s.16.12.16.28Zm-.28-10.23a5.51,5.51,0,0,1-.44,2.18,5.63,5.63,0,0,1-1.2,1.79,5.51,5.51,0,0,1-6.1,1.22,5.8,5.8,0,0,1-1.79-1.22,5.72,5.72,0,0,1-1.23-1.79,5.4,5.4,0,0,1,.51-5.27,5.65,5.65,0,0,1,2.48-2l.49-1.3c.07-.18.18-.24.33-.17s.2.17.13.31l-.28.88.24,0a1.08,1.08,0,0,1,.32,0l.21-1a.24.24,0,0,1,.3-.17c.15,0,.19.13.12.31l-.14.74a1.15,1.15,0,0,1,.39-.07V31c0-.18.08-.28.24-.28s.25.1.25.28v.74a.19.19,0,0,0,.14.07h.14l-.14-.74c-.05-.18,0-.29.14-.31a.22.22,0,0,1,.28.17l.28,1a2,2,0,0,0,.28.11,2.85,2.85,0,0,1,.32.1l-.35-1c-.09-.14-.06-.24.1-.31s.27,0,.32.17l.56,1.37a5.51,5.51,0,0,1,2.25,2.06A5.44,5.44,0,0,1,24.19,37.37ZM24,41.77a6.34,6.34,0,0,1-2.27,2.14,6.55,6.55,0,0,1-3.18.74A6.33,6.33,0,0,1,13,42v4.85l.79-1.16c.18-.26.33-.37.46-.34s.28.21.46.51.45.75.82,1.34c.43-.61.72-1.07.9-1.37s.33-.45.48-.44.31.17.52.49.57.78,1.06,1.39c.49-.63.85-1.1,1.07-1.41s.4-.46.54-.47.3.13.48.44.49.76.93,1.37c.38-.59.65-1,.81-1.34s.3-.47.42-.51.26.08.42.34.42.64.78,1.16ZM19.37,24.43c-.61.12-1.16.24-1.65.37a7.65,7.65,0,0,0-1.39.51,10.39,10.39,0,0,0-2.58,1.83.25.25,0,1,1-.36-.35,16,16,0,0,1,1.38-1.11,10.49,10.49,0,0,1,1.35-.81,9.4,9.4,0,0,1,1.46-.56,15.7,15.7,0,0,1,1.72-.4c.14-.05.24,0,.28.19S19.56,24.39,19.37,24.43ZM23.7,37.37a4.94,4.94,0,0,0-.62-2.44,5.08,5.08,0,0,0-1.7-1.81l.45,1.16c.07.14,0,.24-.12.31s-.26,0-.33-.17l-.64-1.65-.37-.15-.44-.14.46,1.8c.07.18,0,.29-.14.31a.25.25,0,0,1-.32-.17l-.49-2.08a1.23,1.23,0,0,1-.42-.07v2.08c0,.19-.08.28-.25.28s-.24-.09-.24-.28V32.27a1.26,1.26,0,0,0-.28,0l-.25,0-.49,2.08a.22.22,0,0,1-.28.17c-.14,0-.19-.13-.14-.31l.42-1.87a1.58,1.58,0,0,1-.37.11,2.24,2.24,0,0,0-.37.1l-.7,1.8c-.05.19-.16.24-.32.16s-.2-.19-.11-.3l.5-1.37a5.24,5.24,0,0,0-1.94,1.86,4.88,4.88,0,0,0-.74,2.6,5,5,0,0,0,.41,2,5.29,5.29,0,0,0,2.74,2.74,4.91,4.91,0,0,0,2,.4,4.82,4.82,0,0,0,2-.4,5.35,5.35,0,0,0,2.72-2.74A5,5,0,0,0,23.7,37.37Zm-5.84,2.11a5.29,5.29,0,0,0-1.2-.1,6.29,6.29,0,0,0-1.26.1,3.21,3.21,0,0,1,.46-.81.93.93,0,0,1,.77-.35,1,1,0,0,1,.84.35A2,2,0,0,1,17.86,39.48Zm3.83-3.34c0,.19-.09.28-.26.28s-.27-.09-.27-.28a.67.67,0,0,0-.26-.54.84.84,0,0,0-.58-.23,1,1,0,0,0-.49.1,1.35,1.35,0,0,0-.32.27c-.09.1-.2.21-.31.31a1.38,1.38,0,0,1-.53.27.56.56,0,0,1-.6-.21c-.21-.22-.37-.39-.49-.53a.38.38,0,0,0-.27-.2h-.4a1,1,0,0,0-.58.19.66.66,0,0,0-.26.58c0,.19-.09.28-.25.28s-.25-.09-.25-.28a1.09,1.09,0,0,1,.46-1,1.57,1.57,0,0,1,.88-.31,1.69,1.69,0,0,1,.7.1,1,1,0,0,1,.34.25,2.37,2.37,0,0,1,.23.3.82.82,0,0,0,.42.26,1.37,1.37,0,0,0,.45-.26l.32-.3a1.42,1.42,0,0,1,.3-.25.66.66,0,0,1,.37-.1,2.1,2.1,0,0,1,1.18.31A1.08,1.08,0,0,1,21.69,36.14Zm-2.88.6c.28,0,.36.22.24.65s-.24,1-.38,1.63a.28.28,0,0,1-.34.18c-.17,0-.24-.13-.19-.32l.39-1.65h-1c-.14,0-.21-.08-.21-.25s.07-.24.21-.24Zm2.57,2.74a5.27,5.27,0,0,0-1.18-.1,6.18,6.18,0,0,0-1.25.1,3.21,3.21,0,0,1,.46-.81.93.93,0,0,1,.77-.35,1,1,0,0,1,.81.35A2.18,2.18,0,0,1,21.38,39.48ZM31,17a.21.21,0,0,1-.19.24.26.26,0,0,1-.3-.17,5.81,5.81,0,0,0-2.25-2.43,6.62,6.62,0,0,0-3.23-.74,5.81,5.81,0,0,0-5.56,3.38c-.07.14-.16.2-.26.17s-.16-.1-.16-.24V10.44c0-.42.14-.47.42-.14L20.67,12c.4-.58.69-1,.86-1.33s.34-.45.48-.44.3.17.49.47.49.76.91,1.37c.5-.61.85-1.06,1.06-1.37s.4-.45.56-.45.35.15.56.45.57.76,1.06,1.37c.42-.61.73-1.06.91-1.37s.35-.46.49-.47.3.13.48.44.46.75.86,1.33l1.16-1.65q.18-.21.33-.18c.11,0,.16.13.16.32Zm-.42,3.65a5.27,5.27,0,0,1-.95,3.13,5.71,5.71,0,0,1-2.53,2l-.49,1.27c-.07.19-.18.25-.32.18a.21.21,0,0,1-.1-.32l.28-.84-.27,0a1.66,1.66,0,0,1-.33,0l-.21.91c-.05.16-.15.23-.3.19s-.19-.14-.12-.33l.14-.7a1.43,1.43,0,0,1-.35.07V27c0,.19-.09.28-.25.28s-.25-.09-.25-.28v-.7a.19.19,0,0,0-.15-.07h-.16l.14.7c.05.19,0,.3-.14.33s-.24,0-.28-.19l-.28-.91a.8.8,0,0,0-.25-.11l-.32-.1.35,1a.21.21,0,0,1-.12.32q-.22.11-.3-.18l-.6-1.37a5.69,5.69,0,0,1-2.25-2,5.73,5.73,0,0,1-.4-5.19,5.66,5.66,0,0,1,3-3A5.31,5.31,0,0,1,25,15.05a5.22,5.22,0,0,1,2.14.44,5.5,5.5,0,0,1,1.79,1.21,5.72,5.72,0,0,1,1.23,1.79A5.2,5.2,0,0,1,30.62,20.67Zm-.07-9.42c-.35.54-.61.93-.79,1.16s-.33.33-.46.3-.28-.21-.45-.51-.46-.74-.83-1.3q-.63.91-.9,1.35c-.17.29-.33.44-.47.42s-.32-.17-.53-.47-.56-.76-1.05-1.37c-.5.61-.85,1.06-1.08,1.37s-.4.46-.54.47-.31-.13-.49-.42-.5-.74-.92-1.35c-.37.56-.65,1-.82,1.3s-.33.47-.44.51-.26-.07-.42-.32l-.78-1.14v5a6.32,6.32,0,0,1,2.25-2.15,6.63,6.63,0,0,1,3.24-.74,7.2,7.2,0,0,1,3.11.67,6.48,6.48,0,0,1,2.37,2Zm-.46,9.42a4.9,4.9,0,0,0-.4-2,5.08,5.08,0,0,0-1.09-1.62A5.19,5.19,0,0,0,27,16a5,5,0,0,0-4,0,5.24,5.24,0,0,0-1.63,1.09,5,5,0,0,0-1.11,1.62,4.91,4.91,0,0,0-.41,2,5,5,0,0,0,.62,2.45,5.16,5.16,0,0,0,1.7,1.81l-.42-1.16a.21.21,0,0,1,.11-.32c.14-.07.24,0,.31.17l.64,1.66.8.28-.42-1.79c-.07-.19,0-.3.13-.32a.23.23,0,0,1,.29.17l.5,2.08.21,0a1,1,0,0,1,.24.08V23.7c0-.19.09-.29.25-.29s.25.1.25.29v2.1a.57.57,0,0,0,.24-.05.92.92,0,0,1,.25-.05l.53-2.08a.22.22,0,0,1,.28-.17c.14,0,.18.13.14.32l-.42,1.86a2,2,0,0,1,.35-.11,2.68,2.68,0,0,0,.35-.1l.74-1.8c0-.18.14-.24.3-.17a.21.21,0,0,1,.12.32l-.53,1.37a4.82,4.82,0,0,0,1.95-1.85A5,5,0,0,0,30.09,20.67ZM28,21.9a1.1,1.1,0,0,1-.48,1,1.6,1.6,0,0,1-.89.31,1.69,1.69,0,0,1-.7-.1.72.72,0,0,1-.32-.27l-.23-.31a.88.88,0,0,0-.4-.27,1.39,1.39,0,0,0-.5.27l-.31.31a2.3,2.3,0,0,1-.28.27.59.59,0,0,1-.36.1,2.06,2.06,0,0,1-1.17-.31,1.1,1.1,0,0,1-.48-1c0-.19.08-.28.25-.28s.24.09.24.28a.71.71,0,0,0,.27.55.91.91,0,0,0,.61.23.9.9,0,0,0,.48-.11,2.21,2.21,0,0,0,.3-.25,3.4,3.4,0,0,1,.33-.29,1.48,1.48,0,0,1,.55-.27.54.54,0,0,1,.58.2,6.47,6.47,0,0,1,.47.5.44.44,0,0,0,.3.2l.37,0a1.05,1.05,0,0,0,.6-.2.67.67,0,0,0,.28-.58c0-.19.08-.28.24-.28S28,21.71,28,21.9Zm-3.38-3.3a2.83,2.83,0,0,1-.45.77.93.93,0,0,1-.78.35,1,1,0,0,1-.84-.35,1.94,1.94,0,0,1-.39-.77,5.29,5.29,0,0,0,1.2.1A6.22,6.22,0,0,0,24.64,18.6Zm5.52,12.65a15.44,15.44,0,0,1-1.35,1.11,9.41,9.41,0,0,1-1.35.83,9.1,9.1,0,0,1-1.48.58,14.32,14.32,0,0,1-1.72.37c-.14,0-.24,0-.28-.18s0-.27.21-.32c.58-.14,1.13-.28,1.63-.42a9.35,9.35,0,0,0,1.41-.51A8,8,0,0,0,28.51,32a10.78,10.78,0,0,0,1.3-1.07.23.23,0,0,1,.35,0A.22.22,0,0,1,30.16,31.25Zm-5.37-9.91a.25.25,0,0,1-.27-.18,1.31,1.31,0,0,1,0-.49c0-.21.1-.46.18-.74s.16-.58.23-.91a.25.25,0,0,1,.31-.18c.17,0,.22.13.18.32l-.35,1.65h1q.21,0,.21.27c0,.17-.07.26-.21.26ZM34.07,41.2a2,2,0,0,1-.72,1.66,2.92,2.92,0,0,1-3,.28,3.54,3.54,0,0,1,.86,1,2.72,2.72,0,0,1,.37,1.27,2.1,2.1,0,0,1-2.15,2.14A2.15,2.15,0,0,1,27.91,47a2.05,2.05,0,0,1-.63-1.53,2.61,2.61,0,0,1,.37-1.27,3.39,3.39,0,0,1,.86-1,2.54,2.54,0,0,1-1.23.28,2.69,2.69,0,0,1-1.72-.55,2,2,0,0,1-.7-1.67,2.17,2.17,0,0,1,.61-1.53A2,2,0,0,1,27,39a2.06,2.06,0,0,1,1.48.55,3.44,3.44,0,0,1,.84,1.35c0-.47,0-1-.07-1.6a2.72,2.72,0,0,0-.53-1.49h1.44a3.4,3.4,0,0,0-.47,1.49c-.06.6-.09,1.13-.09,1.6a3.84,3.84,0,0,1,.85-1.35A1.92,1.92,0,0,1,31.89,39a2.07,2.07,0,0,1,1.54.65A2.12,2.12,0,0,1,34.07,41.2ZM28.16,18.6a3.14,3.14,0,0,1-.46.77.9.9,0,0,1-.77.35,1,1,0,0,1-.83-.35,1.84,1.84,0,0,1-.4-.77,5.63,5.63,0,0,0,1.21.1A6.18,6.18,0,0,0,28.16,18.6Zm5.1,8.47a1.21,1.21,0,0,1,.45,1,1.38,1.38,0,0,1-.15.62,1.79,1.79,0,0,1-.37.47v2.14c0,.19-.07.29-.21.29H31.54a.26.26,0,0,1-.29-.29V29.18a1.38,1.38,0,0,1-.49-1.09,1.33,1.33,0,0,1,.42-1h-.49c-.19,0-.28-.08-.28-.25s.09-.24.28-.24l.63-.07v-7.7l1-1.44,1,1.44v7.7l.53.07c.18,0,.28.08.28.24s-.1.25-.28.25Zm-.07,1a1,1,0,0,0-.27-.7.81.81,0,0,0-.65-.32.93.93,0,0,0-.73.32,1,1,0,0,0-.29.7.92.92,0,0,0,.29.67,1,1,0,0,0,.73.28.83.83,0,0,0,.65-.28A.94.94,0,0,0,33.19,28.09Zm-.49,1.37a1.33,1.33,0,0,1-.43.07,1.56,1.56,0,0,1-.52-.07V31h1Zm.07-2.95V18.88l-.5-.74-.45.74v7.63Zm8.71,28.23H40.39V52.56l-2,2.18H37l2.14-2.18-2.28-3.1h1.44l1.65,2.33.49-.6V49.46h1.09Zm.29-9.81a1.05,1.05,0,0,1-.37.88,1.5,1.5,0,0,1-.94.28,1.6,1.6,0,0,1-.63-.14,1.43,1.43,0,0,1,.63,1.23,1.15,1.15,0,0,1-.33.83,1.13,1.13,0,0,1-.83.33,1.06,1.06,0,0,1-.8-.33,1.18,1.18,0,0,1-.32-.83A1.43,1.43,0,0,1,38.81,46a1.6,1.6,0,0,1-.63.14,1.45,1.45,0,0,1-.93-.28,1,1,0,0,1-.37-.88,1.07,1.07,0,0,1,.33-.81A1.18,1.18,0,0,1,38,43.8a1,1,0,0,1,.75.29,2,2,0,0,1,.44.7c0-.26,0-.55,0-.86a1.57,1.57,0,0,0-.25-.79h.74a1.79,1.79,0,0,0-.24.77,5.85,5.85,0,0,0-.07.88,1.92,1.92,0,0,1,.45-.7,1.06,1.06,0,0,1,.78-.29,1.16,1.16,0,0,1,.82.32A1.08,1.08,0,0,1,41.77,44.93Z" style="fill: #231f20"/>
    </g>
  </g>
</svg>
