<svg xmlns="http://www.w3.org/2000/svg" viewBox="0 0 43.49 57.97">
  <g id="Layer_2" data-name="Layer 2">
    <g id="Layer_1-2" data-name="Layer 1">
      <path d="M43.49,56.32A1.62,1.62,0,0,1,41.84,58H1.58a1.43,1.43,0,0,1-1.14-.51A1.72,1.72,0,0,1,0,56.32V1.58A1.54,1.54,0,0,1,.44.44,1.54,1.54,0,0,1,1.58,0H41.84A1.71,1.71,0,0,1,43,.44a1.47,1.47,0,0,1,.49,1.14Zm-1-54.74a.52.52,0,0,0-.16-.38A.58.58,0,0,0,41.84,1H1.58A.5.5,0,0,0,1,1.58V56.32a.58.58,0,0,0,.18.47.52.52,0,0,0,.38.16H41.84a.56.56,0,0,0,.63-.63ZM7.07,13.11a1.1,1.1,0,0,1-.34.83,1.12,1.12,0,0,1-.82.33A1.05,1.05,0,0,1,5.13,14a1.93,1.93,0,0,1-.45-.74q0,.39,0,.87a1.61,1.61,0,0,0,.25.79H4.25a1.76,1.76,0,0,0,.23-.78,7.36,7.36,0,0,0,.06-.88,2.08,2.08,0,0,1-.46.74,1.05,1.05,0,0,1-.78.28,1.06,1.06,0,0,1-.8-.33,1.16,1.16,0,0,1-.32-.83,1,1,0,0,1,.37-.88,1.46,1.46,0,0,1,.9-.28,1.66,1.66,0,0,1,.66.14,1.91,1.91,0,0,1-.47-.54,1.27,1.27,0,0,1-.19-.65A1.13,1.13,0,0,1,4.61,9.74a1.12,1.12,0,0,1,.82.33,1.14,1.14,0,0,1,.34.83,1.36,1.36,0,0,1-.18.65,1.61,1.61,0,0,1-.46.54A1.61,1.61,0,0,1,5.77,12a1.56,1.56,0,0,1,.91.28A1,1,0,0,1,7.07,13.11Zm.28-4.88H6.12L5.77,7.14H3.83L3.45,8.23H2.32L4.18,3h1.3Zm-1.87-2L4.82,4.11,4.18,6.19Zm23.17,24.5A3.19,3.19,0,0,1,27.74,33a3.3,3.3,0,0,1-4.47.15,5,5,0,0,1-1.23-2c0,.35,0,.75,0,1.18s0,.86.09,1.28a7.75,7.75,0,0,0,.24,1.22,3.35,3.35,0,0,0,.5,1H20.67a3.7,3.7,0,0,0,.46-1,8.13,8.13,0,0,0,.26-1.25c.06-.43.1-.86.13-1.28s0-.8,0-1.13a5.4,5.4,0,0,1-1.26,2,3,3,0,0,1-2.22.8,3,3,0,0,1-2.25-1,3.19,3.19,0,0,1-.91-2.29A2.93,2.93,0,0,1,16,28.2a4.19,4.19,0,0,1,2.64-.81,4.28,4.28,0,0,1,1.79.42,5.47,5.47,0,0,1-1.28-1.55,3.7,3.7,0,0,1-.58-1.9A3.23,3.23,0,0,1,19.44,22a3.19,3.19,0,0,1,2.39-.95,3.09,3.09,0,0,1,2.3.95,3.18,3.18,0,0,1,.94,2.32,3.79,3.79,0,0,1-.58,1.9,5.66,5.66,0,0,1-1.29,1.55,4,4,0,0,1,1.8-.42,4.18,4.18,0,0,1,2.58.81A2.92,2.92,0,0,1,28.65,30.69Zm13,14.1c0,.91-.36,1.37-1.08,1.37A1.13,1.13,0,0,1,39.9,46a1.67,1.67,0,0,1,.56,1.23,1,1,0,0,1-1.16,1.16c-.75,0-1.12-.39-1.12-1.16a1.46,1.46,0,0,1,.7-1.23,1.64,1.64,0,0,1-.7.21c-.68,0-1-.46-1-1.37,0-.73.29-1.09.88-1.09A1.75,1.75,0,0,1,39,44a1.12,1.12,0,0,0,.21-.6c0-.17-.14-.35-.42-.56H39.9a2.85,2.85,0,0,0-.26.28.41.41,0,0,0-.09.28,1.12,1.12,0,0,0,.21.6,1.7,1.7,0,0,1,.85-.32C41.29,43.7,41.62,44.06,41.62,44.79Zm-.07,5.06-1.79,5.73H39l-1.72-5.73h.56l.6,1.86h1.93l.57-1.86Zm-1.37,2.43H38.53L39.3,55Z" style="fill: #231f20"/>
    </g>
  </g>
</svg>
