<svg xmlns="http://www.w3.org/2000/svg" viewBox="0 0 43.49 57.97">
  <g id="Layer_2" data-name="Layer 2">
    <g id="Layer_1-2" data-name="Layer 1">
      <path d="M43.49,56.32A1.62,1.62,0,0,1,41.84,58H1.58a1.43,1.43,0,0,1-1.14-.51A1.72,1.72,0,0,1,0,56.32V1.58A1.54,1.54,0,0,1,.44.44,1.54,1.54,0,0,1,1.58,0H41.84A1.71,1.71,0,0,1,43,.44a1.47,1.47,0,0,1,.49,1.14Zm-1-54.74a.52.52,0,0,0-.16-.38A.58.58,0,0,0,41.84,1H1.58A.5.5,0,0,0,1,1.58V56.32a.58.58,0,0,0,.18.47.52.52,0,0,0,.38.16H41.84a.56.56,0,0,0,.63-.63ZM7.07,13.11a1.1,1.1,0,0,1-.34.83,1.12,1.12,0,0,1-.82.33A1.05,1.05,0,0,1,5.13,14a1.93,1.93,0,0,1-.45-.74q0,.39,0,.87a1.61,1.61,0,0,0,.25.79H4.25a1.76,1.76,0,0,0,.23-.78,7.36,7.36,0,0,0,.06-.88,2.08,2.08,0,0,1-.46.74,1.05,1.05,0,0,1-.78.28,1.06,1.06,0,0,1-.8-.33,1.16,1.16,0,0,1-.32-.83,1,1,0,0,1,.37-.88,1.46,1.46,0,0,1,.9-.28,1.66,1.66,0,0,1,.66.14,1.91,1.91,0,0,1-.47-.54,1.27,1.27,0,0,1-.19-.65A1.13,1.13,0,0,1,4.61,9.74a1.12,1.12,0,0,1,.82.33,1.14,1.14,0,0,1,.34.83,1.36,1.36,0,0,1-.18.65,1.61,1.61,0,0,1-.46.54A1.61,1.61,0,0,1,5.77,12a1.56,1.56,0,0,1,.91.28A1,1,0,0,1,7.07,13.11ZM6.26,4.78A1.74,1.74,0,0,1,5.7,6.17a10.66,10.66,0,0,1-1.24.9l-.31.22a3.93,3.93,0,0,0-.32.27H6.19V8.3H2.74V8.23a4,4,0,0,1,.07-.67,1.24,1.24,0,0,1,.35-.63,1.87,1.87,0,0,1,.57-.5c.23-.14.47-.28.7-.44A2.74,2.74,0,0,0,5,5.47a1.24,1.24,0,0,0,.24-.79A.91.91,0,0,0,5,4a.79.79,0,0,0-.65-.27.6.6,0,0,0-.63.39,2.32,2.32,0,0,0-.14.77l-.88-.07C2.74,3.63,3.32,3,4.46,3a1.81,1.81,0,0,1,1.31.48A1.71,1.71,0,0,1,6.26,4.78Zm20.11,6.54a2.11,2.11,0,0,1-.6,1.51,2.21,2.21,0,0,1-3,.11A3.43,3.43,0,0,1,22,11.6c0,.47,0,1,.07,1.6a2.91,2.91,0,0,0,.5,1.5H21a3.08,3.08,0,0,0,.5-1.48,14.84,14.84,0,0,0,.1-1.62,3.33,3.33,0,0,1-.84,1.34,2.09,2.09,0,0,1-1.48.52,1.92,1.92,0,0,1-1.49-.63,2.13,2.13,0,0,1-.58-1.51,2,2,0,0,1,.7-1.67,2.78,2.78,0,0,1,2.32-.51,2.36,2.36,0,0,1,.63.25A3.82,3.82,0,0,1,20,8.33a2.46,2.46,0,0,1-.41-1.26,2,2,0,0,1,.67-1.53,2.25,2.25,0,0,1,1.58-.62,2.15,2.15,0,0,1,1.5.62A2,2,0,0,1,24,7.07a2.46,2.46,0,0,1-.41,1.26,4,4,0,0,1-.89,1.06,3,3,0,0,1,.65-.25,2.3,2.3,0,0,1,.58-.07,2.77,2.77,0,0,1,1.74.56A2,2,0,0,1,26.37,11.32Zm0,35.4a2,2,0,0,1-.72,1.67,2.67,2.67,0,0,1-1.74.58,2.84,2.84,0,0,1-.58,0,2.43,2.43,0,0,1-.65-.23,4,4,0,0,1,.89,1A2.37,2.37,0,0,1,24,51a2.2,2.2,0,0,1-2.15,2.18,2.18,2.18,0,0,1-1.58-.64A2,2,0,0,1,19.58,51,2.37,2.37,0,0,1,20,49.73a3.86,3.86,0,0,1,.89-1,3,3,0,0,1-1.23.28,2.74,2.74,0,0,1-1.72-.54,2,2,0,0,1-.7-1.71,2.15,2.15,0,0,1,.58-1.49,1.87,1.87,0,0,1,1.49-.65,2.05,2.05,0,0,1,1.48.53,3.3,3.3,0,0,1,.84,1.33c0-.21,0-.46,0-.74a7.93,7.93,0,0,0-.07-.84,4.31,4.31,0,0,0-.17-.81,3,3,0,0,0-.34-.7h1.52a1.79,1.79,0,0,0-.32.68,7.6,7.6,0,0,0-.16.83c0,.28-.06.56-.07.84s0,.53,0,.74a3.39,3.39,0,0,1,.83-1.33,2,2,0,0,1,1.46-.53,1.94,1.94,0,0,1,1.51.65A2.13,2.13,0,0,1,26.37,46.72Zm15.4-1.79a1.05,1.05,0,0,1-.37.88,1.5,1.5,0,0,1-.94.28,1.6,1.6,0,0,1-.63-.14,1.43,1.43,0,0,1,.63,1.23,1.15,1.15,0,0,1-.33.83,1.13,1.13,0,0,1-.83.33,1.06,1.06,0,0,1-.8-.33,1.18,1.18,0,0,1-.32-.83A1.43,1.43,0,0,1,38.81,46a1.6,1.6,0,0,1-.63.14,1.45,1.45,0,0,1-.93-.28,1,1,0,0,1-.37-.88,1.07,1.07,0,0,1,.33-.81A1.18,1.18,0,0,1,38,43.8a1,1,0,0,1,.75.29,2,2,0,0,1,.44.7c0-.26,0-.55,0-.86a1.57,1.57,0,0,0-.25-.79h.74a1.79,1.79,0,0,0-.24.77,5.85,5.85,0,0,0-.07.88,1.92,1.92,0,0,1,.45-.7,1.06,1.06,0,0,1,.78-.29,1.16,1.16,0,0,1,.82.32A1.08,1.08,0,0,1,41.77,44.93Zm-.57,8.3A1.56,1.56,0,0,1,39.45,55a1.84,1.84,0,0,1-1.31-.46,1.65,1.65,0,0,1-.49-1.26,1.7,1.7,0,0,1,.58-1.39c.39-.32.79-.63,1.22-.93l.35-.23a3.49,3.49,0,0,0,.31-.27H37.72v-.7H41.2v.07a3,3,0,0,1-.08.65,1.49,1.49,0,0,1-.37.62,1.8,1.8,0,0,1-.57.47,7.15,7.15,0,0,0-.68.44,3.06,3.06,0,0,0-.58.55,1.17,1.17,0,0,0-.25.79,1.11,1.11,0,0,0,.21.67.81.81,0,0,0,.67.28.59.59,0,0,0,.63-.39,2.13,2.13,0,0,0,.14-.77Z" style="fill: #231f20"/>
    </g>
  </g>
</svg>
