<svg xmlns="http://www.w3.org/2000/svg" viewBox="0 0 43.49 57.97">
  <g id="Layer_2" data-name="Layer 2">
    <g id="Layer_1-2" data-name="Layer 1">
      <path d="M43.49,56.32A1.62,1.62,0,0,1,41.84,58H1.58a1.43,1.43,0,0,1-1.14-.51A1.72,1.72,0,0,1,0,56.32V1.58A1.54,1.54,0,0,1,.44.44,1.54,1.54,0,0,1,1.58,0H41.84A1.71,1.71,0,0,1,43,.44a1.47,1.47,0,0,1,.49,1.14Zm-1-54.74a.52.52,0,0,0-.16-.38A.58.58,0,0,0,41.84,1H1.58A.5.5,0,0,0,1,1.58V56.32a.58.58,0,0,0,.18.47.52.52,0,0,0,.38.16H41.84a.56.56,0,0,0,.63-.63ZM6.93,12.9,4.68,15.79,2.46,12.9,4.68,10ZM6.4,6.36a1.81,1.81,0,0,1-.53,1.36,1.94,1.94,0,0,1-1.41.51A1.47,1.47,0,0,1,2.81,6.71l.95-.07a1,1,0,0,0,.16.58.58.58,0,0,0,.54.27.79.79,0,0,0,.76-.35,1.61,1.61,0,0,0,.19-.78,1.82,1.82,0,0,0-.17-.77.64.64,0,0,0-.63-.39.65.65,0,0,0-.6.27,1.67,1.67,0,0,0-.25.65H3V3H6v.74H3.83V4.85a1,1,0,0,1,.85-.39A1.57,1.57,0,0,1,5.94,5,2,2,0,0,1,6.4,6.36ZM16.91,10l-3.8,4.89L9.28,10l3.83-4.89Zm0,38.14L13.11,53,9.28,48.09l3.83-4.88Zm8.72-19L21.76,34l-3.83-4.89,3.83-4.92ZM34.28,10l-3.83,4.89L26.65,10l3.8-4.89Zm0,38.14L30.45,53l-3.8-4.93,3.8-4.88Zm6.85-3L38.88,48l-2.21-2.88,2.21-2.85Zm-1.3,6.29a1.12,1.12,0,0,0-.17-.61.64.64,0,0,0-.57-.27.74.74,0,0,0-.72.36,1.6,1.6,0,0,0-.19.8,1.85,1.85,0,0,0,.18.78.59.59,0,0,0,.59.39.7.7,0,0,0,.64-.29,1.85,1.85,0,0,0,.24-.66h.78v3.16h-3v-.7h2.18V53.23a1.21,1.21,0,0,1-.88.35,1.57,1.57,0,0,1-1.26-.53,2,2,0,0,1-.46-1.34,1.8,1.8,0,0,1,.53-1.37,2,2,0,0,1,1.4-.49,1.47,1.47,0,0,1,1.66,1.51Z" style="fill: #ef4444"/>
    </g>
  </g>
</svg>
