<svg xmlns="http://www.w3.org/2000/svg" viewBox="0 0 43.49 57.97">
  <g id="Layer_2" data-name="Layer 2">
    <g id="Layer_1-2" data-name="Layer 1">
      <path d="M43.49,56.32A1.62,1.62,0,0,1,41.84,58H1.58a1.43,1.43,0,0,1-1.14-.51A1.72,1.72,0,0,1,0,56.32V1.58A1.54,1.54,0,0,1,.44.44,1.54,1.54,0,0,1,1.58,0H41.84A1.71,1.71,0,0,1,43,.44a1.47,1.47,0,0,1,.49,1.14Zm-1-54.74a.52.52,0,0,0-.16-.38A.58.58,0,0,0,41.84,1H1.58A.5.5,0,0,0,1,1.58V56.32a.58.58,0,0,0,.18.47.52.52,0,0,0,.38.16H41.84a.56.56,0,0,0,.63-.63ZM6.33,6.93H5.55v1.3H4.68V6.93H2.39V6.36L4.75,3h.8V6.19h.78Zm.6,6L4.68,15.79,2.46,12.9,4.68,10ZM4.68,6.19V4.46L3.38,6.19ZM16.91,10l-3.8,4.89L9.28,10l3.83-4.89Zm0,38.14L13.11,53,9.28,48.09l3.83-4.88ZM34.28,10l-3.83,4.89L26.65,10l3.8-4.89Zm0,38.14L30.45,53l-3.8-4.93,3.8-4.88Zm6.85-3L38.88,48l-2.21-2.88,2.21-2.85Zm.07,6.57-2.39,3.38H38V51.86h-.81v-.74H38V49.85h.84v1.27H41.2Zm-1,.15h-1.3v1.72Z" style="fill: #231f20"/>
    </g>
  </g>
</svg>
