<svg xmlns="http://www.w3.org/2000/svg" viewBox="0 0 43.49 57.97">
  <g id="Layer_2" data-name="Layer 2">
    <g id="Layer_1-2" data-name="Layer 1">
      <path d="M43.49,56.32A1.62,1.62,0,0,1,41.84,58H1.58a1.43,1.43,0,0,1-1.14-.51A1.72,1.72,0,0,1,0,56.32V1.58A1.54,1.54,0,0,1,.44.44,1.54,1.54,0,0,1,1.58,0H41.84A1.71,1.71,0,0,1,43,.44a1.47,1.47,0,0,1,.49,1.14Zm-1-54.74a.52.52,0,0,0-.16-.38A.58.58,0,0,0,41.84,1H1.58A.5.5,0,0,0,1,1.58V56.32a.58.58,0,0,0,.18.47.52.52,0,0,0,.38.16H41.84a.56.56,0,0,0,.63-.63ZM7.28,8.3l-.57.56L6.05,8.3a2.71,2.71,0,0,1-1.37.35,2.36,2.36,0,0,1-1.87-.77,3.15,3.15,0,0,1-.63-2,3.17,3.17,0,0,1,.63-2A2.35,2.35,0,0,1,4.68,3a2.44,2.44,0,0,1,1.89.81,2.84,2.84,0,0,1,.64,1.94,4.26,4.26,0,0,1-.13,1.14,1.63,1.63,0,0,1-.44.79Zm-.35,4.6L4.68,15.79,2.46,12.9,4.68,10ZM6.12,5.84C6.12,4.59,5.64,4,4.68,4s-1.45.62-1.45,1.87S3.71,7.7,4.68,7.7a1.2,1.2,0,0,0,.59-.14l-.52-.49.59-.57.5.5A2.4,2.4,0,0,0,6.12,5.84ZM35.3,49.78H8.3V8.3h27Zm-.95-1V9.21H9.21V48.83Zm-16.49-6-3.8,4.88-3.83-4.88L14.06,38Zm6.33-22.19a5,5,0,0,1-.41,2.18,5.5,5.5,0,0,1-1.21,1.79,5.8,5.8,0,0,1-1.79,1.22,5.51,5.51,0,0,1-2.18.44,6.13,6.13,0,0,1-1.34-.16,3.86,3.86,0,0,1-1.19-.51,3.59,3.59,0,0,1,.08.53,2.2,2.2,0,0,0,.09.42l.11.42c.07.21,0,.32-.21.32h-4q-.21,0-.21-.18l-.14-.67-.21-1.61a8.51,8.51,0,0,1,3.45-8.51,2.4,2.4,0,0,1,.47-.37l.55-.34.14-.07a.21.21,0,0,0,.14-.07,5.19,5.19,0,0,1,2.25-.45,5.49,5.49,0,0,1,3.95,1.65,5.63,5.63,0,0,1,1.2,1.79A5.51,5.51,0,0,1,24.19,20.67Zm-8-4.53a9.1,9.1,0,0,0-2.52,2.14,7.19,7.19,0,0,0-1.26,2.5,9.36,9.36,0,0,0-.32,2.83,25.38,25.38,0,0,0,.34,3.18h3.34c0-.19-.1-.41-.16-.67s-.14-.54-.23-.84a2.46,2.46,0,0,1-.07-.57,3.71,3.71,0,0,0-.07-.59c-.12-.78-.22-1.47-.3-2.08a8.24,8.24,0,0,1,.32-3.65A13.68,13.68,0,0,1,16.21,16.14ZM14.62,31.46v1.38a.85.85,0,0,1,1.17,0,1,1,0,0,1,.21.61.75.75,0,0,1-.21.55.67.67,0,0,1-.46.21l.23.12a1.06,1.06,0,0,1,.23.16.86.86,0,0,1,0,1.16,1,1,0,0,1-.62.21.77.77,0,0,1-.55-.21.61.61,0,0,1-.21-.42l-.12.21a.73.73,0,0,1-.16.21A.82.82,0,0,1,13,34.49a1,1,0,0,1,.21-.16l.21-.12A.61.61,0,0,1,13,34a.75.75,0,0,1-.21-.55,1,1,0,0,1,.21-.61.75.75,0,0,1,.55-.22,1,1,0,0,1,.61.22V31.46h-1.3c-.19,0-.28-.08-.28-.24s.09-.25.28-.25h.49a1.19,1.19,0,0,1-.42-1,1.39,1.39,0,0,1,.42-1,1.8,1.8,0,0,1,1.09-.49,1.32,1.32,0,0,1,1,.46A1.5,1.5,0,0,1,15.86,30a1.16,1.16,0,0,1-.46,1h.53c.18,0,.28.08.28.25s-.1.24-.28.24Zm-.87,2.18q.24-.14,0-.45c-.12-.17-.26-.17-.43,0s-.16.36,0,.45S13.63,33.83,13.75,33.64Zm0,1.66q.24-.25,0-.42c-.12-.22-.26-.22-.43,0s-.16.25,0,.42S13.63,35.48,13.75,35.3ZM15.33,30a1,1,0,0,0-.27-.68.82.82,0,0,0-.65-.3,1.37,1.37,0,0,0-.73.33.87.87,0,0,0-.29.65.92.92,0,0,0,.29.67,1,1,0,0,0,.73.28.83.83,0,0,0,.65-.28A.94.94,0,0,0,15.33,30Zm7.06-15.18a.21.21,0,0,1-.12.22A.23.23,0,0,1,22,15a5.77,5.77,0,0,0-1.67-.83,6.7,6.7,0,0,0-1.84-.23,5.71,5.71,0,0,0-2,.27,5.87,5.87,0,0,0-1.13.51,5.24,5.24,0,0,1-.58.31c-.12.05-.22,0-.3-.28a7.64,7.64,0,0,1-.24-1.3c-.09-.63-.23-1.56-.44-2.78-.05-.14,0-.23.07-.26a.33.33,0,0,1,.31,0l1.66,1.16c.37-.42.63-.73.79-.93s.29-.3.42-.3.29.11.47.32.5.51.92.91c.42-.4.72-.7.91-.91s.35-.32.48-.32.27.1.42.3.4.51.75.93l1.66-1.16q.55-.24.45.21ZM14.62,34.49a.53.53,0,0,0,0-.49.6.6,0,0,0-.49,0,.48.48,0,0,0,0,.49A.48.48,0,0,0,14.62,34.49Zm7.92-23.24c-.45.3-.77.54-1,.7a.84.84,0,0,1-.48.25c-.11,0-.25-.09-.4-.28s-.4-.48-.76-.88c-.42.37-.72.66-.91.84a.77.77,0,0,1-.48.28.77.77,0,0,1-.47-.28c-.19-.18-.49-.47-.91-.84-.36.4-.6.69-.74.88a.56.56,0,0,1-.41.28A.91.91,0,0,1,15.5,12c-.21-.16-.55-.4-1-.7l.57,3.09a5.65,5.65,0,0,1,1.67-.75,7.53,7.53,0,0,1,1.81-.2,7.67,7.67,0,0,1,1.84.2,4.91,4.91,0,0,1,1.6.75ZM15.4,33.64q.31-.14,0-.45t-.42,0q-.25.31,0,.45T15.4,33.64Zm0,1.66q.31-.25,0-.42-.26-.33-.42,0-.25.16,0,.42T15.4,35.3Zm8.3-14.63a4.91,4.91,0,0,0-.41-2A5.09,5.09,0,0,0,20.58,16a4.91,4.91,0,0,0-2-.41,5.8,5.8,0,0,0-.88.06,4,4,0,0,0-.88.23,1.64,1.64,0,0,0-.21.49,3.42,3.42,0,0,1-.28.67,12.18,12.18,0,0,0-.76,2.07,7.51,7.51,0,0,0-.23,1.79,13,13,0,0,0,.14,1.83c.1.63.21,1.35.36,2.15l.07.14a4.75,4.75,0,0,0,2.67.8,4.9,4.9,0,0,0,2-.4,5.17,5.17,0,0,0,1.64-1.11,5.24,5.24,0,0,0,1.11-1.63A4.58,4.58,0,0,0,23.7,20.67ZM19.37,33.43c.19,0,.28.09.28.25s-.09.22-.28.18a5.32,5.32,0,0,1-2-.39,5.22,5.22,0,0,1-1.69-1.06c-.16-.14-.18-.27-.07-.4A.23.23,0,0,1,16,32,5.23,5.23,0,0,0,19.37,33.43ZM18.6,18.6a2.74,2.74,0,0,1-.42.77,1,1,0,0,1-.81.35.93.93,0,0,1-.78-.35,3.11,3.11,0,0,1-.45-.77,1.4,1.4,0,0,0,.37.07h.33a2.09,2.09,0,0,1,.56-.11,1.78,1.78,0,0,1,.53.11h.33A1.09,1.09,0,0,0,18.6,18.6Zm1.86,4.08c0,.16-.16.3-.47.42a2.53,2.53,0,0,1-.69.17.91.91,0,0,1-.26-.05c-.13,0-.25-.08-.37-.12a1.07,1.07,0,0,1-.32-.2.33.33,0,0,1-.14-.22c0-.19.11-.29.32-.29s.17.07.3.2a.63.63,0,0,0,.47.19.84.84,0,0,0,.55-.19.68.68,0,0,1,.33-.2C20.37,22.39,20.46,22.49,20.46,22.68Zm-1.72-1.41c-.19,0-.28-.08-.28-.23s.09-.25.28-.3h.49L19,19.16c-.05-.19,0-.29.18-.32s.24,0,.24.18.1.56.16.83.11.51.14.72a1.52,1.52,0,0,1,0,.51.23.23,0,0,1-.25.19ZM32,33.19A10.42,10.42,0,0,1,31.43,38a8.39,8.39,0,0,1-2.92,3.68,3.44,3.44,0,0,1-.46.38c-.16.12-.34.24-.52.35l-.18.07a.23.23,0,0,0-.14.07A5.58,5.58,0,0,1,25,43a5.49,5.49,0,0,1-4-1.66,6,6,0,0,1-1.21-1.79,5.2,5.2,0,0,1-.46-2.18,5,5,0,0,1,.41-2.18A5.31,5.31,0,0,1,21,33.42a5.72,5.72,0,0,1,4-1.64,5.44,5.44,0,0,1,1.3.16,4.68,4.68,0,0,1,1.23.47c-.05-.18-.08-.36-.11-.52a2.1,2.1,0,0,0-.1-.43L27.21,31c-.07-.23,0-.35.21-.35h4c.15,0,.22.07.22.21l.1.67a6,6,0,0,1,.12.72C31.87,32.56,31.91,32.86,32,33.19ZM22.11,18.6a2.06,2.06,0,0,1-.38.77,1,1,0,0,1-.85.35.91.91,0,0,1-.77-.35,3.14,3.14,0,0,1-.46-.77,1.46,1.46,0,0,0,.39.07h.35a1.78,1.78,0,0,1,.53-.11,1.85,1.85,0,0,1,.53.11h.33A1,1,0,0,0,22.11,18.6Zm5.56,14.45A4.89,4.89,0,0,0,25,32.27a5.13,5.13,0,0,0-2,.41,5.06,5.06,0,0,0-1.64,1.09,5.2,5.2,0,0,0-1.09,1.61,4.64,4.64,0,0,0-.37,2,5,5,0,0,0,.41,2A5.36,5.36,0,0,0,21.36,41,4.93,4.93,0,0,0,23,42.1a5.07,5.07,0,0,0,2,.4,4.47,4.47,0,0,0,.86-.07,6.11,6.11,0,0,0,.86-.24,1.72,1.72,0,0,0,.21-.48,4.1,4.1,0,0,1,.28-.65A10.31,10.31,0,0,0,28,39a10.85,10.85,0,0,0,.25-1.83,10.62,10.62,0,0,0-.11-1.85c-.09-.63-.21-1.35-.35-2.14Zm2,14.34c0,.14,0,.23-.05.26a.32.32,0,0,1-.3,0l-1.65-1.16q-.57.63-.81.93c-.16.2-.31.3-.44.28a.79.79,0,0,1-.46-.31c-.17-.2-.47-.5-.89-.9a12.92,12.92,0,0,0-.92.92.74.74,0,0,1-.49.31.61.61,0,0,1-.44-.3c-.15-.2-.4-.51-.76-.93L20.81,47.6a.42.42,0,0,1-.35,0c-.09,0-.12-.12-.07-.26l.77-4.11a.22.22,0,0,1,.13-.23.27.27,0,0,1,.26,0,5.94,5.94,0,0,0,1.64.84,6.44,6.44,0,0,0,1.88.25A5.57,5.57,0,0,0,27,43.89a5.87,5.87,0,0,0,1.13-.51l.58-.33c.11-.06.21,0,.28.26a10.85,10.85,0,0,1,.24,1.3C29.31,45.25,29.46,46.17,29.67,47.39ZM28.51,43.7a5.72,5.72,0,0,1-1.65.76,7.93,7.93,0,0,1-1.79.19,8.35,8.35,0,0,1-1.87-.19,5.06,5.06,0,0,1-1.58-.76L21,46.83c.45-.31.77-.54,1-.71a.89.89,0,0,1,.47-.24c.12,0,.26.09.41.28s.4.48.75.88c.43-.38.73-.66.92-.84a.78.78,0,0,1,.49-.29.76.76,0,0,1,.49.29l.92.84c.35-.4.6-.69.74-.88s.27-.28.4-.28a1,1,0,0,1,.51.24c.21.17.55.4,1,.71Zm-4.6-4.22a1.13,1.13,0,0,0-.37-.07H23.2a2.09,2.09,0,0,1-.56.11,1.78,1.78,0,0,1-.53-.11h-.33a.78.78,0,0,0-.33.07,2.41,2.41,0,0,1,.42-.81,1,1,0,0,1,.81-.35,1,1,0,0,1,.77.35A3.21,3.21,0,0,1,23.91,39.48Zm1.44-4.11a.25.25,0,0,1-.28.28.62.62,0,0,1-.32-.18.77.77,0,0,0-.49-.17.84.84,0,0,0-.53.17.62.62,0,0,1-.32.18.25.25,0,0,1-.28-.28c0-.14.16-.27.46-.39a2.09,2.09,0,0,1,.67-.18.89.89,0,0,1,.24.06l.37.12a1.56,1.56,0,0,1,.34.18A.29.29,0,0,1,25.35,35.37Zm-1,1.93.24,1.58c.05.19,0,.3-.19.34s-.26,0-.26-.2-.1-.52-.16-.79a5.66,5.66,0,0,1-.12-.74,1.61,1.61,0,0,1,0-.54q0-.21.21-.21h.81c.18,0,.28.08.28.24s-.1.25-.28.25Zm3.55-11.67c.14.16.16.31.05.44a.2.2,0,0,1-.33,0,4.75,4.75,0,0,0-1.6-1,6.2,6.2,0,0,0-1.81-.43c-.19,0-.28-.11-.28-.26s.09-.22.28-.19a5.22,5.22,0,0,1,2,.4A5.79,5.79,0,0,1,27.88,25.63Zm-.46,13.85a1.09,1.09,0,0,0-.37-.07h-.33a1.78,1.78,0,0,1-.53.11,2.09,2.09,0,0,1-.56-.11h-.32a.76.76,0,0,0-.31.07,2.16,2.16,0,0,1,.38-.81,1,1,0,0,1,.85-.35.89.89,0,0,1,.75.35A3.5,3.5,0,0,1,27.42,39.48Zm5.91-24.29-3.8,4.92L25.7,15.19l3.83-4.89ZM27.81,31.25l.35,1.52a2.47,2.47,0,0,1,.07.58,2.6,2.6,0,0,0,.07.58q.18,1.16.3,2.07a9.17,9.17,0,0,1,.07,1.81,8,8,0,0,1-.35,1.86,13.18,13.18,0,0,1-1,2.24,8.87,8.87,0,0,0,2.52-2.11,7.46,7.46,0,0,0,1.26-2.5,9.45,9.45,0,0,0,.32-2.85,25.49,25.49,0,0,0-.34-3.2Zm2.42-4.18a1.19,1.19,0,0,1,.46,1,1.43,1.43,0,0,1-1.44,1.44,1.2,1.2,0,0,1-1.09-.39,1.49,1.49,0,0,1-.42-1.05,1.33,1.33,0,0,1,.42-1h-.49c-.19,0-.28-.08-.28-.23s.09-.24.28-.26l1.26-.07v-1.3a.8.8,0,0,1-1.12,0,.84.84,0,0,1,0-1.16.61.61,0,0,1,.42-.21L28,23.7a1.29,1.29,0,0,1-.17-.15A.73.73,0,0,1,27.6,23a1,1,0,0,1,.21-.62.8.8,0,0,1,1.12,0,1.09,1.09,0,0,1,.32.46.67.67,0,0,1,.21-.46.74.74,0,0,1,.55-.21,1,1,0,0,1,.61.21,1,1,0,0,1,.21.62.73.73,0,0,1-.21.54.82.82,0,0,1-.46.22l.22.12a1.24,1.24,0,0,1,.24.16.84.84,0,0,1,0,1.16.86.86,0,0,1-1.16,0v1.3l1.3.07c.19,0,.28.11.28.26s-.09.23-.28.23Zm-1.65-2.21c.17-.17.17-.31,0-.43s-.26-.16-.42,0-.19.26,0,.43S28.46,25,28.58,24.86Zm0-1.66q.26-.14,0-.42t-.42,0q-.24.25,0,.42T28.58,23.2Zm1.58,4.89a1,1,0,0,0-.26-.7.82.82,0,0,0-.65-.32,1,1,0,0,0-.74.32,1,1,0,0,0,0,1.4.77.77,0,0,0,.74.25.85.85,0,0,0,.65-.28A.93.93,0,0,0,30.16,28.09Zm-.7-4a.62.62,0,0,0,0-.5.69.69,0,0,0-.53,0,.5.5,0,0,0,0,.5A.69.69,0,0,0,29.46,24.05Zm.77.81c.17-.17.17-.31,0-.43s-.32-.16-.42,0-.19.26,0,.43S30.07,25,30.23,24.86Zm0-1.66q.25-.14,0-.42t-.42,0q-.24.25,0,.42T30.23,23.2Zm11.18,29a2.72,2.72,0,0,1-.66,2,2.24,2.24,0,0,1-1.87.81A2.21,2.21,0,0,1,37,54.21a2.82,2.82,0,0,1-.67-1.93,2.67,2.67,0,0,1,.6-1.94l-.67-.56.6-.6.63.6a2.83,2.83,0,0,1,1.37-.39,2.24,2.24,0,0,1,1.87.81A2.77,2.77,0,0,1,41.41,52.21Zm-.28-7.07L38.88,48l-2.21-2.88,2.21-2.85Zm-.81,7.07c0-1.25-.48-1.87-1.44-1.87a1.13,1.13,0,0,0-.56.14l.49.5-.56.59-.53-.52a2.64,2.64,0,0,0-.28,1.16q0,1.86,1.44,1.86T40.32,52.21Z" style="fill: #231f20"/>
    </g>
  </g>
</svg>
