<svg xmlns="http://www.w3.org/2000/svg" viewBox="0 0 43.49 57.97">
  <g id="Layer_2" data-name="Layer 2">
    <g id="Layer_1-2" data-name="Layer 1">
      <path d="M43.49,56.32A1.62,1.62,0,0,1,41.84,58H1.58a1.43,1.43,0,0,1-1.14-.51A1.72,1.72,0,0,1,0,56.32V1.58A1.54,1.54,0,0,1,.44.44,1.54,1.54,0,0,1,1.58,0H41.84A1.71,1.71,0,0,1,43,.44a1.47,1.47,0,0,1,.49,1.14Zm-1-54.74a.52.52,0,0,0-.16-.38A.58.58,0,0,0,41.84,1H1.58A.5.5,0,0,0,1,1.58V56.32a.58.58,0,0,0,.18.47.52.52,0,0,0,.38.16H41.84a.56.56,0,0,0,.63-.63ZM6.93,12.9,4.68,15.79,2.46,12.9,4.68,10Zm-.46-7a5.39,5.39,0,0,1-.09,1,2.3,2.3,0,0,1-.32.84,1.78,1.78,0,0,1-.59.6,1.78,1.78,0,0,1-.93.23,1.61,1.61,0,0,1-1.06-.34,1.53,1.53,0,0,1-.53-1l.88-.14a3.32,3.32,0,0,0,.23.58.51.51,0,0,0,.48.3.74.74,0,0,0,.77-.51,4.81,4.81,0,0,0,.24-.94,1.58,1.58,0,0,1-1,.36,1.63,1.63,0,0,1-1.2-.46,1.64,1.64,0,0,1-.46-1.2,2,2,0,0,1,.48-1.37,1.63,1.63,0,0,1,1.32-.56,1.51,1.51,0,0,1,.91.25,1.58,1.58,0,0,1,.54.61A2.76,2.76,0,0,1,6.4,5,6,6,0,0,1,6.47,5.91Zm-1-.78a1.67,1.67,0,0,0-.19-.81A.72.72,0,0,0,4.61,4a.6.6,0,0,0-.6.39,1.84,1.84,0,0,0-.18.77A1.31,1.31,0,0,0,4,5.82a.62.62,0,0,0,.6.3.75.75,0,0,0,.66-.3A1.17,1.17,0,0,0,5.48,5.13ZM16.91,10l-3.8,4.89L9.28,10l3.83-4.89Zm0,12.73-3.8,4.92L9.28,22.68l3.83-4.89Zm0,12.62-3.8,4.88L9.28,35.3l3.83-4.89Zm0,12.72L13.11,53,9.28,48l3.83-4.88ZM25.56,29l-3.8,4.89L17.93,29l3.83-4.92Zm8.72-19-3.83,4.89L26.65,10l3.8-4.89Zm0,12.73L30.45,27.6l-3.8-4.92,3.8-4.89Zm0,12.62-3.83,4.88-3.8-4.88,3.8-4.89Zm0,12.72L30.45,53,26.65,48l3.8-4.88Zm6.85-2.88L38.88,48l-2.21-2.88,2.21-2.85Zm-.45,7.74a2.16,2.16,0,0,1-.46,1.37,1.64,1.64,0,0,1-1.34.56,1.51,1.51,0,0,1-.91-.25,1.6,1.6,0,0,1-.55-.63,3,3,0,0,1-.26-.86,6,6,0,0,1-.07-.93,5.5,5.5,0,0,1,.09-1,2.56,2.56,0,0,1,.31-.84,2,2,0,0,1,.6-.6,1.78,1.78,0,0,1,.93-.23,1.46,1.46,0,0,1,1.59,1.38l-.85.14a2.31,2.31,0,0,0-.24-.57.58.58,0,0,0-.5-.28.7.7,0,0,0-.75.49,6.22,6.22,0,0,0-.23,1,1.51,1.51,0,0,1,1-.38,1.64,1.64,0,0,1,1.22.45A1.74,1.74,0,0,1,40.68,52.88Zm-.92.07a1.52,1.52,0,0,0-.17-.71.67.67,0,0,0-.64-.31.7.7,0,0,0-.63.31,1.26,1.26,0,0,0-.21.71,1.68,1.68,0,0,0,.18.77.66.66,0,0,0,.66.35.64.64,0,0,0,.64-.37A1.82,1.82,0,0,0,39.76,53Z" style="fill: #231f20"/>
    </g>
  </g>
</svg>
