<svg xmlns="http://www.w3.org/2000/svg" viewBox="0 0 43.49 57.97">
  <g id="Layer_2" data-name="Layer 2">
    <g id="Layer_1-2" data-name="Layer 1">
      <path d="M43.49,56.32A1.62,1.62,0,0,1,41.84,58H1.58a1.43,1.43,0,0,1-1.14-.51A1.72,1.72,0,0,1,0,56.32V1.58A1.54,1.54,0,0,1,.44.44,1.54,1.54,0,0,1,1.58,0H41.84A1.71,1.71,0,0,1,43,.44a1.47,1.47,0,0,1,.49,1.14Zm-1-54.74a.52.52,0,0,0-.16-.38A.58.58,0,0,0,41.84,1H1.58A.5.5,0,0,0,1,1.58V56.32a.58.58,0,0,0,.18.47.52.52,0,0,0,.38.16H41.84a.56.56,0,0,0,.63-.63ZM3.62,8.16h-1V4.32H1.86V3.76A1,1,0,0,0,3,3h.67ZM6.93,12.9,4.68,15.79,2.46,12.9,4.68,10Zm.42-7.35a7.15,7.15,0,0,1-.06.9,2.55,2.55,0,0,1-.24.88A1.71,1.71,0,0,1,6.52,8a1.5,1.5,0,0,1-.9.25A1.46,1.46,0,0,1,4.76,8a1.58,1.58,0,0,1-.51-.65A3.07,3.07,0,0,1,4,6.45,7.15,7.15,0,0,1,4,5.55,7.5,7.5,0,0,1,4,4.62a2.94,2.94,0,0,1,.22-.86,1.58,1.58,0,0,1,.51-.63,1.46,1.46,0,0,1,.86-.25,1.5,1.5,0,0,1,.88.25A1.47,1.47,0,0,1,7,3.78a3.46,3.46,0,0,1,.25.88A7.08,7.08,0,0,1,7.35,5.55Zm-.95,0c0-.14,0-.32,0-.54a3.85,3.85,0,0,0-.09-.67,1.35,1.35,0,0,0-.23-.56.5.5,0,0,0-.44-.23.49.49,0,0,0-.45.23A1.49,1.49,0,0,0,5,4.34,3.05,3.05,0,0,0,4.89,5v1A3,3,0,0,0,5,6.73a1.59,1.59,0,0,0,.21.58.47.47,0,0,0,.45.25.52.52,0,0,0,.48-.25,1.6,1.6,0,0,0,.23-.58,3,3,0,0,0,.07-.67ZM16.91,10l-3.8,4.89L9.28,10l3.83-4.89Zm0,12.73-3.8,4.92L9.28,22.68l3.83-4.89Zm0,12.62-3.8,4.88L9.28,35.3l3.83-4.89Zm0,12.72L13.11,53,9.28,48l3.83-4.88Zm8.65-31.74-3.8,4.88-3.83-4.88,3.83-4.89Zm.07,25.42-3.8,4.88L18,41.7l3.83-4.89ZM34.28,10l-3.83,4.89L26.65,10l3.8-4.89Zm0,12.73L30.45,27.6l-3.8-4.92,3.8-4.89Zm0,12.62-3.83,4.88-3.8-4.88,3.8-4.89Zm0,12.72L30.45,53,26.65,48l3.8-4.88Zm5.34,4.47c0,.3,0,.61,0,.93a2.61,2.61,0,0,1-.25.86,1.63,1.63,0,0,1-.53.63,1.35,1.35,0,0,1-.86.25,1.37,1.37,0,0,1-.86-.25,1.71,1.71,0,0,1-.53-.65,3.47,3.47,0,0,1-.26-.88,5.6,5.6,0,0,1-.07-.89c0-.28,0-.58,0-.88a2.76,2.76,0,0,1,.25-.86A1.62,1.62,0,0,1,37,50.1a1.42,1.42,0,0,1,.89-.25,1.35,1.35,0,0,1,.86.25,1.62,1.62,0,0,1,.53.65,2.76,2.76,0,0,1,.25.86C39.6,51.91,39.62,52.21,39.62,52.49Zm1.51-7.35L38.88,48l-2.21-2.88,2.21-2.85Zm-2.46,7.35V52a3.05,3.05,0,0,0-.07-.67,2.19,2.19,0,0,0-.21-.58.5.5,0,0,0-.46-.25.53.53,0,0,0-.47.25,1.68,1.68,0,0,0-.23.58,3.05,3.05,0,0,0-.07.67v.51c0,.14,0,.33,0,.56a4,4,0,0,0,.09.69,1.49,1.49,0,0,0,.22.56.53.53,0,0,0,.44.23.5.5,0,0,0,.46-.23,1.93,1.93,0,0,0,.21-.56,3.17,3.17,0,0,0,.07-.69Zm3,1.83c-.64,0-1,.25-1.09.77H40V49.92h.92v3.8h.81Z" style="fill: #231f20"/>
    </g>
  </g>
</svg>
