<svg xmlns="http://www.w3.org/2000/svg" viewBox="0 0 43.49 57.97">
  <g id="Layer_2" data-name="Layer 2">
    <g id="Layer_1-2" data-name="Layer 1">
      <path d="M43.49,56.32A1.62,1.62,0,0,1,41.84,58H1.58a1.43,1.43,0,0,1-1.14-.51A1.72,1.72,0,0,1,0,56.32V1.58A1.54,1.54,0,0,1,.44.44,1.54,1.54,0,0,1,1.58,0H41.84A1.71,1.71,0,0,1,43,.44a1.47,1.47,0,0,1,.49,1.14Zm-1-54.74a.52.52,0,0,0-.16-.38A.58.58,0,0,0,41.84,1H1.58A.5.5,0,0,0,1,1.58V56.32a.58.58,0,0,0,.18.47.52.52,0,0,0,.38.16H41.84a.56.56,0,0,0,.63-.63Zm-35.33,7H5.7L4,6.29l-.49.57V8.58H2.46V3.34H3.55V5.48l2-2.14H7L4.82,5.48ZM6.93,12.9,4.68,15.79,2.46,12.9,4.68,10ZM35.3,49.78H8.3V8.3h27Zm-.95-1V9.21H9.21V48.83ZM14.41,38a3.2,3.2,0,0,1-.56,1.9,1.72,1.72,0,0,1-1.47.81c-.1,0-.15-.1-.15-.29V38.32l-.21.35v.6l-.7,1.41-.74-1.41V31.46H9.81c-.19,0-.28-.08-.28-.24s.09-.25.28-.25h.49a1.19,1.19,0,0,1-.42-1,1.63,1.63,0,0,1,.1-.59.91.91,0,0,1,.39-.46l-.07-2.18a.24.24,0,0,1,.28-.28H12c.14,0,.21.09.21.28l.07,2.18A1.22,1.22,0,0,1,12.83,30a1.13,1.13,0,0,1-.53,1h.6c.14,0,.21.08.21.25s-.07.24-.21.24H12v5.63l.21.42V35.44q0-.21.15-.21a1.7,1.7,0,0,1,1.47.82A3.29,3.29,0,0,1,14.41,38Zm3.24-22.78-3.83,4.92L10,15.19l3.8-4.89ZM12.3,30a.93.93,0,0,0-.29-.68,1,1,0,0,0-.69-.3.89.89,0,0,0-.67.3,1,1,0,0,0-.28.68,1,1,0,0,0,1,.95,1,1,0,0,0,.69-.28A.88.88,0,0,0,12.3,30Zm-.56-3h-1v1.65a1.44,1.44,0,0,1,.53-.14.9.9,0,0,1,.42.14Zm-.21,12.23v-7.7h-.42v7.7l.21.74ZM13.89,38a2.82,2.82,0,0,0-.37-1.48,1.73,1.73,0,0,0-.9-.77v1.79l-.39.46.39.35v1.86a1.68,1.68,0,0,0,.9-.77A2.75,2.75,0,0,0,13.89,38Zm5-13.54c-.61.12-1.16.24-1.65.37a7.38,7.38,0,0,0-1.39.51,10.11,10.11,0,0,0-1.29.76,11.61,11.61,0,0,0-1.3,1.07.22.22,0,0,1-.35,0,.23.23,0,0,1,0-.35,17.61,17.61,0,0,1,1.37-1.11,11.32,11.32,0,0,1,1.36-.81,9,9,0,0,1,1.46-.56,15.7,15.7,0,0,1,1.72-.4c.14-.05.23,0,.28.19S19.07,24.39,18.88,24.43Zm6.47,22.89a.24.24,0,0,1-.16.26c-.11,0-.19,0-.26-.12l-1.16-1.58c-.29.61-.48,1-.6,1.32s-.24.4-.37.38-.29-.17-.48-.49-.48-.77-.87-1.35c-.5.58-.85,1-1.06,1.32s-.39.44-.54.44-.34-.15-.55-.44a15.56,15.56,0,0,0-1.09-1.32l-1.12,1.72q-.29.42-.51-.12c-.16-.37-.37-.85-.65-1.46l-1.16,1.58a.21.21,0,0,1-.27.12.24.24,0,0,1-.16-.26V40.78q0-.28.21-.33a.21.21,0,0,1,.29.16A5.09,5.09,0,0,0,20.32,44a5.13,5.13,0,0,0,4.54-3.34c.07-.15.17-.2.29-.16s.2.14.2.33Zm-1-8.16c0,.07,0,.11-.07.11a5.82,5.82,0,0,1-1.34,2.5,3.2,3.2,0,0,1-2.46,1,5.51,5.51,0,0,1-2.18-.44,5.69,5.69,0,0,1-1.79-1.22,5.5,5.5,0,0,1-1.21-1.79,5.56,5.56,0,0,1,0-4.36,6.07,6.07,0,0,1,1.23-1.79A5.85,5.85,0,0,1,18.32,32a5.38,5.38,0,0,1,2.14-.43h.39a1.14,1.14,0,0,1,.38.07l.39-.92c.05-.14.14-.17.28-.1a.23.23,0,0,1,.14.31l-.35.88a1.14,1.14,0,0,1,.42.21l.28-1.23c.07-.19.19-.26.34-.21s.2.16.16.35l-.28,1.37.52.5V30.83c0-.19.08-.28.25-.28s.24.09.24.28V33.5a5.2,5.2,0,0,1,.66,1.43,8,8,0,0,1,.29,1.6l1.06.14a.41.41,0,0,1,.25.23.22.22,0,0,1,0,.26Zm.53,2.61a5.35,5.35,0,0,1-2.2,2,6.25,6.25,0,0,1-5.63,0,5.27,5.27,0,0,1-2.19-2v4.74l.79-1.11q.26-.36.42-.33c.1,0,.21.18.32.47a13.46,13.46,0,0,0,.54,1.29c.42-.59.71-1,.88-1.32s.32-.43.46-.42.31.17.51.47a15.57,15.57,0,0,0,1,1.34c.52-.59.89-1,1.11-1.34s.4-.46.55-.47.29.13.45.42.45.73.85,1.32c.25-.56.44-1,.56-1.29s.23-.45.35-.47.26.09.42.33.42.62.78,1.11Zm.35-4.61-1-.14c-.07-.05-.13-.21-.18-.49a2.18,2.18,0,0,1,0-.46,1,1,0,0,1-.6-.25,2.77,2.77,0,0,1-.49-.45.38.38,0,0,0-.27-.2h-.37a1.18,1.18,0,0,0-.63.19.64.64,0,0,0-.32.58q0,.21-.24.21c-.17,0-.25-.07-.25-.21a1.12,1.12,0,0,1,.48-1,1.66,1.66,0,0,1,1-.33,1.26,1.26,0,0,1,.67.14,1.3,1.3,0,0,1,.34.32c.08.11.16.22.24.31a.63.63,0,0,0,.41.18c-.05-.21-.1-.42-.16-.63s-.13-.41-.2-.6a.32.32,0,0,1-.26,0,.24.24,0,0,1-.16-.23v-.5a2.39,2.39,0,0,0-.31-.47l-.36-.4-.35,1.44c0,.14-.15.18-.31.14s-.23-.14-.18-.28L22,32.48a.85.85,0,0,0-.49-.21l-.81,1.94c0,.14-.14.18-.3.14s-.19-.17-.12-.35l.7-1.87a.48.48,0,0,0-.24-.07h-.32a4.84,4.84,0,0,0-1.95.41,5.24,5.24,0,0,0-1.63,1.09,5.14,5.14,0,0,0-1.13,1.61,4.92,4.92,0,0,0,0,4,5.47,5.47,0,0,0,1.13,1.63,5.12,5.12,0,0,0,1.63,1.11,4.83,4.83,0,0,0,1.95.4,2.89,2.89,0,0,0,2.16-.86,4.2,4.2,0,0,0,1.15-2.16.26.26,0,0,0,.07-.16V39Zm3.58-16.28a5.32,5.32,0,0,1-.45,2.18,6.22,6.22,0,0,1-1.22,1.8,5.49,5.49,0,0,1-3.92,1.65h-.42a1.54,1.54,0,0,1-.39-.07l-.35.95c0,.14-.15.17-.31.1s-.2-.19-.11-.35L22,26.3a1.14,1.14,0,0,1-.42-.21l-.32,1.23c-.07.18-.18.25-.33.19s-.2-.18-.16-.37L21,25.8l-.49-.52v1.93c0,.19-.08.28-.24.28S20,27.4,20,27.21V24.57a4.51,4.51,0,0,1-.67-1.44,9.16,9.16,0,0,1-.28-1.58L18,21.41a.44.44,0,0,1-.25-.25.25.25,0,0,1,0-.28l1.51-2c0-.05,0-.07.07-.07a5.84,5.84,0,0,1,1.32-2.5,3.23,3.23,0,0,1,2.51-1,5.48,5.48,0,0,1,2.18.44,5.76,5.76,0,0,1,1.78,1.2,5.57,5.57,0,0,1,1.19,1.77A5.34,5.34,0,0,1,28.79,20.88Zm.53-3.58c0,.18-.08.29-.23.31a.24.24,0,0,1-.3-.17,5.25,5.25,0,0,0-2.14-2.64,5.39,5.39,0,0,0-3.31-.67,5.12,5.12,0,0,0-4.53,3.31.27.27,0,0,1-.32.17c-.14,0-.21-.13-.21-.31V10.72a.24.24,0,0,1,.18-.26.22.22,0,0,1,.28.12l1.12,1.58.62-1.3c.13-.28.25-.41.37-.38s.27.19.45.51.49.76.88,1.35c.5-.59.85-1,1.06-1.34s.4-.45.56-.45.35.15.56.45.57.75,1.06,1.34l1.16-1.76c.16-.26.33-.21.49.14l.67,1.44,1.12-1.58q.15-.18.3-.12c.11,0,.16.12.16.26Zm-1,3.58a4.75,4.75,0,0,0-.42-2,5.3,5.3,0,0,0-1.13-1.62,5.24,5.24,0,0,0-1.63-1.09,4.76,4.76,0,0,0-1.92-.4,2.91,2.91,0,0,0-2.18.86,4.53,4.53,0,0,0-1.16,2.16.23.23,0,0,0-.07.14v.14l-1.37,1.79,1,.14s.1.19.14.5l.07.45a1,1,0,0,1,.6.25,3.19,3.19,0,0,1,.49.46.46.46,0,0,0,.27.21,1.9,1.9,0,0,0,.37,0,1.12,1.12,0,0,0,.65-.21.7.7,0,0,0,.29-.6c0-.14.09-.21.25-.21s.25.07.25.21a1.1,1.1,0,0,1-.48,1,1.71,1.71,0,0,1-1,.31,1.17,1.17,0,0,1-.67-.14,1.43,1.43,0,0,1-.34-.3l-.24-.31a.62.62,0,0,0-.41-.2c.05.24.1.46.16.66a4.66,4.66,0,0,0,.23.58.26.26,0,0,1,.26,0,.21.21,0,0,1,.16.23v.52a1.38,1.38,0,0,0,.28.46,4.4,4.4,0,0,1,.35.39l.39-1.44c.05-.14.15-.19.32-.14s.22.14.17.28l-.42,1.58.25.16a.43.43,0,0,0,.24.08l.78-2a.28.28,0,0,1,.35-.14c.14,0,.17.16.1.35L22.61,26a2.2,2.2,0,0,0,.59.07,4.77,4.77,0,0,0,1.92-.41,5.12,5.12,0,0,0,1.63-1.11,5.35,5.35,0,0,0,1.13-1.63A4.77,4.77,0,0,0,28.3,20.88Zm.49-9.35L28,12.64c-.17.24-.31.36-.42.33s-.21-.17-.32-.45-.28-.71-.54-1.27c-.4.59-.68,1-.84,1.3s-.32.41-.46.39-.32-.18-.53-.48-.56-.72-1.05-1.28c-.5.56-.85,1-1.08,1.3s-.41.46-.56.48-.31-.13-.47-.41-.45-.71-.85-1.3c-.26.56-.44,1-.56,1.27S20.09,13,20,13s-.24-.09-.41-.33-.42-.62-.77-1.11v4.75a5.38,5.38,0,0,1,2.2-2,6.28,6.28,0,0,1,2.79-.66,6.35,6.35,0,0,1,2.8.66,5.42,5.42,0,0,1,2.19,2Zm-5.9,7.28a3,3,0,0,1-.44.82.9.9,0,0,1-.76.34,1,1,0,0,1-.84-.34,1.79,1.79,0,0,1-.39-.82,3.1,3.1,0,0,0,1.18.17A3.74,3.74,0,0,0,22.89,18.81Zm.31,20.46A3.36,3.36,0,0,0,22,39.09a3.71,3.71,0,0,0-1.25.18,2.75,2.75,0,0,1,.46-.83,1,1,0,0,1,.77-.33,1.07,1.07,0,0,1,.83.33A1.79,1.79,0,0,1,23.2,39.27Zm7.56-8a14.22,14.22,0,0,1-1.37,1.11,11.42,11.42,0,0,1-1.35.83,8.88,8.88,0,0,1-1.46.58,14.32,14.32,0,0,1-1.72.37.17.17,0,0,1-.18,0,.57.57,0,0,1-.11-.16.21.21,0,0,1,0-.17.34.34,0,0,1,.2-.13,13,13,0,0,0,3-.93,10.39,10.39,0,0,0,2.59-1.81.24.24,0,0,1,.36,0C30.87,31,30.88,31.14,30.76,31.25Zm2.88,11.61-3.83,4.88L26,42.86,29.81,38Zm-.31-15.79a1.27,1.27,0,0,1,.53,1,1.33,1.33,0,0,1-.53,1.09v2.14a.26.26,0,0,1-.28.29H31.61c-.15,0-.22-.1-.22-.29V29.18a1,1,0,0,1-.38-.47,1.88,1.88,0,0,1-.11-.62,1.33,1.33,0,0,1,.42-1h-.49c-.19,0-.28-.08-.28-.25s.09-.24.28-.24l.78-.07V21l-.22-.42v2.08c0,.16,0,.24-.14.24A1.68,1.68,0,0,1,29.79,22a3.68,3.68,0,0,1,0-3.84,1.68,1.68,0,0,1,1.46-.82c.1,0,.14.09.14.28v2.07l.22-.35v-.56l.8-1.44.64,1.44v7.7l.88.07a.23.23,0,0,1,.21.26c0,.15-.07.23-.21.23Zm-1.94-7L31,19.72V17.86a1.71,1.71,0,0,0-.93.77,2.82,2.82,0,0,0-.37,1.48,2.72,2.72,0,0,0,.37,1.46,1.67,1.67,0,0,0,.93.75V20.53Zm1.94,8a1,1,0,0,0-.3-.7.93.93,0,0,0-.69-.32.86.86,0,0,0-.66.32,1,1,0,0,0-.29.7.92.92,0,0,0,.29.67.88.88,0,0,0,.66.28,1,1,0,0,0,.69-.28A.89.89,0,0,0,33.33,28.09Zm-.49,1.37a.79.79,0,0,1-.29.07h-.21a1.33,1.33,0,0,1-.45-.07V31h1Zm-.29-2.95V18.88l-.14-.74-.28.74v7.63Zm8.58,28.23H40V52.56l-2,2.18H36.6l2.14-2.18-2.32-3.1h1.44l1.69,2.33.49-.6V49.46h1.09Zm0-9.6L38.88,48l-2.21-2.88,2.21-2.85Z" style="fill: #ef4444"/>
    </g>
  </g>
</svg>
