<svg xmlns="http://www.w3.org/2000/svg" viewBox="0 0 43.49 57.97">
  <g id="Layer_2" data-name="Layer 2">
    <g id="Layer_1-2" data-name="Layer 1">
      <path d="M43.49,56.32A1.62,1.62,0,0,1,41.84,58H1.58a1.43,1.43,0,0,1-1.14-.51A1.72,1.72,0,0,1,0,56.32V1.58A1.54,1.54,0,0,1,.44.44,1.54,1.54,0,0,1,1.58,0H41.84A1.71,1.71,0,0,1,43,.44a1.47,1.47,0,0,1,.49,1.14Zm-1-54.74a.52.52,0,0,0-.16-.38A.58.58,0,0,0,41.84,1H1.58A.5.5,0,0,0,1,1.58V56.32a.58.58,0,0,0,.18.47.52.52,0,0,0,.38.16H41.84a.56.56,0,0,0,.63-.63ZM6.93,12.9,4.68,15.79,2.46,12.9,4.68,10Zm-.6-6.61a2,2,0,0,1-.49,1.37,1.65,1.65,0,0,1-1.3.57,1.83,1.83,0,0,1-1-.23A1.4,1.4,0,0,1,3,7.38a2.89,2.89,0,0,1-.27-.86,6.15,6.15,0,0,1-.07-1,5.12,5.12,0,0,1,.09-1,2.4,2.4,0,0,1,.32-.86,1.65,1.65,0,0,1,.61-.62,2,2,0,0,1,1-.23,1.41,1.41,0,0,1,1,.37,1.78,1.78,0,0,1,.48,1l-.85.14a2.27,2.27,0,0,0-.21-.56.52.52,0,0,0-.52-.28.73.73,0,0,0-.73.53,3.08,3.08,0,0,0-.19,1,1.39,1.39,0,0,1,1-.45,1.55,1.55,0,0,1,1.17.49A1.64,1.64,0,0,1,6.33,6.29Zm-.92.14a1.47,1.47,0,0,0-.19-.73.71.71,0,0,0-.68-.36.73.73,0,0,0-.62.32,1.2,1.2,0,0,0-.23.7,1.67,1.67,0,0,0,.21.79.74.74,0,0,0,.71.41.64.64,0,0,0,.63-.37A1.72,1.72,0,0,0,5.41,6.43ZM16.91,10l-3.8,4.89L9.28,10l3.83-4.89Zm0,19.16L13.11,34,9.28,29.11l3.83-4.92Zm0,19L13.11,53,9.28,48.09l3.83-4.88ZM34.28,10l-3.83,4.89L26.65,10l3.8-4.89Zm0,19.16L30.45,34l-3.8-4.89,3.8-4.92Zm0,19L30.45,53l-3.8-4.93,3.8-4.88Zm6.85-3L38.88,48l-2.21-2.88,2.21-2.85Zm-.24,7.35a5.23,5.23,0,0,1-.09,1,2.78,2.78,0,0,1-.32.86,1.78,1.78,0,0,1-.61.61,2,2,0,0,1-1,.23,1.41,1.41,0,0,1-1.51-1.37l.88-.14a4.89,4.89,0,0,0,.19.58.5.5,0,0,0,.51.3.74.74,0,0,0,.76-.55,2.85,2.85,0,0,0,.19-1,1.39,1.39,0,0,1-1,.42,1.64,1.64,0,0,1-1.65-1.65,2,2,0,0,1,.49-1.38,1.66,1.66,0,0,1,1.3-.56,1.86,1.86,0,0,1,1,.23,1.47,1.47,0,0,1,.56.6,2.67,2.67,0,0,1,.27.84A7.77,7.77,0,0,1,40.89,52.49Zm-1-.78a1.61,1.61,0,0,0-.23-.8.75.75,0,0,0-.72-.43.59.59,0,0,0-.59.39,1.84,1.84,0,0,0-.18.77,1.55,1.55,0,0,0,.18.73.67.67,0,0,0,.66.33.8.8,0,0,0,.64-.3A1.07,1.07,0,0,0,39.9,51.71Z" style="fill: #231f20"/>
    </g>
  </g>
</svg>
