<svg xmlns="http://www.w3.org/2000/svg" viewBox="0 0 43.49 57.97">
  <g id="Layer_2" data-name="Layer 2">
    <g id="Layer_1-2" data-name="Layer 1">
      <path d="M43.49,56.32A1.62,1.62,0,0,1,41.84,58H1.58a1.43,1.43,0,0,1-1.14-.51A1.72,1.72,0,0,1,0,56.32V1.58A1.54,1.54,0,0,1,.44.44,1.54,1.54,0,0,1,1.58,0H41.84A1.71,1.71,0,0,1,43,.44a1.47,1.47,0,0,1,.49,1.14Zm-1-54.74a.52.52,0,0,0-.16-.38A.58.58,0,0,0,41.84,1H1.58A.5.5,0,0,0,1,1.58V56.32a.58.58,0,0,0,.18.47.52.52,0,0,0,.38.16H41.84a.56.56,0,0,0,.63-.63ZM6.93,12.9,4.68,15.79,2.46,12.9,4.68,10ZM6.79,3.76a9.38,9.38,0,0,0-1.73,4.4H4A7.91,7.91,0,0,1,5.7,3.9H3.23V3H6.79ZM16.91,10l-3.8,4.89L9.28,10l3.83-4.89Zm0,19.16L13.11,34,9.28,29.11l3.83-4.92Zm0,19L13.11,53,9.28,48.09l3.83-4.88Zm8.65-28.58-3.8,4.92-3.83-4.92,3.83-4.89ZM34.28,10l-3.83,4.89L26.65,10l3.8-4.89Zm0,19.16L30.45,34l-3.8-4.89,3.8-4.92Zm0,19L30.45,53l-3.8-4.93,3.8-4.88Zm6.85-3L38.88,48l-2.21-2.88,2.21-2.85Zm-.81,10H36.81v-.77a9.58,9.58,0,0,0,1.72-4.4h1a8.2,8.2,0,0,1-1.69,4.22h2.46Z" style="fill: #231f20"/>
    </g>
  </g>
</svg>
