<svg xmlns="http://www.w3.org/2000/svg" viewBox="0 0 43.49 57.97">
  <g id="Layer_2" data-name="Layer 2">
    <g id="Layer_1-2" data-name="Layer 1">
      <path d="M43.49,56.32A1.62,1.62,0,0,1,41.84,58H1.58a1.43,1.43,0,0,1-1.14-.51A1.72,1.72,0,0,1,0,56.32V1.58A1.54,1.54,0,0,1,.44.44,1.54,1.54,0,0,1,1.58,0H41.84A1.71,1.71,0,0,1,43,.44a1.47,1.47,0,0,1,.49,1.14Zm-1-54.74a.52.52,0,0,0-.16-.38A.58.58,0,0,0,41.84,1H1.58A.5.5,0,0,0,1,1.58V56.32a.58.58,0,0,0,.18.47.52.52,0,0,0,.38.16H41.84a.56.56,0,0,0,.63-.63ZM6.93,12.9,4.68,15.79,2.46,12.9,4.68,10ZM6.4,6.64a1.41,1.41,0,0,1-.51,1.2,2.05,2.05,0,0,1-1.28.39,2.06,2.06,0,0,1-1.27-.39,1.4,1.4,0,0,1-.53-1.2A1.24,1.24,0,0,1,3,5.91a1.64,1.64,0,0,1,.54-.5A1.29,1.29,0,0,1,3,4.25a1.17,1.17,0,0,1,.48-1,1.81,1.81,0,0,1,1.11-.34,1.76,1.76,0,0,1,1.12.37,1.33,1.33,0,0,1,.46,1.07A1.32,1.32,0,0,1,5.7,5.41a1.87,1.87,0,0,1,.51.5A1.31,1.31,0,0,1,6.4,6.64Zm-.92,0a.77.77,0,0,0-.87-.87.76.76,0,0,0-.85.87A1,1,0,0,0,4,7.29a.77.77,0,0,0,.62.27.83.83,0,0,0,.63-.27A.92.92,0,0,0,5.48,6.64ZM5.34,4.32a.79.79,0,0,0-.19-.54.68.68,0,0,0-.54-.23.62.62,0,0,0-.51.23.8.8,0,0,0-.2.54,1,1,0,0,0,.16.58.61.61,0,0,0,.55.23.65.65,0,0,0,.56-.23A.89.89,0,0,0,5.34,4.32ZM16.91,10l-3.8,4.89L9.28,10l3.83-4.89Zm0,19.16L13.11,34,9.28,29.11l3.83-4.92Zm0,19L13.11,53,9.28,48.09l3.83-4.88Zm8.65-28.58-3.8,4.92-3.83-4.92,3.83-4.89Zm0,19-3.8,4.89-3.83-4.89,3.83-4.89ZM34.28,10l-3.83,4.89L26.65,10l3.8-4.89Zm0,19.16L30.45,34l-3.8-4.89,3.8-4.92Zm0,19L30.45,53l-3.8-4.93,3.8-4.88Zm6.85-3L38.88,48l-2.21-2.88,2.21-2.85Zm-.38,6.29a1.24,1.24,0,0,1-.2.71,2,2,0,0,1-.51.49,1.58,1.58,0,0,1,.5,1.16,1.23,1.23,0,0,1-.46,1,1.89,1.89,0,0,1-1.13.33,1.7,1.7,0,0,1-1.1-.37,1.27,1.27,0,0,1-.48-1.07,1.24,1.24,0,0,1,.49-1.09,2,2,0,0,1-.51-.49,1.23,1.23,0,0,1-.19-.71,1.39,1.39,0,0,1,.51-1.19,2.31,2.31,0,0,1,2.57,0A1.39,1.39,0,0,1,40.75,51.43Zm-.92,0a1,1,0,0,0-.24-.66.82.82,0,0,0-.64-.29.74.74,0,0,0-.61.29,1,1,0,0,0-.23.66.75.75,0,0,0,.84.85C39.54,52.28,39.83,52,39.83,51.43Zm-.14,2.29a.94.94,0,0,0-.17-.55A.68.68,0,0,0,39,53a.6.6,0,0,0-.54.22.94.94,0,0,0-.16.55.86.86,0,0,0,.19.56.61.61,0,0,0,.51.25.66.66,0,0,0,.53-.25A.83.83,0,0,0,39.69,53.72Z" style="fill: #231f20"/>
    </g>
  </g>
</svg>
