<svg xmlns="http://www.w3.org/2000/svg" viewBox="0 0 43.49 57.97">
  <g id="Layer_2" data-name="Layer 2">
    <g id="Layer_1-2" data-name="Layer 1">
      <path d="M43.49,56.32A1.62,1.62,0,0,1,41.84,58H1.58a1.43,1.43,0,0,1-1.14-.51A1.72,1.72,0,0,1,0,56.32V1.58A1.54,1.54,0,0,1,.44.44,1.54,1.54,0,0,1,1.58,0H41.84A1.71,1.71,0,0,1,43,.44a1.47,1.47,0,0,1,.49,1.14Zm-1-54.74a.52.52,0,0,0-.16-.38A.58.58,0,0,0,41.84,1H1.58A.5.5,0,0,0,1,1.58V56.32a.58.58,0,0,0,.18.47.52.52,0,0,0,.38.16H41.84a.56.56,0,0,0,.63-.63ZM6.93,12.9,4.68,15.79,2.46,12.9,4.68,10Zm-.6-8.12a1.74,1.74,0,0,1-.56,1.39,11.45,11.45,0,0,1-1.23.9,3.17,3.17,0,0,0-.32.22,3.93,3.93,0,0,0-.32.27H6.26V8.3H2.81V8.23a4,4,0,0,1,.07-.67,1.24,1.24,0,0,1,.35-.63,2,2,0,0,1,.57-.5c.23-.14.47-.28.7-.44a2.74,2.74,0,0,0,.6-.52,1.24,1.24,0,0,0,.24-.79A1,1,0,0,0,5.13,4a.79.79,0,0,0-.67-.27.61.61,0,0,0-.63.39,2.32,2.32,0,0,0-.14.77l-.88-.07C2.81,3.63,3.39,3,4.54,3a1.8,1.8,0,0,1,1.3.48A1.71,1.71,0,0,1,6.33,4.78ZM25.63,10l-3.8,4.89L17.93,10l3.9-4.89Zm0,38.14L21.83,53l-3.9-4.93,3.9-4.88Zm15.5-3L38.88,48l-2.21-2.88,2.21-2.85Zm-.38,8.09A1.56,1.56,0,0,1,39,55a1.81,1.81,0,0,1-1.3-.46,1.61,1.61,0,0,1-.49-1.26,1.67,1.67,0,0,1,.58-1.39c.39-.32.79-.63,1.21-.93l.34-.23a3,3,0,0,0,.33-.27H37.3v-.7h3.45v.07a3.69,3.69,0,0,1-.07.65,1.28,1.28,0,0,1-.36.62,1.75,1.75,0,0,1-.56.47,7.15,7.15,0,0,0-.68.44,2.77,2.77,0,0,0-.58.55,1.15,1.15,0,0,0-.25.79,1.11,1.11,0,0,0,.21.67.76.76,0,0,0,.63.28.62.62,0,0,0,.65-.39,2,2,0,0,0,.16-.77Z" style="fill: #ef4444"/>
    </g>
  </g>
</svg>
