<svg xmlns="http://www.w3.org/2000/svg" viewBox="0 0 43.49 57.97">
  <g id="Layer_2" data-name="Layer 2">
    <g id="Layer_1-2" data-name="Layer 1">
      <path d="M43.49,56.32A1.62,1.62,0,0,1,41.84,58H1.58a1.43,1.43,0,0,1-1.14-.51A1.72,1.72,0,0,1,0,56.32V1.58A1.54,1.54,0,0,1,.44.44,1.54,1.54,0,0,1,1.58,0H41.84A1.71,1.71,0,0,1,43,.44a1.47,1.47,0,0,1,.49,1.14Zm-1-54.74a.52.52,0,0,0-.16-.38A.58.58,0,0,0,41.84,1H1.58A.5.5,0,0,0,1,1.58V56.32a.58.58,0,0,0,.18.47.52.52,0,0,0,.38.16H41.84a.56.56,0,0,0,.63-.63ZM7.56,11.46a2.47,2.47,0,0,1-.63,1.65L4.68,15.79,2.46,13.11a2.49,2.49,0,0,1-.67-1.65,1.39,1.39,0,0,1,.42-1,1.42,1.42,0,0,1,1-.42,1.21,1.21,0,0,1,1,.44,2.12,2.12,0,0,1,.48,1,2.28,2.28,0,0,1,.45-1,1.22,1.22,0,0,1,1-.44,1.43,1.43,0,0,1,1.44,1.44ZM6.47,5.91a5.39,5.39,0,0,1-.09,1,2.3,2.3,0,0,1-.32.84,1.78,1.78,0,0,1-.59.6,1.78,1.78,0,0,1-.93.23,1.61,1.61,0,0,1-1.06-.34,1.53,1.53,0,0,1-.53-1l.88-.14a3.32,3.32,0,0,0,.23.58.51.51,0,0,0,.48.3.74.74,0,0,0,.77-.51,4.81,4.81,0,0,0,.24-.94,1.58,1.58,0,0,1-1,.36,1.63,1.63,0,0,1-1.2-.46,1.64,1.64,0,0,1-.46-1.2,2,2,0,0,1,.48-1.37,1.63,1.63,0,0,1,1.32-.56,1.51,1.51,0,0,1,.91.25,1.58,1.58,0,0,1,.54.61A2.76,2.76,0,0,1,6.4,5,6,6,0,0,1,6.47,5.91Zm-1-.78a1.67,1.67,0,0,0-.19-.81A.72.72,0,0,0,4.61,4a.6.6,0,0,0-.6.39,1.84,1.84,0,0,0-.18.77A1.31,1.31,0,0,0,4,5.82a.62.62,0,0,0,.6.3.75.75,0,0,0,.66-.3A1.17,1.17,0,0,0,5.48,5.13ZM9.11,36.77a2.68,2.68,0,0,1,.26-1.16,4.59,4.59,0,0,1,.68-1l3.1-3.69,3.09,3.69a3.84,3.84,0,0,1,.65,1,3,3,0,0,1,.23,1.17,1.89,1.89,0,0,1-.58,1.44,2,2,0,0,1-1.46.57,1.61,1.61,0,0,1-1.33-.62,2.76,2.76,0,0,1-.6-1.39,3.39,3.39,0,0,1-.67,1.39,1.62,1.62,0,0,1-1.34.62,2,2,0,0,1-1.42-.57A1.85,1.85,0,0,1,9.11,36.77Zm0,13.15a2.65,2.65,0,0,1,.26-1.16,4.59,4.59,0,0,1,.68-1L13.15,44l3.09,3.69a4,4,0,0,1,.65,1,3.1,3.1,0,0,1,.23,1.18,1.89,1.89,0,0,1-.58,1.44,2,2,0,0,1-1.46.57,1.61,1.61,0,0,1-1.33-.62,2.76,2.76,0,0,1-.6-1.39,3.39,3.39,0,0,1-.67,1.39,1.62,1.62,0,0,1-1.34.62,2,2,0,0,1-1.42-.57A1.85,1.85,0,0,1,9.11,49.92ZM17.16,8.16a2.66,2.66,0,0,1-.27,1.16,4.59,4.59,0,0,1-.68,1l-3.1,3.69L10,10.37a3.84,3.84,0,0,1-.65-1,3,3,0,0,1-.23-1.17,1.93,1.93,0,0,1,.58-1.45,2,2,0,0,1,1.46-.56,1.64,1.64,0,0,1,1.34.62,2.83,2.83,0,0,1,.59,1.39,3.39,3.39,0,0,1,.67-1.39,1.62,1.62,0,0,1,1.34-.62,2.06,2.06,0,0,1,1.42.56A1.89,1.89,0,0,1,17.16,8.16Zm0,13.14a2.63,2.63,0,0,1-.27,1.16,4.44,4.44,0,0,1-.68,1.06l-3.1,3.69L10,23.52a3.84,3.84,0,0,1-.65-1,3,3,0,0,1-.23-1.18,1.92,1.92,0,0,1,.58-1.44,2,2,0,0,1,1.46-.56,1.64,1.64,0,0,1,1.34.62,2.84,2.84,0,0,1,.59,1.38,3.42,3.42,0,0,1,.67-1.38,1.62,1.62,0,0,1,1.34-.62,2.06,2.06,0,0,1,1.42.56A1.88,1.88,0,0,1,17.16,21.3ZM25.8,27a2.62,2.62,0,0,1-.26,1.16,4.2,4.2,0,0,1-.68,1.05l-3.1,3.7-3.09-3.7a3.79,3.79,0,0,1-.65-1A3.1,3.1,0,0,1,17.79,27a1.89,1.89,0,0,1,.58-1.44A2,2,0,0,1,19.83,25a1.6,1.6,0,0,1,1.33.61,2.76,2.76,0,0,1,.6,1.39,3.39,3.39,0,0,1,.67-1.39A1.62,1.62,0,0,1,23.77,25a2,2,0,0,1,1.42.56A1.85,1.85,0,0,1,25.8,27Zm.64,9.77a2.83,2.83,0,0,1,.26-1.16,5,5,0,0,1,.69-1l3.09-3.69,3.09,3.69a3.61,3.61,0,0,1,.65,1,2.84,2.84,0,0,1,.23,1.17,1.89,1.89,0,0,1-.58,1.44,2,2,0,0,1-1.46.57,1.62,1.62,0,0,1-1.33-.62,2.76,2.76,0,0,1-.6-1.39,3.39,3.39,0,0,1-.67,1.39,1.62,1.62,0,0,1-1.33.62,2,2,0,0,1-1.43-.57A1.85,1.85,0,0,1,26.44,36.77Zm0,13.15a2.8,2.8,0,0,1,.26-1.16,5,5,0,0,1,.69-1L30.48,44l3.09,3.69a3.7,3.7,0,0,1,.65,1,2.92,2.92,0,0,1,.23,1.18,1.89,1.89,0,0,1-.58,1.44,2,2,0,0,1-1.46.57,1.62,1.62,0,0,1-1.33-.62,2.76,2.76,0,0,1-.6-1.39,3.39,3.39,0,0,1-.67,1.39,1.62,1.62,0,0,1-1.33.62,2,2,0,0,1-1.43-.57A1.85,1.85,0,0,1,26.44,49.92ZM34.49,8.16a2.66,2.66,0,0,1-.27,1.16,4.59,4.59,0,0,1-.68,1l-3.09,3.69-3.1-3.69a3.84,3.84,0,0,1-.65-1,3,3,0,0,1-.23-1.17,2,2,0,0,1,.58-1.45,2,2,0,0,1,1.46-.56,1.64,1.64,0,0,1,1.34.62,2.76,2.76,0,0,1,.6,1.39,3.38,3.38,0,0,1,.66-1.39,1.64,1.64,0,0,1,1.34-.62,2.06,2.06,0,0,1,1.42.56A1.89,1.89,0,0,1,34.49,8.16Zm0,13.14a2.63,2.63,0,0,1-.27,1.16,4.44,4.44,0,0,1-.68,1.06l-3.09,3.69-3.1-3.69a3.84,3.84,0,0,1-.65-1,3,3,0,0,1-.23-1.18,2,2,0,0,1,.58-1.44,2,2,0,0,1,1.46-.56,1.64,1.64,0,0,1,1.34.62,2.76,2.76,0,0,1,.6,1.38,3.4,3.4,0,0,1,.66-1.38,1.64,1.64,0,0,1,1.34-.62,2.06,2.06,0,0,1,1.42.56A1.88,1.88,0,0,1,34.49,21.3Zm7.28,25.28A1.45,1.45,0,0,1,40.32,48a1.17,1.17,0,0,1-1-.44,2.08,2.08,0,0,1-.48-1,2.21,2.21,0,0,1-.44,1,1.15,1.15,0,0,1-1,.44A1.43,1.43,0,0,1,36,46.58a2.48,2.48,0,0,1,.67-1.65l2.21-2.64,2.25,2.64A2.48,2.48,0,0,1,41.77,46.58Zm-1.09,6.3a2.16,2.16,0,0,1-.46,1.37,1.64,1.64,0,0,1-1.34.56,1.51,1.51,0,0,1-.91-.25,1.6,1.6,0,0,1-.55-.63,3,3,0,0,1-.26-.86,6,6,0,0,1-.07-.93,5.5,5.5,0,0,1,.09-1,2.56,2.56,0,0,1,.31-.84,2,2,0,0,1,.6-.6,1.78,1.78,0,0,1,.93-.23,1.46,1.46,0,0,1,1.59,1.38l-.85.14a2.31,2.31,0,0,0-.24-.57.58.58,0,0,0-.5-.28.7.7,0,0,0-.75.49,6.22,6.22,0,0,0-.23,1,1.66,1.66,0,0,1,2.2.07A1.74,1.74,0,0,1,40.68,52.88Zm-.92.07a1.52,1.52,0,0,0-.17-.71.67.67,0,0,0-.64-.31.7.7,0,0,0-.63.31,1.26,1.26,0,0,0-.21.71,1.68,1.68,0,0,0,.18.77.66.66,0,0,0,.66.35.64.64,0,0,0,.64-.37A1.82,1.82,0,0,0,39.76,53Z" style="fill: #231f20"/>
    </g>
  </g>
</svg>
