<svg xmlns="http://www.w3.org/2000/svg" viewBox="0 0 43.49 57.97">
  <g id="Layer_2" data-name="Layer 2">
    <g id="Layer_1-2" data-name="Layer 1">
      <path d="M43.49,56.32A1.62,1.62,0,0,1,41.84,58H1.58a1.43,1.43,0,0,1-1.14-.51A1.72,1.72,0,0,1,0,56.32V1.58A1.54,1.54,0,0,1,.44.44,1.54,1.54,0,0,1,1.58,0H41.84A1.71,1.71,0,0,1,43,.44a1.47,1.47,0,0,1,.49,1.14Zm-1-54.74a.52.52,0,0,0-.16-.38A.58.58,0,0,0,41.84,1H1.58A.5.5,0,0,0,1,1.58V56.32a.58.58,0,0,0,.18.47.52.52,0,0,0,.38.16H41.84a.56.56,0,0,0,.63-.63ZM7.56,11.46a2.47,2.47,0,0,1-.63,1.65L4.68,15.79,2.46,13.11a2.49,2.49,0,0,1-.67-1.65,1.39,1.39,0,0,1,.42-1,1.42,1.42,0,0,1,1-.42,1.21,1.21,0,0,1,1,.44,2.12,2.12,0,0,1,.48,1,2.28,2.28,0,0,1,.45-1,1.22,1.22,0,0,1,1-.44,1.43,1.43,0,0,1,1.44,1.44ZM7.14,8.58H5.7L4,6.29l-.49.57V8.58H2.46V3.34H3.55V5.48l2-2.14H7L4.82,5.48ZM35.3,49.78H8.3V8.3h27Zm-.95-1V9.21H9.21V48.83Zm-16.28-36a3.34,3.34,0,0,1-.84,2.22l-3.1,3.69L11,15.05A4.82,4.82,0,0,1,10.35,14a2.76,2.76,0,0,1-.26-1.16,1.9,1.9,0,0,1,.6-1.44,2,2,0,0,1,1.4-.56,1.64,1.64,0,0,1,1.37.61,3.33,3.33,0,0,1,.67,1.39,3,3,0,0,1,.58-1.39,1.62,1.62,0,0,1,1.36-.61,1.92,1.92,0,0,1,2,2Zm12.55,7.84a5.27,5.27,0,0,1-.95,3.13,5.71,5.71,0,0,1-2.53,2l-.49,1.27c-.07.19-.18.25-.32.18a.21.21,0,0,1-.1-.32l.28-.84-.27,0a1.66,1.66,0,0,1-.33,0l-.21.91c-.05.16-.15.23-.3.19s-.19-.14-.12-.33l.14-.7a1.43,1.43,0,0,1-.35.07V27c0,.19-.09.28-.25.28s-.25-.09-.25-.28v-.7a.19.19,0,0,0-.15-.07h-.16l.14.7c.05.19,0,.3-.14.33s-.24,0-.28-.19l-.28-.91a.8.8,0,0,0-.25-.11l-.32-.1.35,1a.21.21,0,0,1-.12.32q-.22.11-.3-.18l-.6-1.37a6.12,6.12,0,0,1-1.93-1.62,5.61,5.61,0,0,1-1.09-2.25H13.68l-.07.49c0,.19-.09.29-.25.29s-.25-.1-.25-.29v-.49c0,.05,0,.07,0,.07s-.06,0-.11.07v2.74c0,.15-.07.22-.21.22H11.11c-.16,0-.25-.07-.25-.22V21.62a1.57,1.57,0,0,1-.21-.88,1.12,1.12,0,0,1,.39-1,1.49,1.49,0,0,1,1.05-.42,1.19,1.19,0,0,1,1,.42v-.49c0-.19.09-.28.25-.28s.25.09.25.28l.07.67h5.69A5.64,5.64,0,0,1,20,18a5.53,5.53,0,0,1,1.25-1.54,5.64,5.64,0,0,1,1.72-1,5.58,5.58,0,0,1,2-.37,5.22,5.22,0,0,1,2.14.44,5.5,5.5,0,0,1,1.79,1.21,5.72,5.72,0,0,1,1.23,1.79A5.2,5.2,0,0,1,30.62,20.67Zm-17.51.07a.81.81,0,0,0-.31-.65,1.11,1.11,0,0,0-.71-.26,1,1,0,0,0-.68.26.65.65,0,0,0-.23.65,1.06,1.06,0,0,0,.26.74.86.86,0,0,0,.65.28,1,1,0,0,0,.71-.28A.94.94,0,0,0,13.11,20.74Zm-.56,3.69V22.18a1.35,1.35,0,0,1-.46.07,1.25,1.25,0,0,1-.7-.21v2.39Zm2,4.82a1.26,1.26,0,0,1-.42,1,1.44,1.44,0,0,1-1,.39H13a1.32,1.32,0,0,1-1-.39,1.28,1.28,0,0,1-.41-1v-.14a1.42,1.42,0,0,1,.41-1,1.27,1.27,0,0,1,1-.42h.14a1.43,1.43,0,0,1,1.44,1.44Zm-.49-.14a1,1,0,0,0-1-.95H13a.78.78,0,0,0-.63.28,1,1,0,0,0-.25.67v.14c0,.56.3.84.88.84h.14a1,1,0,0,0,.67-.22.76.76,0,0,0,.28-.62Zm10.8,17.72c0,.19-.06.29-.18.31s-.23,0-.35-.17L23.2,45.32c-.4.61-.68,1.06-.86,1.35s-.33.43-.47.42-.31-.17-.49-.49-.5-.78-.92-1.39c-.49.61-.84,1.07-1.05,1.39s-.4.47-.55.47-.34-.15-.56-.45-.58-.78-1.07-1.41c-.43.61-.72,1.07-.9,1.39s-.33.48-.46.49-.28-.13-.45-.42-.47-.74-.87-1.35L13.32,47c-.07.14-.15.2-.26.17s-.16-.12-.16-.31V40.25c0-.14.06-.22.16-.24s.19,0,.26.17a5.76,5.76,0,0,0,2.29,2.43,6.81,6.81,0,0,0,3.27.74A5.77,5.77,0,0,0,24.33,40a.26.26,0,0,1,.31-.17.22.22,0,0,1,.22.24Zm-5.49-22.4c-.61.12-1.16.24-1.65.37a7.65,7.65,0,0,0-1.39.51,10.39,10.39,0,0,0-2.58,1.83.25.25,0,1,1-.36-.35,16,16,0,0,1,1.38-1.11,10.49,10.49,0,0,1,1.35-.81,9.4,9.4,0,0,1,1.46-.56,15.7,15.7,0,0,1,1.72-.4c.14-.05.23,0,.28.19S19.56,24.39,19.37,24.43Zm13.89,12A1.47,1.47,0,0,1,31.75,38a1.29,1.29,0,0,1-1-.46V38c0,.19-.09.28-.26.28s-.27-.09-.27-.28v-.67H24.47a6.47,6.47,0,0,1-.65,1.9,5.5,5.5,0,0,1-1.21,1.53,6,6,0,0,1-1.67,1,5.58,5.58,0,0,1-4.17-.07A5.63,5.63,0,0,1,15,40.55a5.45,5.45,0,0,1-1.66-3.95,5.27,5.27,0,0,1,.94-3.13,5.78,5.78,0,0,1,2.44-2l.53-1.3c.07-.18.18-.24.35-.17a.24.24,0,0,1,.14.35l-.35.84a1.09,1.09,0,0,0,.28,0,1,1,0,0,1,.28,0l.21-.95c.05-.11.16-.16.35-.14s.25.13.18.32l-.25.7a1.46,1.46,0,0,1,.39-.07v-.7c0-.19.08-.28.24-.28s.25.09.25.28V31a.19.19,0,0,0,.14.07h.14l-.14-.7q-.07-.29.18-.33c.16,0,.27,0,.31.15l.25.95a1.74,1.74,0,0,0,.32.11.87.87,0,0,1,.24.1l-.35-1a.27.27,0,0,1,.16-.35c.15-.07.26,0,.33.17l.5,1.38a6,6,0,0,1,1.93,1.63,5.75,5.75,0,0,1,1.09,2.27h5.83V35c0-.19.09-.29.27-.29s.26.1.26.29v.49s0-.07,0-.07.05,0,.1-.07V32.48a.19.19,0,0,1,.21-.21h1.66a.19.19,0,0,1,.21.21v3.17c.07.12.13.24.19.37A1,1,0,0,1,33.26,36.46ZM24.33,41A6.62,6.62,0,0,1,22,43.14a6.54,6.54,0,0,1-3.15.74,6.39,6.39,0,0,1-5.49-2.68V46l.78-1.14c.16-.25.3-.35.42-.32s.26.21.44.51.45.74.83,1.3c.42-.61.72-1.06.91-1.35s.36-.44.51-.42.33.17.54.49.57.77,1.06,1.35c.49-.58.84-1,1.05-1.35s.4-.48.55-.49.32.12.51.42.49.74.91,1.35c.35-.56.61-1,.78-1.3s.31-.47.44-.51.27.07.43.32L24.33,46Zm-5-19.65v-.95H13.68v.95ZM24.05,36.6a4.79,4.79,0,0,0-.64-2.45,5.22,5.22,0,0,0-1.72-1.81l.49,1.16a.24.24,0,0,1-.15.32c-.16.07-.27,0-.34-.18L21,32a1.62,1.62,0,0,0-.35-.17l-.35-.14.42,1.82c.05.19,0,.3-.17.32a.26.26,0,0,1-.32-.18l-.53-2.1a1.25,1.25,0,0,1-.42-.08v2.11c0,.19-.08.29-.25.29s-.24-.1-.24-.29V31.46a.78.78,0,0,0-.21,0,.93.93,0,0,1-.25,0l-.49,2.1a.26.26,0,0,1-.32.18c-.16,0-.22-.13-.17-.32l.42-1.89-.63.24-.74,1.79c-.07.19-.19.25-.35.18s-.21-.18-.14-.32l.49-1.37a5.3,5.3,0,0,0-1.87,1.81,5.07,5.07,0,0,0,.78,6.26A5.36,5.36,0,0,0,17,41.29a5,5,0,0,0,4,0,5.11,5.11,0,0,0,2.7-2.71A4.91,4.91,0,0,0,24.05,36.6Zm-5.84,2.07A3.7,3.7,0,0,0,17,38.5a3.08,3.08,0,0,0-1.17.17,2.14,2.14,0,0,1,.38-.79,1,1,0,0,1,.81-.37.89.89,0,0,1,.77.37A3.7,3.7,0,0,1,18.21,38.67Zm.95-2.74c.23,0,.29.22.18.67s-.25,1-.39,1.65a.21.21,0,0,1-.12.14.44.44,0,0,1-.2,0,.26.26,0,0,1-.17-.09.21.21,0,0,1,0-.21l.39-1.65h-.95c-.19,0-.28-.09-.28-.27s.09-.26.28-.26ZM31,17a.21.21,0,0,1-.19.24.26.26,0,0,1-.3-.17,5.81,5.81,0,0,0-2.25-2.43,6.62,6.62,0,0,0-3.23-.74,5.81,5.81,0,0,0-5.56,3.38c-.07.14-.16.2-.26.17s-.16-.1-.16-.24V10.44c0-.42.14-.47.42-.14L20.67,12c.4-.58.69-1,.86-1.33s.34-.45.48-.44.3.17.49.47.49.76.91,1.37c.5-.61.85-1.06,1.06-1.37s.4-.45.56-.45.35.15.56.45.57.76,1.06,1.37c.42-.61.72-1.06.91-1.37s.35-.46.49-.47.3.13.48.44.46.75.86,1.33l1.16-1.65q.18-.21.33-.18c.11,0,.16.13.16.32ZM21.76,38.67a3.76,3.76,0,0,0-1.26-.17,3.18,3.18,0,0,0-1.2.17,2.16,2.16,0,0,1,.39-.79,1,1,0,0,1,.84-.37.89.89,0,0,1,.77.37A3.7,3.7,0,0,1,21.76,38.67Zm8.79-27.42c-.35.54-.61.93-.79,1.16s-.33.33-.46.3-.28-.21-.45-.51-.46-.74-.83-1.3q-.63.91-.9,1.35c-.17.3-.33.44-.47.42s-.32-.17-.53-.47-.56-.76-1.05-1.37c-.5.61-.85,1.07-1.08,1.37s-.4.46-.54.47-.31-.12-.49-.42-.5-.74-.92-1.35c-.37.56-.65,1-.82,1.3s-.33.47-.44.51-.26-.07-.42-.32l-.78-1.14v5a6.32,6.32,0,0,1,2.25-2.15,6.63,6.63,0,0,1,3.24-.74,7.2,7.2,0,0,1,3.11.67,6.48,6.48,0,0,1,2.37,2Zm-.46,9.42a4.9,4.9,0,0,0-.4-2,5.08,5.08,0,0,0-1.09-1.62A5.19,5.19,0,0,0,27,16a5,5,0,0,0-4,0,5.24,5.24,0,0,0-1.63,1.09,5,5,0,0,0-1.11,1.62,4.91,4.91,0,0,0-.41,2,5,5,0,0,0,.62,2.45,5.16,5.16,0,0,0,1.7,1.81l-.42-1.16a.21.21,0,0,1,.11-.32c.14-.07.24,0,.31.17l.64,1.66.8.28-.42-1.79c-.07-.19,0-.3.13-.32a.23.23,0,0,1,.29.17l.5,2.08.21,0a1,1,0,0,1,.24.08V23.7c0-.19.09-.29.25-.29s.25.1.25.29v2.1a.57.57,0,0,0,.24-.05.92.92,0,0,1,.25-.05l.53-2.08a.22.22,0,0,1,.28-.17c.14,0,.18.13.14.32l-.42,1.86a2,2,0,0,1,.35-.11,1.69,1.69,0,0,0,.35-.1l.74-1.8c0-.18.14-.24.3-.17a.21.21,0,0,1,.12.32l-.53,1.37a4.82,4.82,0,0,0,1.95-1.85A5,5,0,0,0,30.09,20.67ZM24.64,18.6a2.83,2.83,0,0,1-.45.77.93.93,0,0,1-.78.35,1,1,0,0,1-.84-.35,1.94,1.94,0,0,1-.39-.77,5.29,5.29,0,0,0,1.2.1A6.22,6.22,0,0,0,24.64,18.6Zm5.81,11.88a17.55,17.55,0,0,1-1.36,1.11,10.28,10.28,0,0,1-1.33.81A9.8,9.8,0,0,1,26.3,33a15.9,15.9,0,0,1-1.73.4c-.14,0-.22,0-.26-.19s0-.29.16-.33a14.68,14.68,0,0,0,1.65-.36A8.49,8.49,0,0,0,27.51,32a8.28,8.28,0,0,0,1.28-.78,11.05,11.05,0,0,0,1.3-1.09c.14-.11.27-.11.37,0A.25.25,0,0,1,30.45,30.48Zm-.22,6.4v-1H24.47a1.65,1.65,0,0,1,.09.33c0,.11,0,.22,0,.34v.28ZM24.79,21.34a.25.25,0,0,1-.27-.18,1.31,1.31,0,0,1,0-.49,6,6,0,0,1,.18-.74c.08-.28.16-.58.23-.91a.25.25,0,0,1,.31-.18c.17,0,.22.13.18.32l-.35,1.65h1q.21,0,.21.27c0,.17-.07.26-.21.26Zm3.37-2.74a3.14,3.14,0,0,1-.46.77.9.9,0,0,1-.77.35,1,1,0,0,1-.83-.35,1.84,1.84,0,0,1-.4-.77,5.63,5.63,0,0,0,1.21.1A6.18,6.18,0,0,0,28.16,18.6Zm5.91,26.72a1.9,1.9,0,0,1-.6,1.42,2,2,0,0,1-1.41.58,1.65,1.65,0,0,1-1.37-.63A3.57,3.57,0,0,1,30,45.32a2.91,2.91,0,0,1-.58,1.37,1.57,1.57,0,0,1-1.35.63,1.89,1.89,0,0,1-1.44-.58,2,2,0,0,1-.56-1.42,3.27,3.27,0,0,1,.84-2.25L30,39.41l3.1,3.66a4.31,4.31,0,0,1,.68,1.07A2.78,2.78,0,0,1,34.07,45.32ZM32.34,28.16a1.26,1.26,0,0,1-.42,1,1.44,1.44,0,0,1-1,.39h-.14a1.32,1.32,0,0,1-1-.39,1.3,1.3,0,0,1-.39-1V28a1.44,1.44,0,0,1,.39-1,1.27,1.27,0,0,1,1-.42h.14A1.43,1.43,0,0,1,32.34,28ZM31.82,28a.94.94,0,0,0-.27-.67.83.83,0,0,0-.65-.28h-.14a.78.78,0,0,0-.63.28,1,1,0,0,0-.25.67v.14a.78.78,0,0,0,.88.88h.14a.88.88,0,0,0,.65-.25.8.8,0,0,0,.27-.63Zm1,8.44a.92.92,0,0,0-.29-.67,1,1,0,0,0-.73-.28.83.83,0,0,0-.65.28.94.94,0,0,0-.27.67,1,1,0,0,0,.27.7.83.83,0,0,0,.65.28,1,1,0,0,0,.73-.28A1,1,0,0,0,32.77,36.46Zm-.29-3.69H31.39v2.32a.57.57,0,0,1,.36-.07,1.28,1.28,0,0,1,.73.21Zm9.29,13.81A1.45,1.45,0,0,1,40.32,48a1.17,1.17,0,0,1-1-.44,2.08,2.08,0,0,1-.48-1,2.21,2.21,0,0,1-.44,1,1.15,1.15,0,0,1-1,.44A1.43,1.43,0,0,1,36,46.58a2.48,2.48,0,0,1,.67-1.65l2.21-2.64,2.25,2.64A2.48,2.48,0,0,1,41.77,46.58Zm-.64,8.16H40V52.56l-2,2.18H36.6l2.14-2.18-2.32-3.1h1.44l1.69,2.33.49-.6V49.46h1.09Z" style="fill: #ef4444"/>
    </g>
  </g>
</svg>
