<svg xmlns="http://www.w3.org/2000/svg" viewBox="0 0 43.49 57.97">
  <g id="Layer_2" data-name="Layer 2">
    <g id="Layer_1-2" data-name="Layer 1">
      <path d="M43.49,56.32A1.62,1.62,0,0,1,41.84,58H1.58a1.43,1.43,0,0,1-1.14-.51A1.72,1.72,0,0,1,0,56.32V1.58A1.54,1.54,0,0,1,.44.44,1.54,1.54,0,0,1,1.58,0H41.84A1.71,1.71,0,0,1,43,.44a1.47,1.47,0,0,1,.49,1.14Zm-1-54.74a.52.52,0,0,0-.16-.38A.58.58,0,0,0,41.84,1H1.58A.5.5,0,0,0,1,1.58V56.32a.58.58,0,0,0,.18.47.52.52,0,0,0,.38.16H41.84a.56.56,0,0,0,.63-.63ZM7.56,11.46a2.47,2.47,0,0,1-.63,1.65L4.68,15.79,2.46,13.11a2.49,2.49,0,0,1-.67-1.65,1.39,1.39,0,0,1,.42-1,1.42,1.42,0,0,1,1-.42,1.21,1.21,0,0,1,1,.44,2.12,2.12,0,0,1,.48,1,2.28,2.28,0,0,1,.45-1,1.22,1.22,0,0,1,1-.44,1.43,1.43,0,0,1,1.44,1.44ZM7.35,8.23H6.12L5.77,7.14H3.83L3.45,8.23H2.32L4.18,3h1.3Zm-1.87-2L4.82,4.11,4.18,6.19Zm22.29,20A4.48,4.48,0,0,1,27.4,28a5.86,5.86,0,0,1-1,1.57l-4.68,5.55-4.6-5.55a6.16,6.16,0,0,1-1-1.57,4.48,4.48,0,0,1-.37-1.81,2.94,2.94,0,0,1,2.95-3,2.74,2.74,0,0,1,1.16.24,3,3,0,0,1,.92.67,3.28,3.28,0,0,1,.61,1,3.85,3.85,0,0,1,.3,1.09,4.39,4.39,0,0,1,1-2,2.43,2.43,0,0,1,2-.91,3,3,0,0,1,2.18.86A2.8,2.8,0,0,1,27.77,26.19Zm14,20.39A1.45,1.45,0,0,1,40.32,48a1.17,1.17,0,0,1-1-.44,2.08,2.08,0,0,1-.48-1,2.21,2.21,0,0,1-.44,1,1.15,1.15,0,0,1-1,.44A1.43,1.43,0,0,1,36,46.58a2.48,2.48,0,0,1,.67-1.65l2.21-2.64,2.25,2.64A2.48,2.48,0,0,1,41.77,46.58Zm-.5,3.27-1.89,5.24H38.11l-1.9-5.24h1.23l.35,1.06h2l.35-1.06Zm-1.89,2H38.11l.63,2.07Z" style="fill: #ef4444"/>
    </g>
  </g>
</svg>
