<svg xmlns="http://www.w3.org/2000/svg" viewBox="0 0 43.49 57.97">
  <g id="Layer_2" data-name="Layer 2">
    <g id="Layer_1-2" data-name="Layer 1">
      <path d="M43.49,56.32A1.62,1.62,0,0,1,41.84,58H1.58a1.43,1.43,0,0,1-1.14-.51A1.72,1.72,0,0,1,0,56.32V1.58A1.54,1.54,0,0,1,.44.44,1.54,1.54,0,0,1,1.58,0H41.84A1.71,1.71,0,0,1,43,.44a1.47,1.47,0,0,1,.49,1.14Zm-1-54.74a.52.52,0,0,0-.16-.38A.58.58,0,0,0,41.84,1H1.58A.5.5,0,0,0,1,1.58V56.32a.58.58,0,0,0,.18.47.52.52,0,0,0,.38.16H41.84a.56.56,0,0,0,.63-.63ZM7.56,11.46a2.47,2.47,0,0,1-.63,1.65L4.68,15.79,2.46,13.11a2.49,2.49,0,0,1-.67-1.65,1.39,1.39,0,0,1,.42-1,1.42,1.42,0,0,1,1-.42,1.21,1.21,0,0,1,1,.44,2.12,2.12,0,0,1,.48,1,2.28,2.28,0,0,1,.45-1,1.22,1.22,0,0,1,1-.44,1.43,1.43,0,0,1,1.44,1.44ZM6.4,6.64a1.41,1.41,0,0,1-.51,1.2,2.05,2.05,0,0,1-1.28.39,2.06,2.06,0,0,1-1.27-.39,1.4,1.4,0,0,1-.53-1.2A1.24,1.24,0,0,1,3,5.91a1.64,1.64,0,0,1,.54-.5A1.29,1.29,0,0,1,3,4.25a1.17,1.17,0,0,1,.48-1,1.81,1.81,0,0,1,1.11-.34,1.76,1.76,0,0,1,1.12.37,1.3,1.3,0,0,1,.46,1.07A1.32,1.32,0,0,1,5.7,5.41a1.87,1.87,0,0,1,.51.5A1.31,1.31,0,0,1,6.4,6.64Zm-.92,0a.77.77,0,0,0-.87-.87.76.76,0,0,0-.85.87A1,1,0,0,0,4,7.29a.77.77,0,0,0,.62.27.83.83,0,0,0,.63-.27A.92.92,0,0,0,5.48,6.64ZM5.34,4.32a.79.79,0,0,0-.19-.54.68.68,0,0,0-.54-.23.62.62,0,0,0-.51.23.8.8,0,0,0-.2.54,1,1,0,0,0,.16.58.61.61,0,0,0,.55.23.65.65,0,0,0,.56-.23A.89.89,0,0,0,5.34,4.32Zm3.77,45.6a2.65,2.65,0,0,1,.26-1.16,4.59,4.59,0,0,1,.68-1L13.15,44l3.09,3.69a4,4,0,0,1,.65,1,3.1,3.1,0,0,1,.23,1.18,1.89,1.89,0,0,1-.58,1.44,2,2,0,0,1-1.46.57,1.61,1.61,0,0,1-1.33-.62,2.76,2.76,0,0,1-.6-1.39,3.39,3.39,0,0,1-.67,1.39,1.62,1.62,0,0,1-1.34.62,2,2,0,0,1-1.42-.57A1.85,1.85,0,0,1,9.11,49.92ZM17.16,8.16a2.66,2.66,0,0,1-.27,1.16,4.59,4.59,0,0,1-.68,1l-3.1,3.69L10,10.37a3.84,3.84,0,0,1-.65-1,3,3,0,0,1-.23-1.17,1.93,1.93,0,0,1,.58-1.45,2,2,0,0,1,1.46-.56,1.64,1.64,0,0,1,1.34.62,2.83,2.83,0,0,1,.59,1.39,3.39,3.39,0,0,1,.67-1.39,1.62,1.62,0,0,1,1.34-.62,2.06,2.06,0,0,1,1.42.56A1.89,1.89,0,0,1,17.16,8.16Zm0,18.84a2.63,2.63,0,0,1-.27,1.16,4.2,4.2,0,0,1-.68,1.05l-3.1,3.7L10,29.21a3.79,3.79,0,0,1-.65-1A3.1,3.1,0,0,1,9.14,27a1.89,1.89,0,0,1,.58-1.44A2,2,0,0,1,11.18,25a1.63,1.63,0,0,1,1.34.61A2.83,2.83,0,0,1,13.11,27a3.39,3.39,0,0,1,.67-1.39A1.62,1.62,0,0,1,15.12,25a2,2,0,0,1,1.42.56A1.85,1.85,0,0,1,17.16,27Zm.66,13.39a2.69,2.69,0,0,1,.27-1.16,4.59,4.59,0,0,1,.68-1l3.1-3.69L25,38.18a3.84,3.84,0,0,1,.65,1,3,3,0,0,1,.23,1.17,1.93,1.93,0,0,1-.58,1.45,2,2,0,0,1-1.46.56,1.64,1.64,0,0,1-1.34-.62,2.83,2.83,0,0,1-.59-1.39,3.39,3.39,0,0,1-.67,1.39,1.62,1.62,0,0,1-1.34.62,2.06,2.06,0,0,1-1.42-.56A1.89,1.89,0,0,1,17.82,40.39Zm8.06-22.92a2.63,2.63,0,0,1-.27,1.16,4.44,4.44,0,0,1-.68,1.06l-3.1,3.69-3.09-3.69a3.51,3.51,0,0,1-.88-2.22A1.92,1.92,0,0,1,18.44,16a2,2,0,0,1,1.46-.56,1.6,1.6,0,0,1,1.33.61,2.8,2.8,0,0,1,.6,1.39,3.46,3.46,0,0,1,.67-1.39,1.62,1.62,0,0,1,1.34-.61,2.06,2.06,0,0,1,1.42.56A1.88,1.88,0,0,1,25.88,17.47Zm.56,32.45a2.8,2.8,0,0,1,.26-1.16,5,5,0,0,1,.69-1L30.48,44l3.09,3.69a3.7,3.7,0,0,1,.65,1,2.92,2.92,0,0,1,.23,1.18,1.89,1.89,0,0,1-.58,1.44,2,2,0,0,1-1.46.57,1.62,1.62,0,0,1-1.33-.62,2.76,2.76,0,0,1-.6-1.39,3.39,3.39,0,0,1-.67,1.39,1.62,1.62,0,0,1-1.33.62,2,2,0,0,1-1.43-.57A1.85,1.85,0,0,1,26.44,49.92ZM34.49,8.16a2.66,2.66,0,0,1-.27,1.16,4.59,4.59,0,0,1-.68,1l-3.09,3.69-3.1-3.69a3.84,3.84,0,0,1-.65-1,3,3,0,0,1-.23-1.17,2,2,0,0,1,.58-1.45,2,2,0,0,1,1.46-.56,1.64,1.64,0,0,1,1.34.62,2.76,2.76,0,0,1,.6,1.39,3.38,3.38,0,0,1,.66-1.39,1.64,1.64,0,0,1,1.34-.62,2.06,2.06,0,0,1,1.42.56A1.89,1.89,0,0,1,34.49,8.16Zm0,18.84a2.63,2.63,0,0,1-.27,1.16,4.2,4.2,0,0,1-.68,1.05l-3.09,3.7-3.1-3.7a3.79,3.79,0,0,1-.65-1A3.1,3.1,0,0,1,26.47,27a1.93,1.93,0,0,1,.58-1.44A2,2,0,0,1,28.51,25a1.63,1.63,0,0,1,1.34.61,2.76,2.76,0,0,1,.6,1.39,3.38,3.38,0,0,1,.66-1.39A1.63,1.63,0,0,1,32.45,25a2,2,0,0,1,1.42.56A1.85,1.85,0,0,1,34.49,27Zm7.28,19.58A1.45,1.45,0,0,1,40.32,48a1.17,1.17,0,0,1-1-.44,2.08,2.08,0,0,1-.48-1,2.21,2.21,0,0,1-.44,1,1.15,1.15,0,0,1-1,.44A1.43,1.43,0,0,1,36,46.58a2.48,2.48,0,0,1,.67-1.65l2.21-2.64,2.25,2.64A2.48,2.48,0,0,1,41.77,46.58Zm-1,4.85a1.24,1.24,0,0,1-.2.71,2,2,0,0,1-.51.49,1.58,1.58,0,0,1,.5,1.16,1.23,1.23,0,0,1-.46,1,1.89,1.89,0,0,1-1.13.33,1.7,1.7,0,0,1-1.1-.37,1.27,1.27,0,0,1-.48-1.07,1.24,1.24,0,0,1,.49-1.09,2,2,0,0,1-.51-.49,1.23,1.23,0,0,1-.19-.71,1.39,1.39,0,0,1,.51-1.19,2.31,2.31,0,0,1,2.57,0A1.39,1.39,0,0,1,40.75,51.43Zm-.92,0a1,1,0,0,0-.24-.66.82.82,0,0,0-.64-.29.75.75,0,0,0-.61.29,1,1,0,0,0-.23.66.75.75,0,0,0,.84.85C39.54,52.28,39.83,52,39.83,51.43Zm-.14,2.29a.94.94,0,0,0-.17-.55A.68.68,0,0,0,39,53a.61.61,0,0,0-.54.22.94.94,0,0,0-.16.55.86.86,0,0,0,.19.56.63.63,0,0,0,.51.25.69.69,0,0,0,.53-.25A.83.83,0,0,0,39.69,53.72Z" style="fill: #ef4444"/>
    </g>
  </g>
</svg>
