<svg xmlns="http://www.w3.org/2000/svg" viewBox="0 0 43.49 57.97">
  <g id="Layer_2" data-name="Layer 2">
    <g id="Layer_1-2" data-name="Layer 1">
      <path d="M43.49,56.32A1.62,1.62,0,0,1,41.84,58H1.58a1.43,1.43,0,0,1-1.14-.51A1.72,1.72,0,0,1,0,56.32V1.58A1.54,1.54,0,0,1,.44.44,1.54,1.54,0,0,1,1.58,0H41.84A1.71,1.71,0,0,1,43,.44a1.47,1.47,0,0,1,.49,1.14Zm-1-54.74a.52.52,0,0,0-.16-.38A.58.58,0,0,0,41.84,1H1.58A.5.5,0,0,0,1,1.58V56.32a.58.58,0,0,0,.18.47.52.52,0,0,0,.38.16H41.84a.56.56,0,0,0,.63-.63ZM7.56,11.46a2.47,2.47,0,0,1-.63,1.65L4.68,15.79,2.46,13.11a2.49,2.49,0,0,1-.67-1.65,1.39,1.39,0,0,1,.42-1,1.42,1.42,0,0,1,1-.42,1.21,1.21,0,0,1,1,.44,2.12,2.12,0,0,1,.48,1,2.28,2.28,0,0,1,.45-1,1.22,1.22,0,0,1,1-.44,1.43,1.43,0,0,1,1.44,1.44ZM6.4,6.79a1.18,1.18,0,0,1-.55,1.1,2.27,2.27,0,0,1-1.24.34A2.42,2.42,0,0,1,3.3,7.91a1.34,1.34,0,0,1-.49-1.2l.95-.14a1.09,1.09,0,0,0,.18.67.75.75,0,0,0,.67.25.7.7,0,0,0,.8-.78.76.76,0,0,0-.14-.5.68.68,0,0,0-.37-.27,2.44,2.44,0,0,0-.47-.09H4V5.2a3.67,3.67,0,0,0,.86-.1c.3-.07.44-.31.44-.71a.89.89,0,0,0-.17-.54.68.68,0,0,0-.56-.23A.6.6,0,0,0,4,3.88a1.46,1.46,0,0,0-.14.66l-1-.08a1.83,1.83,0,0,1,.5-1.16,1.56,1.56,0,0,1,1.16-.42,2,2,0,0,1,1.21.39,1.32,1.32,0,0,1,.51,1.12,1.17,1.17,0,0,1-.16.69,1.29,1.29,0,0,1-.55.4A1.7,1.7,0,0,1,6.19,6,1.38,1.38,0,0,1,6.4,6.79ZM17.75,49.92A2.66,2.66,0,0,1,18,48.76a4.59,4.59,0,0,1,.68-1L21.8,44l3.09,3.69a4,4,0,0,1,.65,1,3.1,3.1,0,0,1,.23,1.18,1.89,1.89,0,0,1-.58,1.44,2,2,0,0,1-1.46.57,1.64,1.64,0,0,1-1.34-.62,2.83,2.83,0,0,1-.59-1.39,3.39,3.39,0,0,1-.67,1.39,1.62,1.62,0,0,1-1.34.62,2,2,0,0,1-1.42-.57A1.85,1.85,0,0,1,17.75,49.92ZM25.8,8.16a2.65,2.65,0,0,1-.26,1.16,4.59,4.59,0,0,1-.68,1l-3.1,3.69-3.09-3.69a3.84,3.84,0,0,1-.65-1,2.84,2.84,0,0,1-.23-1.17,1.93,1.93,0,0,1,.58-1.45,2,2,0,0,1,1.46-.56,1.61,1.61,0,0,1,1.33.62,2.76,2.76,0,0,1,.6,1.39,3.39,3.39,0,0,1,.67-1.39,1.62,1.62,0,0,1,1.34-.62,2.07,2.07,0,0,1,1.42.56A1.88,1.88,0,0,1,25.8,8.16ZM25.8,27a2.62,2.62,0,0,1-.26,1.16,4.2,4.2,0,0,1-.68,1.05l-3.1,3.7-3.09-3.7a3.79,3.79,0,0,1-.65-1A2.92,2.92,0,0,1,17.79,27a1.89,1.89,0,0,1,.58-1.44A2,2,0,0,1,19.83,25a1.6,1.6,0,0,1,1.33.61,2.76,2.76,0,0,1,.6,1.39,3.39,3.39,0,0,1,.67-1.39A1.62,1.62,0,0,1,23.77,25a2,2,0,0,1,1.42.56A1.85,1.85,0,0,1,25.8,27Zm16,19.58A1.45,1.45,0,0,1,40.32,48a1.17,1.17,0,0,1-1-.44,2.08,2.08,0,0,1-.48-1,2.21,2.21,0,0,1-.44,1,1.15,1.15,0,0,1-1,.44A1.43,1.43,0,0,1,36,46.58a2.48,2.48,0,0,1,.67-1.65l2.21-2.64,2.25,2.64A2.48,2.48,0,0,1,41.77,46.58ZM39.83,51.5a1.1,1.1,0,0,0-.19-.7.85.85,0,0,0-.69-.25c-.51,0-.77.27-.77.81s.16.67.49.74a4.62,4.62,0,0,0,.95.11v.67a4.24,4.24,0,0,0-.88.08q-.42.09-.42.69a1,1,0,0,0,.16.56.6.6,0,0,0,.54.25.61.61,0,0,0,.6-.28,1.54,1.54,0,0,0,.14-.67l.92.07A1.5,1.5,0,0,1,39,55.16a2,2,0,0,1-1.21-.37,1.32,1.32,0,0,1-.51-1.14,1.11,1.11,0,0,1,.18-.67,1.35,1.35,0,0,1,.56-.42,1.74,1.74,0,0,1-.67-.49,1.29,1.29,0,0,1-.21-.78,1.18,1.18,0,0,1,.55-1.1A2.24,2.24,0,0,1,39,49.85a2.36,2.36,0,0,1,1.3.32,1.31,1.31,0,0,1,.5,1.19Z" style="fill: #231f20"/>
    </g>
  </g>
</svg>
