<svg xmlns="http://www.w3.org/2000/svg" viewBox="0 0 43.49 57.97">
  <g id="Layer_2" data-name="Layer 2">
    <g id="Layer_1-2" data-name="Layer 1">
      <path d="M43.49,56.32A1.62,1.62,0,0,1,41.84,58H1.58a1.43,1.43,0,0,1-1.14-.51A1.72,1.72,0,0,1,0,56.32V1.58A1.54,1.54,0,0,1,.44.44,1.54,1.54,0,0,1,1.58,0H41.84A1.71,1.71,0,0,1,43,.44a1.47,1.47,0,0,1,.49,1.14Zm-1-54.74a.52.52,0,0,0-.16-.38A.58.58,0,0,0,41.84,1H1.58A.5.5,0,0,0,1,1.58V56.32a.58.58,0,0,0,.18.47.52.52,0,0,0,.38.16H41.84a.56.56,0,0,0,.63-.63ZM7.56,11.46a2.47,2.47,0,0,1-.63,1.65L4.68,15.79,2.46,13.11a2.49,2.49,0,0,1-.67-1.65,1.39,1.39,0,0,1,.42-1,1.42,1.42,0,0,1,1-.42,1.21,1.21,0,0,1,1,.44,2.12,2.12,0,0,1,.48,1,2.28,2.28,0,0,1,.45-1,1.22,1.22,0,0,1,1-.44,1.43,1.43,0,0,1,1.44,1.44ZM7.28,8.3l-.57.56L6.05,8.3a2.71,2.71,0,0,1-1.37.35,2.36,2.36,0,0,1-1.87-.77,3.15,3.15,0,0,1-.63-2,3.17,3.17,0,0,1,.63-2A2.35,2.35,0,0,1,4.68,3a2.44,2.44,0,0,1,1.89.81,2.84,2.84,0,0,1,.64,1.94,4.26,4.26,0,0,1-.13,1.14,1.63,1.63,0,0,1-.44.79ZM6.12,5.84C6.12,4.59,5.64,4,4.68,4s-1.45.62-1.45,1.87S3.71,7.7,4.68,7.7a1.2,1.2,0,0,0,.59-.14l-.52-.49.59-.57.5.5A2.4,2.4,0,0,0,6.12,5.84ZM35.3,49.78H8.3V8.3h27Zm-.95-1V9.21H9.21V48.83ZM19,13.92A3.64,3.64,0,0,1,18,16.35l-3.45,4.11-3.37-4.11a5.11,5.11,0,0,1-.74-1.13,3,3,0,0,1-.28-1.3,2.26,2.26,0,0,1,.62-1.58,2,2,0,0,1,1.52-.67,1.83,1.83,0,0,1,1.53.69,3.44,3.44,0,0,1,.72,1.56,3.77,3.77,0,0,1,.71-1.56,1.78,1.78,0,0,1,1.51-.69,2.09,2.09,0,0,1,1.55.67A2.23,2.23,0,0,1,19,13.92Zm5,23.52a5.36,5.36,0,0,1-.46,2.18,6.21,6.21,0,0,1-1.21,1.79,5.64,5.64,0,0,1-1.78,1.22,5.51,5.51,0,0,1-2.18.44,5.38,5.38,0,0,1-2.21-.43.26.26,0,0,0-.14-.07l-.14-.07a3.61,3.61,0,0,1-.58-.37,2.93,2.93,0,0,1-.44-.36,8.26,8.26,0,0,1-2.9-3.66,10.76,10.76,0,0,1-.55-4.82c0-.33.08-.63.11-.91a4.74,4.74,0,0,1,.1-.74l.14-.67a.19.19,0,0,1,.21-.21h4c.21,0,.28.12.21.35l-.11.43a1.46,1.46,0,0,0-.09.42,3.47,3.47,0,0,1-.08.52A4.35,4.35,0,0,1,17.05,32a5.44,5.44,0,0,1,1.3-.16,5.65,5.65,0,0,1,2.2.44,5.72,5.72,0,0,1,1.81,1.2,5.46,5.46,0,0,1,1.21,1.77A5,5,0,0,1,24,37.44ZM16,42a14.59,14.59,0,0,1-.94-2.25,9,9,0,0,1-.35-1.87,10.82,10.82,0,0,1,.06-1.79c.07-.61.16-1.3.28-2.07a3.15,3.15,0,0,0,.07-.57,2.82,2.82,0,0,1,.07-.59l.38-1.52H12.23a27.39,27.39,0,0,0-.33,3.2,9.45,9.45,0,0,0,.32,2.85,7.11,7.11,0,0,0,1.26,2.5A8.87,8.87,0,0,0,16,42Zm.63-18.21-.39.45a.86.86,0,0,1-.67.42.77.77,0,0,1-.52-.14,1,1,0,0,1,.14.43.83.83,0,0,1-.2.52,3.29,3.29,0,0,1-.37.43v.63l1.31.07c.18,0,.28.11.28.26s-.1.23-.28.23H15.4a1.23,1.23,0,0,1,.46,1,1.5,1.5,0,0,1-.43,1.05,1.12,1.12,0,0,1-1,.39,1.5,1.5,0,0,1-1.09-.42,1.39,1.39,0,0,1-.42-1,1.33,1.33,0,0,1,.42-1h-.49c-.19,0-.28-.08-.28-.23s.09-.24.28-.26l1.3-.07v-.63c-.11-.12-.24-.26-.38-.43a.79.79,0,0,1-.21-.52.86.86,0,0,1,.14-.43.86.86,0,0,1-.43.14,1.17,1.17,0,0,1-.77-.42,1.27,1.27,0,0,1-.39-.45,2.87,2.87,0,0,1,.39-.39,3.77,3.77,0,0,1,.39-.26.72.72,0,0,1,.38-.13,1,1,0,0,1,.43.14.77.77,0,0,1-.14-.52.86.86,0,0,1,.42-.67l.45-.39.39.39.26.33a.52.52,0,0,1,.13.34.83.83,0,0,1-.14.52.83.83,0,0,1,.52-.14.52.52,0,0,1,.34.13l.33.26Zm-3.09,0a.26.26,0,0,0-.29-.29.89.89,0,0,0-.38.14l-.13.08-.12.07a.65.65,0,0,0,.25.17.9.9,0,0,0,.38.18C13.44,24.12,13.54,24,13.54,23.77Zm1.79,4.32a1,1,0,0,0-.27-.7.81.81,0,0,0-.65-.32.93.93,0,0,0-.73.32,1,1,0,0,0-.29.7.92.92,0,0,0,.29.67,1,1,0,0,0,.73.28.64.64,0,0,0,.65-.25A1,1,0,0,0,15.33,28.09ZM23,47.46c0,.14,0,.23-.07.26a.42.42,0,0,1-.35,0l-1.66-1.16q-.52.63-.75.93c-.16.2-.3.3-.42.28a.85.85,0,0,1-.48-.31c-.19-.2-.5-.5-.95-.9q-.63.6-.9.9a.77.77,0,0,1-.43.31c-.12,0-.26-.08-.43-.28s-.43-.51-.81-.93l-1.65,1.16a.33.33,0,0,1-.31,0c-.1,0-.12-.12-.07-.26.21-1.22.36-2.14.45-2.78a12.59,12.59,0,0,1,.25-1.3c.07-.23.16-.32.28-.26l.58.33a5.6,5.6,0,0,0,1.13.51,5.53,5.53,0,0,0,1.91.27A6.49,6.49,0,0,0,20.16,44a6.08,6.08,0,0,0,1.67-.84.21.21,0,0,1,.23,0c.08,0,.12.11.12.23ZM14.7,22.61a.87.87,0,0,0-.15-.32.35.35,0,0,0-.07-.12L14.41,22l-.17.25a1.44,1.44,0,0,0-.18.32c0,.25.12.38.35.38S14.7,22.86,14.7,22.61Zm0,1.16a.26.26,0,0,0-.29-.29c-.23,0-.35.1-.35.29a.31.31,0,0,0,.35.35C14.6,24.12,14.7,24,14.7,23.77Zm0,1.16a.26.26,0,0,0-.29-.29c-.23,0-.35.1-.35.29a1,1,0,0,0,.18.38.65.65,0,0,0,.17.25l.07-.12a.54.54,0,0,0,.07-.13A.81.81,0,0,0,14.7,24.93ZM21.76,43.8a5.06,5.06,0,0,1-1.6.73,8.51,8.51,0,0,1-1.88.19,7.86,7.86,0,0,1-1.79-.19,5.85,5.85,0,0,1-1.65-.73l-.57,3.1c.47-.31.81-.54,1-.7A.91.91,0,0,1,15.8,46a.56.56,0,0,1,.41.28c.14.19.37.48.7.88.44-.38.76-.66.95-.84a.8.8,0,0,1,.47-.29.79.79,0,0,1,.48.29l.91.84c.35-.4.61-.69.76-.88s.29-.28.4-.28a.84.84,0,0,1,.48.25c.2.16.52.39,1,.7Zm1.72-6.36a4.56,4.56,0,0,0-.36-2,5.17,5.17,0,0,0-4.77-3.12,4.75,4.75,0,0,0-2.64.78l-.07.17c-.14.8-.25,1.51-.35,2.15a13,13,0,0,0-.14,1.83,7.51,7.51,0,0,0,.23,1.79,12.18,12.18,0,0,0,.76,2.07,5.43,5.43,0,0,1,.28.65,2.09,2.09,0,0,0,.21.51,4,4,0,0,0,.86.23,5.53,5.53,0,0,0,.86,0,5,5,0,0,0,2-.4A5.08,5.08,0,0,0,22,41.06a5.36,5.36,0,0,0,1.09-1.63A5,5,0,0,0,23.48,37.44ZM16.14,23.77,16,23.7l-.12-.08a1,1,0,0,0-.32-.14c-.25,0-.38.1-.38.29s.13.35.38.35a1.44,1.44,0,0,0,.32-.18Zm3.23.87A5.24,5.24,0,0,0,16,26.09a.23.23,0,0,1-.36,0c-.11-.13-.09-.28.07-.44a6,6,0,0,1,1.69-1,5.14,5.14,0,0,1,2-.4c.16,0,.25,0,.25.19A.25.25,0,0,1,19.37,24.64Zm-1,14.91a.8.8,0,0,0-.31-.07h-.32a1.78,1.78,0,0,1-.53.11,2.09,2.09,0,0,1-.56-.11h-.34a1.08,1.08,0,0,0-.36.07,2.91,2.91,0,0,1,.45-.81,1.07,1.07,0,0,1,1.58,0A2,2,0,0,1,18.35,39.55Zm1.9-4.11c0,.19-.11.28-.32.28a.6.6,0,0,1-.31-.18.84.84,0,0,0-.53-.17.77.77,0,0,0-.49.17.62.62,0,0,1-.32.18.24.24,0,0,1-.28-.28.29.29,0,0,1,.14-.21,1.4,1.4,0,0,1,.32-.18,2,2,0,0,1,.37-.12.86.86,0,0,1,.26,0,2.2,2.2,0,0,1,.69.17C20.09,35.17,20.25,35.3,20.25,35.44Zm-.95,1.37q.18,0,.21.21a2.41,2.41,0,0,1,0,.54,5.66,5.66,0,0,1-.12.74c-.06.27-.11.54-.16.79s-.08.23-.25.2-.22-.15-.17-.34L19,37.37l-.49-.07c-.19,0-.28-.08-.28-.25s.09-.24.28-.24ZM32,24.86c-.05.32-.09.62-.13.89a6,6,0,0,1-.12.72l-.1.67c0,.12-.07.18-.22.18h-4c-.21,0-.28-.11-.21-.32l.11-.42a2.16,2.16,0,0,0,.1-.42,3.86,3.86,0,0,1,.11-.53,4.44,4.44,0,0,1-1.23.51,6,6,0,0,1-1.3.16,5.63,5.63,0,0,1-4-1.66,5.5,5.5,0,0,1-1.21-1.79,5,5,0,0,1-.41-2.18,5.2,5.2,0,0,1,.46-2.18A6,6,0,0,1,21,16.7a5.54,5.54,0,0,1,4-1.65,5.1,5.1,0,0,1,2.21.45.19.19,0,0,0,.14.07l.18.07.52.34a2.33,2.33,0,0,1,.46.37A8.37,8.37,0,0,1,31.43,20,10.48,10.48,0,0,1,32,24.86ZM21.9,39.55a.85.85,0,0,0-.33-.07h-.34a1.73,1.73,0,0,1-.52.11,1.78,1.78,0,0,1-.53-.11h-.35a1.15,1.15,0,0,0-.39.07,3.21,3.21,0,0,1,.46-.81.94.94,0,0,1,.77-.35,1.05,1.05,0,0,1,.83.35A1.93,1.93,0,0,1,21.9,39.55Zm5.84-14.69c.14-.8.26-1.52.35-2.15a10.45,10.45,0,0,0,.11-1.83A10.77,10.77,0,0,0,28,19.07,10.31,10.31,0,0,0,27.21,17a3.42,3.42,0,0,1-.28-.67,1.64,1.64,0,0,0-.21-.49,4.12,4.12,0,0,0-.86-.23,5.52,5.52,0,0,0-.86-.06,5.11,5.11,0,0,0-4.73,3.12,4.91,4.91,0,0,0-.41,2,4.58,4.58,0,0,0,.37,2,5.54,5.54,0,0,0,1.09,1.63A5,5,0,0,0,23,25.4a5.12,5.12,0,0,0,2,.4,4.75,4.75,0,0,0,2.67-.8Zm1.93-14.21c-.21,1.22-.36,2.15-.46,2.78a10.45,10.45,0,0,1-.24,1.3c-.07.23-.17.33-.28.28a5.24,5.24,0,0,1-.58-.31A5.87,5.87,0,0,0,27,14.19a5.57,5.57,0,0,0-1.91-.27,6.85,6.85,0,0,0-1.88.23,5.4,5.4,0,0,0-1.64.83.3.3,0,0,1-.26,0,.21.21,0,0,1-.13-.22l-.77-4.12c-.05-.14,0-.23.07-.26a.42.42,0,0,1,.35,0l1.65,1.16c.36-.42.61-.73.76-.93a.61.61,0,0,1,.44-.3c.14,0,.3.11.49.32s.49.51.92.91a8.18,8.18,0,0,0,.89-.88c.18-.21.33-.32.46-.33s.28.08.44.28.43.51.81.93l1.65-1.16a.32.32,0,0,1,.3,0C29.7,10.42,29.72,10.51,29.67,10.65Zm-.56.6c-.47.3-.81.54-1,.7a.91.91,0,0,1-.51.25c-.13,0-.26-.09-.4-.28s-.39-.48-.74-.88c-.42.37-.73.66-.92.84a.74.74,0,0,1-.49.28.76.76,0,0,1-.49-.28c-.19-.18-.49-.47-.92-.84-.35.4-.6.69-.75.88s-.29.28-.41.28A.85.85,0,0,1,22,12c-.2-.16-.52-.4-1-.7l.6,3.09a5,5,0,0,1,1.58-.75,7.76,7.76,0,0,1,1.87-.2,7.36,7.36,0,0,1,1.79.2,5.79,5.79,0,0,1,1.65.75Zm-5.2,7.35a3.14,3.14,0,0,1-.46.77.93.93,0,0,1-.77.35.94.94,0,0,1-.81-.35,2.32,2.32,0,0,1-.42-.77.78.78,0,0,0,.33.07h.33a1.78,1.78,0,0,1,.53-.11,2.09,2.09,0,0,1,.56.11h.34A1.13,1.13,0,0,0,23.91,18.6Zm1.44,4.08a.33.33,0,0,1-.14.22,1.05,1.05,0,0,1-.34.2l-.37.12a.77.77,0,0,1-.24.05,2,2,0,0,1-.67-.17c-.3-.12-.46-.26-.46-.42a.26.26,0,0,1,.28-.29.62.62,0,0,1,.32.2.75.75,0,0,0,.53.19.69.69,0,0,0,.49-.19.62.62,0,0,1,.32-.2A.26.26,0,0,1,25.35,22.68Zm2.32,9.8A5.1,5.1,0,0,1,26,33.54a5.45,5.45,0,0,1-2,.39c-.19,0-.28,0-.28-.16s.09-.24.28-.27a5.46,5.46,0,0,0,1.79-.44,5.57,5.57,0,0,0,1.58-1,.22.22,0,0,1,.35,0A.26.26,0,0,1,27.67,32.48ZM24.05,21.27a.19.19,0,0,1-.21-.19,1.44,1.44,0,0,1,0-.51,6,6,0,0,1,.12-.72c.06-.27.11-.55.16-.83s.09-.2.26-.18.24.13.19.32l-.24,1.58h.53c.18.05.28.15.28.3s-.1.23-.28.23Zm9.14,23a2.18,2.18,0,0,1-.62,1.56,2,2,0,0,1-1.53.65,1.87,1.87,0,0,1-1.53-.67,3.53,3.53,0,0,1-.72-1.54,3.5,3.5,0,0,1-.7,1.54,1.8,1.8,0,0,1-1.51.67A2.05,2.05,0,0,1,25,45.79a2.15,2.15,0,0,1-.63-1.56,3.7,3.7,0,0,1,1-2.46l3.44-4.12,3.41,4.12a4.06,4.06,0,0,1,.72,1.14A3.25,3.25,0,0,1,33.19,44.23ZM27.42,18.6a3.42,3.42,0,0,1-.44.77.86.86,0,0,1-.75.35,1,1,0,0,1-.85-.35A1.92,1.92,0,0,1,25,18.6a.76.76,0,0,0,.31.07h.32a2.09,2.09,0,0,1,.56-.11,1.78,1.78,0,0,1,.53.11h.33A1.09,1.09,0,0,0,27.42,18.6Zm3.83,15.68-.38.45a.88.88,0,0,1-.71.43.79.79,0,0,1-.49-.14.8.8,0,0,1,.14.42.76.76,0,0,1-.12.38,3.77,3.77,0,0,1-.26.39,3.59,3.59,0,0,1-.39.39,1.41,1.41,0,0,1-.46-.39,1.17,1.17,0,0,1-.42-.77A.9.9,0,0,1,28.3,35a.9.9,0,0,1-.42.14.91.91,0,0,1-.77-.43l-.39-.45.39-.39c.11-.09.24-.18.36-.26a.71.71,0,0,1,.41-.13.9.9,0,0,1,.42.14.83.83,0,0,1-.14-.52.68.68,0,0,1,.19-.44c.13-.15.25-.29.37-.41v-.73h-1.3c-.19,0-.28-.09-.28-.25s.09-.25.28-.25H28a1.19,1.19,0,0,1-.42-1A1.49,1.49,0,0,1,28,29,1.39,1.39,0,0,1,29,28.51,1.62,1.62,0,0,1,30,29a1.44,1.44,0,0,1,.41,1A1.2,1.2,0,0,1,30,31h.53c.19,0,.28.09.28.25s-.09.25-.28.25h-1.3v.73c.12.12.24.26.37.41a.68.68,0,0,1,.19.44.77.77,0,0,1-.14.52.79.79,0,0,1,.49-.14.59.59,0,0,1,.36.13l.35.26Zm-3.09,0a.24.24,0,0,0-.28-.28.8.8,0,0,0-.42.14l-.13.07-.12.07a.65.65,0,0,0,.25.17.9.9,0,0,0,.42.18C28.07,34.63,28.16,34.51,28.16,34.28Zm2.95-7.49a25.38,25.38,0,0,0,.34-3.18,9.36,9.36,0,0,0-.32-2.83,7.37,7.37,0,0,0-1.26-2.5,9.1,9.1,0,0,0-2.52-2.14,12.78,12.78,0,0,1,1,2.23,8,8,0,0,1,.35,1.86A9.17,9.17,0,0,1,28.6,22c-.08.61-.18,1.3-.3,2.08a2.82,2.82,0,0,0-.07.59,2.46,2.46,0,0,1-.07.57l-.35,1.51ZM30,30a.88.88,0,0,0-.26-.65A1.26,1.26,0,0,0,29,29a1,1,0,0,0-1,1,.91.91,0,0,0,.28.67A1,1,0,0,0,29,31a.85.85,0,0,0,.65-.28A.93.93,0,0,0,30,30Zm-.63,3.1a1,1,0,0,0-.14-.32.63.63,0,0,0-.07-.12s-.05-.08-.07-.13l-.21.25a1.44,1.44,0,0,0-.18.32c0,.26.13.38.39.38S29.32,33.38,29.32,33.12Zm0,1.16A.24.24,0,0,0,29,34c-.26,0-.39.09-.39.28s.13.35.39.35S29.32,34.51,29.32,34.28Zm0,1.16a.24.24,0,0,0-.28-.28c-.26,0-.39.09-.39.28a.9.9,0,0,0,.18.38l.21.25a.63.63,0,0,1,.07-.12s.05-.08.07-.13A.89.89,0,0,0,29.32,35.44Zm1.44-1.16-.12-.07-.12-.07a.83.83,0,0,0-.36-.14c-.23,0-.35.09-.35.28a.31.31,0,0,0,.35.35,1.08,1.08,0,0,0,.36-.18A.63.63,0,0,0,30.76,34.28Zm11,12.3A1.45,1.45,0,0,1,40.32,48a1.17,1.17,0,0,1-1-.44,2.08,2.08,0,0,1-.48-1,2.21,2.21,0,0,1-.44,1,1.15,1.15,0,0,1-1,.44A1.43,1.43,0,0,1,36,46.58a2.48,2.48,0,0,1,.67-1.65l2.21-2.64,2.25,2.64A2.48,2.48,0,0,1,41.77,46.58Zm-.36,5.63a2.72,2.72,0,0,1-.66,2,2.24,2.24,0,0,1-1.87.81A2.21,2.21,0,0,1,37,54.21a2.82,2.82,0,0,1-.67-1.93,2.67,2.67,0,0,1,.6-1.94l-.67-.56.6-.6.63.6a2.83,2.83,0,0,1,1.37-.39,2.24,2.24,0,0,1,1.87.81A2.77,2.77,0,0,1,41.41,52.21Zm-1.09,0c0-1.25-.48-1.87-1.44-1.87a1.13,1.13,0,0,0-.56.14l.49.5-.56.59-.53-.52a2.51,2.51,0,0,0-.28,1.16q0,1.86,1.44,1.86T40.32,52.21Z" style="fill: #231f20"/>
    </g>
  </g>
</svg>
