<svg xmlns="http://www.w3.org/2000/svg" viewBox="0 0 43.49 57.97">
  <g id="Layer_2" data-name="Layer 2">
    <g id="Layer_1-2" data-name="Layer 1">
      <path d="M43.49,56.32A1.62,1.62,0,0,1,41.84,58H1.58a1.43,1.43,0,0,1-1.14-.51A1.72,1.72,0,0,1,0,56.32V1.58A1.54,1.54,0,0,1,.44.44,1.54,1.54,0,0,1,1.58,0H41.84A1.71,1.71,0,0,1,43,.44a1.47,1.47,0,0,1,.49,1.14Zm-1-54.74a.52.52,0,0,0-.16-.38A.58.58,0,0,0,41.84,1H1.58A.5.5,0,0,0,1,1.58V56.32a.58.58,0,0,0,.18.47.52.52,0,0,0,.38.16H41.84a.56.56,0,0,0,.63-.63ZM7.56,11.46a2.47,2.47,0,0,1-.63,1.65L4.68,15.79,2.46,13.11a2.49,2.49,0,0,1-.67-1.65,1.39,1.39,0,0,1,.42-1,1.42,1.42,0,0,1,1-.42,1.21,1.21,0,0,1,1,.44,2.12,2.12,0,0,1,.48,1,2.28,2.28,0,0,1,.45-1,1.22,1.22,0,0,1,1-.44,1.43,1.43,0,0,1,1.44,1.44ZM6.4,6.36a1.81,1.81,0,0,1-.53,1.36,1.94,1.94,0,0,1-1.41.51A1.47,1.47,0,0,1,2.81,6.71l.95-.07a1,1,0,0,0,.16.58.58.58,0,0,0,.54.27.79.79,0,0,0,.76-.35,1.61,1.61,0,0,0,.19-.78,1.82,1.82,0,0,0-.17-.77.64.64,0,0,0-.63-.39.65.65,0,0,0-.6.27,1.67,1.67,0,0,0-.25.65H3V3H6v.74H3.83V4.85a1,1,0,0,1,.85-.39A1.57,1.57,0,0,1,5.94,5,2,2,0,0,1,6.4,6.36ZM9.11,49.92a2.65,2.65,0,0,1,.26-1.16,4.59,4.59,0,0,1,.68-1L13.15,44l3.09,3.69a4,4,0,0,1,.65,1,3.1,3.1,0,0,1,.23,1.18,1.89,1.89,0,0,1-.58,1.44,2,2,0,0,1-1.46.57,1.61,1.61,0,0,1-1.33-.62,2.76,2.76,0,0,1-.6-1.39,3.39,3.39,0,0,1-.67,1.39,1.62,1.62,0,0,1-1.34.62,2,2,0,0,1-1.42-.57A1.85,1.85,0,0,1,9.11,49.92ZM17.16,8.16a2.66,2.66,0,0,1-.27,1.16,4.59,4.59,0,0,1-.68,1l-3.1,3.69L10,10.37a3.84,3.84,0,0,1-.65-1,3,3,0,0,1-.23-1.17,1.93,1.93,0,0,1,.58-1.45,2,2,0,0,1,1.46-.56,1.64,1.64,0,0,1,1.34.62,2.83,2.83,0,0,1,.59,1.39,3.39,3.39,0,0,1,.67-1.39,1.62,1.62,0,0,1,1.34-.62,2.06,2.06,0,0,1,1.42.56A1.89,1.89,0,0,1,17.16,8.16ZM25.8,27a2.62,2.62,0,0,1-.26,1.16,4.2,4.2,0,0,1-.68,1.05l-3.1,3.7-3.09-3.7A3.47,3.47,0,0,1,17.79,27a1.89,1.89,0,0,1,.58-1.44A2,2,0,0,1,19.83,25a1.6,1.6,0,0,1,1.33.61,2.76,2.76,0,0,1,.6,1.39,3.39,3.39,0,0,1,.67-1.39A1.62,1.62,0,0,1,23.77,25a2,2,0,0,1,1.42.56A1.85,1.85,0,0,1,25.8,27Zm.64,22.92a2.8,2.8,0,0,1,.26-1.16,5,5,0,0,1,.69-1L30.48,44l3.09,3.69a3.7,3.7,0,0,1,.65,1,2.92,2.92,0,0,1,.23,1.18,1.89,1.89,0,0,1-.58,1.44,2,2,0,0,1-1.46.57,1.62,1.62,0,0,1-1.33-.62,2.76,2.76,0,0,1-.6-1.39,3.39,3.39,0,0,1-.67,1.39,1.62,1.62,0,0,1-1.33.62,2,2,0,0,1-1.43-.57A1.85,1.85,0,0,1,26.44,49.92ZM34.49,8.16a2.66,2.66,0,0,1-.27,1.16,4.59,4.59,0,0,1-.68,1l-3.09,3.69-3.1-3.69a3.84,3.84,0,0,1-.65-1,3,3,0,0,1-.23-1.17,2,2,0,0,1,.58-1.45,2,2,0,0,1,1.46-.56,1.64,1.64,0,0,1,1.34.62,2.76,2.76,0,0,1,.6,1.39,3.26,3.26,0,0,1,.66-1.39,1.64,1.64,0,0,1,1.34-.62,2.06,2.06,0,0,1,1.42.56A1.89,1.89,0,0,1,34.49,8.16Zm7.28,38.42A1.45,1.45,0,0,1,40.32,48a1.17,1.17,0,0,1-1-.44,2.08,2.08,0,0,1-.48-1,2.21,2.21,0,0,1-.44,1,1.15,1.15,0,0,1-1,.44A1.43,1.43,0,0,1,36,46.58a2.48,2.48,0,0,1,.67-1.65l2.21-2.64,2.25,2.64A2.48,2.48,0,0,1,41.77,46.58Zm-1.94,4.85a1.12,1.12,0,0,0-.17-.61.64.64,0,0,0-.57-.27.74.74,0,0,0-.72.36,1.6,1.6,0,0,0-.19.8,1.85,1.85,0,0,0,.18.78.59.59,0,0,0,.59.39.7.7,0,0,0,.64-.29,2.06,2.06,0,0,0,.24-.66h.78v3.16h-3v-.7h2.18V53.23a1.21,1.21,0,0,1-.88.35,1.57,1.57,0,0,1-1.26-.53,2,2,0,0,1-.46-1.34,1.8,1.8,0,0,1,.53-1.37,2,2,0,0,1,1.4-.49,1.47,1.47,0,0,1,1.66,1.51Z" style="fill: #ef4444"/>
    </g>
  </g>
</svg>
