<svg xmlns="http://www.w3.org/2000/svg" viewBox="0 0 43.49 57.97">
  <g id="Layer_2" data-name="Layer 2">
    <g id="Layer_1-2" data-name="Layer 1">
      <path d="M43.49,56.32A1.62,1.62,0,0,1,41.84,58H1.58a1.43,1.43,0,0,1-1.14-.51A1.72,1.72,0,0,1,0,56.32V1.58A1.54,1.54,0,0,1,.44.44,1.54,1.54,0,0,1,1.58,0H41.84A1.71,1.71,0,0,1,43,.44a1.47,1.47,0,0,1,.49,1.14Zm-1-54.74a.52.52,0,0,0-.16-.38A.58.58,0,0,0,41.84,1H1.58A.5.5,0,0,0,1,1.58V56.32a.58.58,0,0,0,.18.47.52.52,0,0,0,.38.16H41.84a.56.56,0,0,0,.63-.63ZM7.56,11.46a2.47,2.47,0,0,1-.63,1.65L4.68,15.79,2.46,13.11a2.49,2.49,0,0,1-.67-1.65,1.39,1.39,0,0,1,.42-1,1.42,1.42,0,0,1,1-.42,1.21,1.21,0,0,1,1,.44,2.12,2.12,0,0,1,.48,1,2.28,2.28,0,0,1,.45-1,1.22,1.22,0,0,1,1-.44,1.43,1.43,0,0,1,1.44,1.44ZM6.33,6.29a2,2,0,0,1-.49,1.37,1.65,1.65,0,0,1-1.3.57,1.83,1.83,0,0,1-1-.23A1.4,1.4,0,0,1,3,7.38a2.89,2.89,0,0,1-.27-.86,6.15,6.15,0,0,1-.07-1,5.12,5.12,0,0,1,.09-1,2.4,2.4,0,0,1,.32-.86,1.65,1.65,0,0,1,.61-.62,2,2,0,0,1,1-.23,1.41,1.41,0,0,1,1,.37,1.78,1.78,0,0,1,.48,1l-.85.14a2.27,2.27,0,0,0-.21-.56.52.52,0,0,0-.52-.28.73.73,0,0,0-.73.53,3.08,3.08,0,0,0-.19,1,1.39,1.39,0,0,1,1-.45,1.55,1.55,0,0,1,1.17.49A1.64,1.64,0,0,1,6.33,6.29Zm-.92.14a1.47,1.47,0,0,0-.19-.73.71.71,0,0,0-.68-.36.73.73,0,0,0-.62.32,1.2,1.2,0,0,0-.23.7,1.67,1.67,0,0,0,.21.79.74.74,0,0,0,.71.41.64.64,0,0,0,.63-.37A1.72,1.72,0,0,0,5.41,6.43Zm3.7,43.49a2.65,2.65,0,0,1,.26-1.16,4.59,4.59,0,0,1,.68-1L13.15,44l3.09,3.69a4,4,0,0,1,.65,1,3.1,3.1,0,0,1,.23,1.18,1.89,1.89,0,0,1-.58,1.44,2,2,0,0,1-1.46.57,1.61,1.61,0,0,1-1.33-.62,2.76,2.76,0,0,1-.6-1.39,3.39,3.39,0,0,1-.67,1.39,1.62,1.62,0,0,1-1.34.62,2,2,0,0,1-1.42-.57A1.85,1.85,0,0,1,9.11,49.92ZM17.16,8.16a2.66,2.66,0,0,1-.27,1.16,4.59,4.59,0,0,1-.68,1l-3.1,3.69L10,10.37a3.84,3.84,0,0,1-.65-1,3,3,0,0,1-.23-1.17,1.93,1.93,0,0,1,.58-1.45,2,2,0,0,1,1.46-.56,1.64,1.64,0,0,1,1.34.62,2.83,2.83,0,0,1,.59,1.39,3.39,3.39,0,0,1,.67-1.39,1.62,1.62,0,0,1,1.34-.62,2.06,2.06,0,0,1,1.42.56A1.89,1.89,0,0,1,17.16,8.16Zm0,18.84a2.63,2.63,0,0,1-.27,1.16,4.2,4.2,0,0,1-.68,1.05l-3.1,3.7L10,29.21a3.79,3.79,0,0,1-.65-1A3.1,3.1,0,0,1,9.14,27a1.89,1.89,0,0,1,.58-1.44A2,2,0,0,1,11.18,25a1.63,1.63,0,0,1,1.34.61A2.83,2.83,0,0,1,13.11,27a3.39,3.39,0,0,1,.67-1.39A1.62,1.62,0,0,1,15.12,25a2,2,0,0,1,1.42.56A1.85,1.85,0,0,1,17.16,27Zm9.28,22.92a2.8,2.8,0,0,1,.26-1.16,5,5,0,0,1,.69-1L30.48,44l3.09,3.69a3.7,3.7,0,0,1,.65,1,2.92,2.92,0,0,1,.23,1.18,1.89,1.89,0,0,1-.58,1.44,2,2,0,0,1-1.46.57,1.62,1.62,0,0,1-1.33-.62,2.76,2.76,0,0,1-.6-1.39,3.39,3.39,0,0,1-.67,1.39,1.62,1.62,0,0,1-1.33.62,2,2,0,0,1-1.43-.57A1.85,1.85,0,0,1,26.44,49.92ZM34.49,8.16a2.66,2.66,0,0,1-.27,1.16,4.59,4.59,0,0,1-.68,1l-3.09,3.69-3.1-3.69a3.84,3.84,0,0,1-.65-1,3,3,0,0,1-.23-1.17,2,2,0,0,1,.58-1.45,2,2,0,0,1,1.46-.56,1.64,1.64,0,0,1,1.34.62,2.76,2.76,0,0,1,.6,1.39,3.26,3.26,0,0,1,.66-1.39,1.64,1.64,0,0,1,1.34-.62,2.06,2.06,0,0,1,1.42.56A1.89,1.89,0,0,1,34.49,8.16Zm0,18.84a2.63,2.63,0,0,1-.27,1.16,4.2,4.2,0,0,1-.68,1.05l-3.09,3.7-3.1-3.7a3.79,3.79,0,0,1-.65-1A3.1,3.1,0,0,1,26.47,27a1.93,1.93,0,0,1,.58-1.44A2,2,0,0,1,28.51,25a1.63,1.63,0,0,1,1.34.61,2.76,2.76,0,0,1,.6,1.39,3.26,3.26,0,0,1,.66-1.39A1.63,1.63,0,0,1,32.45,25a2,2,0,0,1,1.42.56A1.85,1.85,0,0,1,34.49,27Zm7.28,19.58A1.45,1.45,0,0,1,40.32,48a1.17,1.17,0,0,1-1-.44,2.08,2.08,0,0,1-.48-1,2.21,2.21,0,0,1-.44,1,1.15,1.15,0,0,1-1,.44A1.43,1.43,0,0,1,36,46.58a2.48,2.48,0,0,1,.67-1.65l2.21-2.64,2.25,2.64A2.48,2.48,0,0,1,41.77,46.58Zm-.88,5.91a5.23,5.23,0,0,1-.09,1,2.78,2.78,0,0,1-.32.86,1.78,1.78,0,0,1-.61.61,2,2,0,0,1-1,.23,1.41,1.41,0,0,1-1.51-1.37l.88-.14a4.89,4.89,0,0,0,.19.58.5.5,0,0,0,.51.3.74.74,0,0,0,.76-.55,2.85,2.85,0,0,0,.19-1,1.39,1.39,0,0,1-1,.42,1.64,1.64,0,0,1-1.65-1.65,2,2,0,0,1,.49-1.38,1.66,1.66,0,0,1,1.3-.56,1.86,1.86,0,0,1,1,.23,1.47,1.47,0,0,1,.56.6,2.67,2.67,0,0,1,.27.84A7.77,7.77,0,0,1,40.89,52.49Zm-1-.78a1.61,1.61,0,0,0-.23-.8.75.75,0,0,0-.72-.43.59.59,0,0,0-.59.39,1.84,1.84,0,0,0-.18.77,1.55,1.55,0,0,0,.18.73.67.67,0,0,0,.66.33.8.8,0,0,0,.64-.3A1.07,1.07,0,0,0,39.9,51.71Z" style="fill: #231f20"/>
    </g>
  </g>
</svg>
