<svg xmlns="http://www.w3.org/2000/svg" viewBox="0 0 43.49 57.97">
  <g id="Layer_2" data-name="Layer 2">
    <g id="Layer_1-2" data-name="Layer 1">
      <path d="M43.49,56.32A1.64,1.64,0,0,1,43,57.46a1.57,1.57,0,0,1-1.16.51H1.58a1.48,1.48,0,0,1-1.11-.51A1.66,1.66,0,0,1,0,56.32V1.58A1.55,1.55,0,0,1,.47.47,1.55,1.55,0,0,1,1.58,0H41.84A1.65,1.65,0,0,1,43,.47a1.53,1.53,0,0,1,.49,1.11Zm-1-54.74a.46.46,0,0,0-.21-.42A.78.78,0,0,0,41.84,1H1.58a.51.51,0,0,0-.38.18A.51.51,0,0,0,1,1.58V56.32a.78.78,0,0,0,.14.42.46.46,0,0,0,.42.21H41.84a.56.56,0,0,0,.63-.63Zm-5.8,25.35a1.66,1.66,0,0,1-.56,1.28,1.87,1.87,0,0,1-2.57,0A1.63,1.63,0,0,1,33,26.93a1.8,1.8,0,0,1,.28-1,1.65,1.65,0,0,1,.74-.67,3.88,3.88,0,0,0-.79-1.85,2.23,2.23,0,0,0-1.82-.75,2.55,2.55,0,0,0-1.56.47,4.19,4.19,0,0,0-1.09,1.2,6.85,6.85,0,0,0-.69,1.56,15.64,15.64,0,0,0-.38,1.62,2.33,2.33,0,0,1,.79,1.23,5.84,5.84,0,0,1,.19,1.51A11.09,11.09,0,0,1,28,33.89a19.13,19.13,0,0,1-1.64,3.53,28.72,28.72,0,0,1-2.21,3.26c-.81,1-1.61,2-2.41,2.81-.75-.85-1.53-1.79-2.34-2.83a28.67,28.67,0,0,1-2.19-3.27,20.28,20.28,0,0,1-1.62-3.52,10.88,10.88,0,0,1-.63-3.6,5.45,5.45,0,0,1,.21-1.51,2.27,2.27,0,0,1,.88-1.23,13.74,13.74,0,0,0-.41-1.62,6.88,6.88,0,0,0-.7-1.56,4,4,0,0,0-1.11-1.2,2.68,2.68,0,0,0-1.62-.47,2.07,2.07,0,0,0-1.74.79,4.28,4.28,0,0,0-.82,1.81,2,2,0,0,1,.89.7,1.66,1.66,0,0,1,.37,1,1.87,1.87,0,0,1-.54,1.34,1.78,1.78,0,0,1-1.32.56,1.72,1.72,0,0,1-1.27-.56A1.9,1.9,0,0,1,7.28,27a1.66,1.66,0,0,1,.42-1.12,2,2,0,0,1,1.09-.67,6.29,6.29,0,0,1,.47-1.43,5.72,5.72,0,0,1,.85-1.3,4.53,4.53,0,0,1,1.18-.95,3,3,0,0,1,1.47-.37,4.08,4.08,0,0,1,1.79.41,6.49,6.49,0,0,1,1.57,1A10,10,0,0,1,17.42,24a13.47,13.47,0,0,1,1,1.5.92.92,0,0,1,0-.25.6.6,0,0,0,.06-.24,5.57,5.57,0,0,0-.44-2,10.75,10.75,0,0,0-1.16-2.16,7.91,7.91,0,0,0-1.64-1.76,3,3,0,0,0-1.83-.72c-.39,0-.79,0-1.19.05a2,2,0,0,0-1.09.44,1.83,1.83,0,0,1-.4,2,1.77,1.77,0,0,1-1.25.53,1.91,1.91,0,0,1-1.34-.53,1.72,1.72,0,0,1-.56-1.3,1.81,1.81,0,0,1,.56-1.3,1.85,1.85,0,0,1,1.34-.56,1.47,1.47,0,0,1,.61.14,2.89,2.89,0,0,1,.58.35,4.2,4.2,0,0,1,1.64-.91A6.49,6.49,0,0,1,14.27,17a4.54,4.54,0,0,1,2.53.7,7,7,0,0,1,1.87,1.77,10.27,10.27,0,0,1,1.26,2.39,16,16,0,0,1,.74,2.55,28.18,28.18,0,0,0,.63-5.9,14.21,14.21,0,0,0-.24-2.6,19.33,19.33,0,0,0-.67-2.54.87.87,0,0,1-.33.13l-.34,0a1.89,1.89,0,0,1-1.3-.51,1.68,1.68,0,0,1-.56-1.29,1.81,1.81,0,0,1,.56-1.32,1.83,1.83,0,0,1,1.3-.54,1.88,1.88,0,0,1,1.83,1.86,2,2,0,0,1-.39,1.09,5.93,5.93,0,0,1,1.2,1.71,9.82,9.82,0,0,1,.7,2,14.34,14.34,0,0,1,.34,2.18c.06.73.08,1.44.08,2.12s0,1.19-.08,1.8-.13,1.21-.2,1.82A20.57,20.57,0,0,1,23.91,22a10.55,10.55,0,0,1,1.19-2.43,6.74,6.74,0,0,1,1.79-1.82,4.35,4.35,0,0,1,2.5-.72,7.75,7.75,0,0,1,1.64.17,4.07,4.07,0,0,1,1.52.67,1.87,1.87,0,0,1,2.83-.23,1.69,1.69,0,0,1,.55,1.25,1.86,1.86,0,0,1-1.86,1.86,1.74,1.74,0,0,1-1.36-.63,1.68,1.68,0,0,1-.44-1.37,1.68,1.68,0,0,0-.88-.32l-.94,0a3.56,3.56,0,0,0-2.17.72,6.69,6.69,0,0,0-1.65,1.81,9,9,0,0,0-1.05,2.32,7.75,7.75,0,0,0-.37,2.25A15.86,15.86,0,0,1,26.26,24a10.27,10.27,0,0,1,1.34-1.38,7,7,0,0,1,1.58-1A4.08,4.08,0,0,1,31,21.16a2.85,2.85,0,0,1,1.44.36,3.85,3.85,0,0,1,1.13.93,5.14,5.14,0,0,1,.81,1.28,8.75,8.75,0,0,1,.49,1.41,1.8,1.8,0,0,1,1.27.54A1.7,1.7,0,0,1,36.67,26.93ZM28,30.48a2.87,2.87,0,0,0-.7-2.14,3.06,3.06,0,0,0-2.18-.67,3.23,3.23,0,0,0-1.55.42,7.9,7.9,0,0,1-1.48.63,7.73,7.73,0,0,1-1.56-.63A3.27,3.27,0,0,0,19,27.67a2.55,2.55,0,0,0-2.88,2.88,9,9,0,0,0,.56,3A20.92,20.92,0,0,0,18,36.77a28.73,28.73,0,0,0,1.84,3c.67,1,1.3,1.79,1.88,2.49a30.5,30.5,0,0,0,1.95-2.44,32.24,32.24,0,0,0,2-3.09,23.36,23.36,0,0,0,1.59-3.27A8.46,8.46,0,0,0,28,30.48Zm-6.79.35a3.19,3.19,0,0,1-.42,1.39,1.29,1.29,0,0,1-1.23.62,1.89,1.89,0,0,1-.93-.23,2.2,2.2,0,0,1-.69-.6,3.31,3.31,0,0,1-.45-.83,6.33,6.33,0,0,1-.28-.91,3.7,3.7,0,0,0,1.95.63A14,14,0,0,0,21.16,30.83Zm3.77,4c-.1.4-.21.81-.34,1.22a3.87,3.87,0,0,1-.53,1.1,2.67,2.67,0,0,1-.86.81,2.48,2.48,0,0,1-1.3.32A2.69,2.69,0,0,1,20.58,38a2.3,2.3,0,0,1-.82-.76,3.74,3.74,0,0,1-.49-1.05c-.12-.39-.23-.79-.32-1.21a2.15,2.15,0,0,0,1.19,1,4.31,4.31,0,0,0,1.78.3,5,5,0,0,0,1.78-.4A2.52,2.52,0,0,0,24.93,34.8Zm1.93-4.53a8.85,8.85,0,0,1-.35.83,4.67,4.67,0,0,1-.51.82,2.83,2.83,0,0,1-.69.65,1.45,1.45,0,0,1-.84.27,1.3,1.3,0,0,1-1.21-.62,3.08,3.08,0,0,1-.44-1.39A7.61,7.61,0,0,0,24.4,31a5.14,5.14,0,0,0,1.3-.16A3.16,3.16,0,0,0,26.86,30.27Z" style="fill: #231f20"/>
    </g>
  </g>
</svg>
