<svg xmlns="http://www.w3.org/2000/svg" viewBox="0 0 43.49 57.97">
  <g id="Layer_2" data-name="Layer 2">
    <g id="Layer_1-2" data-name="Layer 1">
      <path d="M43.49,56.32A1.62,1.62,0,0,1,41.84,58H1.58a1.43,1.43,0,0,1-1.14-.51A1.72,1.72,0,0,1,0,56.32V1.58A1.54,1.54,0,0,1,.44.44,1.54,1.54,0,0,1,1.58,0H41.84A1.71,1.71,0,0,1,43,.44a1.47,1.47,0,0,1,.49,1.14Zm-1-54.74a.52.52,0,0,0-.16-.38A.58.58,0,0,0,41.84,1H1.58A.5.5,0,0,0,1,1.58V56.32a.58.58,0,0,0,.18.47.52.52,0,0,0,.38.16H41.84a.56.56,0,0,0,.63-.63Zm-7.63,48.2H8.72V8.3H34.84Zm-1-5.9V34.21L30.9,39l-3-5,3-5,3,4.82V24.29l-3,4.82-3-5,3-5,3,4.82V14.34l-3,4.82-3-5,3-5h-6l3,5-3,5-3-5,3-5h-6l3,5-3.09,5-3-5,3-5h-6l3,5-3,5L9.74,14.27V24l2.95-4.82,3,5-3,5L9.74,24.19v9.74l2.95-4.82,3,5-3,5L9.74,34.14v9.74L12.69,39l3,5-3,4.81h5.91l-3-4.81,3-5,3.09,5-2.95,4.81h5.91l-3-4.81,3-5,3,5-2.95,4.81h5.9L27.88,44l3-5ZM12.69,9.21H9.74v4.85Zm-.07,39.62L9.74,44.09v4.74Zm9.21-24.71-3.09,5-3-5,3-5Zm0,10-3.09,5-3-5,3-5Zm6.05-9.95-3,5-3-5,3-5Zm0,10-3,5-3-5,3-5Zm6-20.08V9.21H31Zm0,34.84V44.16L31,48.83Z" fill="#ef4444"/>
    </g>
  </g>
</svg>
