<svg xmlns="http://www.w3.org/2000/svg" viewBox="0 0 43.49 57.97">
  <g id="Layer_2" data-name="Layer 2">
    <g id="Layer_1-2" data-name="Layer 1">
      <path d="M43.49,56.32A1.62,1.62,0,0,1,41.84,58H1.58a1.43,1.43,0,0,1-1.14-.51A1.72,1.72,0,0,1,0,56.32V1.58A1.54,1.54,0,0,1,.44.44,1.54,1.54,0,0,1,1.58,0H41.84A1.71,1.71,0,0,1,43,.44a1.47,1.47,0,0,1,.49,1.14Zm-1-54.74a.52.52,0,0,0-.16-.38A.58.58,0,0,0,41.84,1H1.58A.5.5,0,0,0,1,1.58V56.32a.58.58,0,0,0,.18.47.52.52,0,0,0,.38.16H41.84a.56.56,0,0,0,.63-.63ZM6.64,12.9a1,1,0,0,1-.26.72.85.85,0,0,1-.68.3.71.71,0,0,1-.55-.23,1.4,1.4,0,0,1-.33-.51H4.68a5.19,5.19,0,0,0,.05.74,1.57,1.57,0,0,0,.23.7H4.25a1.57,1.57,0,0,0,.23-.7,5.35,5.35,0,0,0,.06-.74H4.39a1.49,1.49,0,0,1-.31.51.67.67,0,0,1-.53.23.85.85,0,0,1-.7-.3,1.07,1.07,0,0,1-.25-.72A1.64,1.64,0,0,1,3,11.81c.31-.35.6-.69.86-1a11.54,11.54,0,0,0,.73-1c.23.35.48.7.73,1s.52.69.78,1a2.62,2.62,0,0,1,.37.49A1.27,1.27,0,0,1,6.64,12.9Zm-.52-6A1.5,1.5,0,0,1,4.46,8.65c-1.14,0-1.72-.67-1.72-2V6.5h1v.14c0,.71.21,1.06.63,1.06s.67-.26.67-.77V3.27H6.12ZM35.3,49.78H8.3V8.3h27Zm-.95-1V9.21H9.21V48.83ZM12.23,31.46a21.2,21.2,0,0,1,.57,2.92,16.5,16.5,0,0,1,.07,2.55,6.1,6.1,0,0,1-.57,2.34,4.2,4.2,0,0,0-.4.95.56.56,0,0,1-.58.46.57.57,0,0,1-.61-.46,8.42,8.42,0,0,0-.34-.95,5.48,5.48,0,0,1-.63-2.34,14.33,14.33,0,0,1,.07-2.55c0-.47.11-.94.19-1.42s.18-1,.3-1.5H9.81c-.19,0-.28-.08-.28-.24s.09-.25.28-.25h.49a1.19,1.19,0,0,1-.42-1,1.32,1.32,0,0,1,.49-1.05V26.72c0-.19.07-.28.21-.28H12a.24.24,0,0,1,.28.28V28.9A1.22,1.22,0,0,1,12.83,30a1.16,1.16,0,0,1-.45,1h.52c.19,0,.28.09.28.25s-.09.24-.28.24Zm-.49,7.7a4.76,4.76,0,0,0,.65-2.23,14.37,14.37,0,0,0-.05-2.55A12,12,0,0,0,12.11,33c-.1-.48-.23-1-.37-1.5h-1a21.17,21.17,0,0,0-.56,2.92c-.05.4-.08.82-.11,1.25a10.9,10.9,0,0,0,0,1.28,7.76,7.76,0,0,0,.21,1.22,4,4,0,0,0,.44,1,1.08,1.08,0,0,1,.21.5.28.28,0,0,0,.32.24q.29,0,.3-.24A1.52,1.52,0,0,1,11.74,39.16Zm6.33-22.07a2.2,2.2,0,0,1-.46,1.4,1.57,1.57,0,0,1-1.33.6,1.4,1.4,0,0,1-1.09-.47,3.66,3.66,0,0,1-.64-1h-.28a13.91,13.91,0,0,0,.09,1.49,3,3,0,0,0,.48,1.39H13.39a3,3,0,0,0,.48-1.39A13.91,13.91,0,0,0,14,17.58h-.28a3.44,3.44,0,0,1-.64,1,1.4,1.4,0,0,1-1.09.47,1.57,1.57,0,0,1-1.33-.6,2.2,2.2,0,0,1-.46-1.4A3.34,3.34,0,0,1,11,14.77l1.62-2a17.5,17.5,0,0,0,1.47-2.13,14,14,0,0,0,1.44,2.11c.54.66,1.09,1.33,1.66,2A3.36,3.36,0,0,1,18.07,17.09ZM12.3,30a1,1,0,0,0-.26-.68.82.82,0,0,0-.65-.3,1,1,0,0,0-.74.3,1,1,0,0,0-.28.68.91.91,0,0,0,.28.67,1,1,0,0,0,.74.28.83.83,0,0,0,.65-.28A.93.93,0,0,0,12.3,30Zm-.49-3h-1v1.65a1.1,1.1,0,0,1,.53-.14.9.9,0,0,1,.42.14ZM24.19,37.37a5.51,5.51,0,0,1-.44,2.18,5.8,5.8,0,0,1-1.2,1.79A5.45,5.45,0,0,1,18.6,43a3.24,3.24,0,0,1-2.45-1,6,6,0,0,1-1.38-2.43.06.06,0,0,0-.07-.07l-1.45-2a.33.33,0,0,1,0-.33.25.25,0,0,1,.24-.16l1.09-.21A7.84,7.84,0,0,1,14.89,35a5.71,5.71,0,0,1,.75-1.55l-.24-1.65c0-.19.09-.28.26-.28s.27.09.27.28l.14,1.13a2,2,0,0,1,.42-.36l-.21-.94c-.07-.19,0-.3.12-.32a.25.25,0,0,1,.3.17l.21.74a1.37,1.37,0,0,0,.46-.21l-.21-.67c-.1-.14-.06-.24.1-.31s.27,0,.32.17l.28.67.37,0a1.61,1.61,0,0,1,.37,0,5.39,5.39,0,0,1,2.14.44,5.59,5.59,0,0,1,1.78,1.2,5.79,5.79,0,0,1,1.21,1.77A5.36,5.36,0,0,1,24.19,37.37ZM19.37,24.43c-.61.12-1.16.24-1.65.37a7.65,7.65,0,0,0-1.39.51,10.39,10.39,0,0,0-2.58,1.83.25.25,0,1,1-.36-.35,16,16,0,0,1,1.38-1.11,10.49,10.49,0,0,1,1.35-.81,9.4,9.4,0,0,1,1.46-.56,15.7,15.7,0,0,1,1.72-.4c.14-.05.23,0,.28.19S19.56,24.39,19.37,24.43Zm5.7,22.29A.3.3,0,0,1,25,47a.13.13,0,0,1-.19,0l-2-.21L21,46.6c-.65-.06-1.24-.09-1.78-.09s-1.12,0-1.74.09l-1.78.16-2,.21a.14.14,0,0,1-.2,0,.3.3,0,0,1-.09-.23l.29-5.66c0-.18.12-.29.22-.31s.21,0,.3.24a4.89,4.89,0,0,0,5,3.17,6.44,6.44,0,0,0,3.08-.83,5,5,0,0,0,2-2.34c.09-.19.19-.27.28-.24s.15.13.17.31ZM23.7,37.37a5,5,0,0,0-.41-2,4.93,4.93,0,0,0-1.11-1.61,5.39,5.39,0,0,0-1.61-1.09,4.83,4.83,0,0,0-2-.41,1.26,1.26,0,0,0-.28,0,1.58,1.58,0,0,1-.32,0l.14.28c.07.19,0,.31-.14.36a.27.27,0,0,1-.35-.14l-.07-.36-.28.11a.71.71,0,0,0-.21.11l.07.49q.06.29-.18.33a.28.28,0,0,1-.35-.16v-.31a4.72,4.72,0,0,0-1.16,1.61,5.29,5.29,0,0,0-.42,2.15v.35l-1.16.28,1.37,1.83a1,1,0,0,0,.07.28,4.29,4.29,0,0,0,1.11,2.09,2.83,2.83,0,0,0,2.16.86,4.82,4.82,0,0,0,2-.4,5.35,5.35,0,0,0,2.72-2.74A5,5,0,0,0,23.7,37.37ZM24.26,42a4.88,4.88,0,0,1-2.08,2,7.4,7.4,0,0,1-2.95.69A5.87,5.87,0,0,1,16.35,44a5.29,5.29,0,0,1-2.08-2L14,46.44l.95-.1,1.37-.16c.49-.06,1-.1,1.53-.13l1.42,0,1.46.09,1.55.1c.5,0,1,.08,1.38.13l.95.1Zm-6-3.66a1.88,1.88,0,0,1-.39.83,1.11,1.11,0,0,1-1.58,0,2.54,2.54,0,0,1-.45-.83,3.61,3.61,0,0,0,1.24.18A3.07,3.07,0,0,0,18.28,38.32ZM29.81,17c0,.18-.12.29-.21.31s-.19-.06-.28-.24a4.9,4.9,0,0,0-5-3.24,5.12,5.12,0,0,0-5,3.24c-.09.18-.18.27-.26.24s-.14-.13-.16-.31l-.35-5.7a.26.26,0,0,1,.09-.19.13.13,0,0,1,.19,0c.33.05.65.08,1,.1l1,.08,1.79.12c.63,0,1.22.05,1.76.05l1.74,0c.62,0,1.21-.06,1.77-.11l2-.21a.14.14,0,0,1,.2,0,.29.29,0,0,1,.08.19ZM29.6,11.6l-1,.11-1.37.12q-.74.06-1.53.09l-1.42,0-1.46-.07c-.53,0-1-.05-1.55-.09L20,11.69,19,11.6l.28,4.47a5.58,5.58,0,0,1,5-2.75,5.29,5.29,0,0,1,5,2.75Zm.7,9a.33.33,0,0,1,0,.34.26.26,0,0,1-.25.15L29,21.34a8.43,8.43,0,0,1-.33,1.76A5.53,5.53,0,0,1,28,24.64l.21,1.66c0,.18-.08.28-.25.28s-.24-.1-.24-.28l-.14-1.16-.46.35.21,1c.07.19,0,.29-.12.31a.24.24,0,0,1-.3-.17l-.21-.7-.42.21.21.63c.07.14,0,.24-.14.32s-.27,0-.32-.18l-.28-.63a2,2,0,0,0-.35,0,1.45,1.45,0,0,1-.35,0,5.44,5.44,0,0,1-2.15-.44,5.89,5.89,0,0,1-3-3,5.17,5.17,0,0,1-.46-2.18,5.51,5.51,0,0,1,.44-2.18,5.66,5.66,0,0,1,3-3A5.31,5.31,0,0,1,25,15.05a3.18,3.18,0,0,1,2.42,1,5.88,5.88,0,0,1,1.37,2.48.07.07,0,0,0,.07.07Zm-.63,0L28.3,18.81a1,1,0,0,0-.07-.28,4.37,4.37,0,0,0-1.11-2.09A2.8,2.8,0,0,0,25,15.57,4.92,4.92,0,0,0,23,16a5.24,5.24,0,0,0-1.63,1.09,5,5,0,0,0-1.11,1.62,5,5,0,0,0,0,4,5.24,5.24,0,0,0,1.11,1.63A5.12,5.12,0,0,0,23,25.4a4.91,4.91,0,0,0,2,.4.57.57,0,0,0,.24-.05,1.07,1.07,0,0,1,.32-.05l-.14-.28c-.07-.19,0-.31.14-.35a.26.26,0,0,1,.35.14l.07.35.3-.11a.67.67,0,0,0,.23-.1l-.07-.49c-.05-.19,0-.3.16-.32a.29.29,0,0,1,.33.17V25a4.56,4.56,0,0,0,1.16-1.57,5.2,5.2,0,0,0,.42-2.16v-.39Zm.49,10.65a17.07,17.07,0,0,1-1.35,1.11,9.41,9.41,0,0,1-1.35.83,9.1,9.1,0,0,1-1.48.58,14.32,14.32,0,0,1-1.72.37c-.14,0-.24,0-.28-.18s0-.27.21-.32c.58-.14,1.13-.28,1.63-.42a9.35,9.35,0,0,0,1.41-.51A8,8,0,0,0,28.51,32a10.78,10.78,0,0,0,1.3-1.07.23.23,0,0,1,.35,0A.22.22,0,0,1,30.16,31.25ZM27.74,19.72a4.06,4.06,0,0,0-1.27-.17,3.37,3.37,0,0,0-1.19.17,1.8,1.8,0,0,1,.38-.81,1.08,1.08,0,0,1,.85-.31,1,1,0,0,1,.77.31A2.42,2.42,0,0,1,27.74,19.72ZM33.4,41a3.32,3.32,0,0,1-.85,2.29l-1.63,2a14.61,14.61,0,0,0-1.46,2.13A17.55,17.55,0,0,0,28,45.28l-1.63-2A3.32,3.32,0,0,1,25.49,41,2.29,2.29,0,0,1,26,39.57,1.59,1.59,0,0,1,27.28,39a1.36,1.36,0,0,1,1.09.5,4.22,4.22,0,0,1,.67,1h.28A10.4,10.4,0,0,0,29.21,39a3.15,3.15,0,0,0-.49-1.41h1.44A3.14,3.14,0,0,0,29.69,39a14,14,0,0,0-.09,1.47h.28a3.4,3.4,0,0,1,.65-1,1.4,1.4,0,0,1,1.08-.5,1.55,1.55,0,0,1,1.33.62A2.28,2.28,0,0,1,33.4,41Zm-.14-13.92a1.22,1.22,0,0,1,.45,1,1.38,1.38,0,0,1-.15.62,1.79,1.79,0,0,1-.37.47v2.14c0,.19-.07.29-.21.29H31.54a.26.26,0,0,1-.29-.29V29.18a1.38,1.38,0,0,1-.49-1.09,1.33,1.33,0,0,1,.42-1h-.49c-.19,0-.28-.08-.28-.25s.09-.24.28-.24l.63-.07a17.41,17.41,0,0,1-.52-2.85,14.75,14.75,0,0,1-.09-2.51,5.2,5.2,0,0,1,.61-2.34,6.61,6.61,0,0,0,.34-1,.65.65,0,0,1,1-.35.92.92,0,0,1,.23.33,3.85,3.85,0,0,1,.16.48,1.72,1.72,0,0,0,.21.51,5.77,5.77,0,0,1,.6,2.34,15.92,15.92,0,0,1-.07,2.51,25.08,25.08,0,0,1-.53,2.85l.53.07c.18,0,.28.08.28.24s-.1.25-.28.25Zm-.49-.56a18.68,18.68,0,0,0,.56-2.85,14.8,14.8,0,0,0,.07-2.51,5,5,0,0,0-.63-2.27.79.79,0,0,1-.2-.48c0-.17-.11-.26-.3-.26a.28.28,0,0,0-.31.26,1.69,1.69,0,0,1-.14.48,4.78,4.78,0,0,0-.69,2.27,11.53,11.53,0,0,0,.09,2.51c.07.47.15.94.24,1.42s.22,1,.36,1.43Zm.42,1.58a1,1,0,0,0-.27-.7.81.81,0,0,0-.65-.32.93.93,0,0,0-.73.32,1,1,0,0,0-.29.7.92.92,0,0,0,.29.67,1,1,0,0,0,.73.28.83.83,0,0,0,.65-.28A.94.94,0,0,0,33.19,28.09Zm-.49,1.37a1.33,1.33,0,0,1-.43.07,1.56,1.56,0,0,1-.52-.07V31h1ZM41,45.14a1.64,1.64,0,0,1-.42,1.09c-.29.38-.57.73-.85,1.06A6,6,0,0,0,39,48.34a8.55,8.55,0,0,0-.72-1.09l-.79-1a2,2,0,0,1-.35-.47,1.35,1.35,0,0,1-.14-.62,1,1,0,0,1,.25-.7.81.81,0,0,1,.66-.28.77.77,0,0,1,.57.21,1.32,1.32,0,0,1,.31.49h.14a5.19,5.19,0,0,0-.05-.74,1.75,1.75,0,0,0-.23-.7h.7a1.75,1.75,0,0,0-.22.7,5.35,5.35,0,0,0-.06.74h.14a1.28,1.28,0,0,1,.34-.49.76.76,0,0,1,.54-.21.83.83,0,0,1,.67.28A1.05,1.05,0,0,1,41,45.14Zm-.14,6.43h-1v-.14c0-.72-.22-1.09-.67-1.09s-.63.26-.63.78v3.69H37.44V51.12c0-1.15.55-1.73,1.65-1.73s1.73.68,1.73,2Z" style="fill: #231f20"/>
    </g>
  </g>
</svg>
