<svg xmlns="http://www.w3.org/2000/svg" viewBox="0 0 43.49 57.97">
  <g id="Layer_2" data-name="Layer 2">
    <g id="Layer_1-2" data-name="Layer 1">
      <path d="M43.49,56.32A1.62,1.62,0,0,1,41.84,58H1.58a1.43,1.43,0,0,1-1.14-.51A1.72,1.72,0,0,1,0,56.32V1.58A1.54,1.54,0,0,1,.44.44,1.54,1.54,0,0,1,1.58,0H41.84A1.71,1.71,0,0,1,43,.44a1.47,1.47,0,0,1,.49,1.14Zm-1-54.74a.52.52,0,0,0-.16-.38A.58.58,0,0,0,41.84,1H1.58A.5.5,0,0,0,1,1.58V56.32a.58.58,0,0,0,.18.47.52.52,0,0,0,.38.16H41.84a.56.56,0,0,0,.63-.63ZM7.21,8.23H6L5.62,7.14H3.69L3.3,8.23H2.18L4,3h1.3ZM6.64,12.9a1,1,0,0,1-.26.72.85.85,0,0,1-.68.3.71.71,0,0,1-.55-.23,1.4,1.4,0,0,1-.33-.51H4.68a5.19,5.19,0,0,0,.05.74,1.57,1.57,0,0,0,.23.7H4.25a1.57,1.57,0,0,0,.23-.7,5.35,5.35,0,0,0,.06-.74H4.39a1.49,1.49,0,0,1-.31.51.67.67,0,0,1-.53.23.85.85,0,0,1-.7-.3,1.07,1.07,0,0,1-.25-.72A1.64,1.64,0,0,1,3,11.81c.31-.35.6-.69.86-1a11.54,11.54,0,0,0,.73-1c.23.35.48.7.73,1s.52.69.78,1a2.62,2.62,0,0,1,.37.49A1.27,1.27,0,0,1,6.64,12.9ZM5.34,6.19,4.68,4.11,4,6.19Zm22.4,24.92A3.31,3.31,0,0,1,27,33.22a2.44,2.44,0,0,1-2,.92,2,2,0,0,1-1.6-.71,5.35,5.35,0,0,1-.94-1.51H22c0,.33,0,.69,0,1.07a9.59,9.59,0,0,0,.11,1.18,5.92,5.92,0,0,0,.26,1.14,2.71,2.71,0,0,0,.46.9H20.67a2.71,2.71,0,0,0,.46-.9,6.77,6.77,0,0,0,.26-1.14c.06-.4.1-.79.13-1.18s0-.74,0-1.07h-.46a5.1,5.1,0,0,1-.93,1.51,2,2,0,0,1-1.56.71,2.42,2.42,0,0,1-2-.92,3.35,3.35,0,0,1-.7-2.11,4.49,4.49,0,0,1,.35-1.81,6.34,6.34,0,0,1,.95-1.56c.82-1.06,1.64-2.07,2.46-3a18.39,18.39,0,0,0,2.14-3.15A28.11,28.11,0,0,0,24,24.71l2.41,3a7.55,7.55,0,0,1,1,1.56A4.2,4.2,0,0,1,27.74,31.11ZM41.41,49.85l-1.86,5.24h-1.3l-1.9-5.24h1.23l.35,1.06h2l.35-1.06ZM41,45.14a1.64,1.64,0,0,1-.42,1.09c-.29.38-.57.73-.85,1.06A6,6,0,0,0,39,48.34a8.55,8.55,0,0,0-.72-1.09l-.79-1a2,2,0,0,1-.35-.47,1.35,1.35,0,0,1-.14-.62,1,1,0,0,1,.25-.7.81.81,0,0,1,.66-.28.77.77,0,0,1,.57.21,1.32,1.32,0,0,1,.31.49h.14a5.19,5.19,0,0,0-.05-.74,1.75,1.75,0,0,0-.23-.7h.7a1.75,1.75,0,0,0-.22.7,5.35,5.35,0,0,0-.06.74h.14a1.28,1.28,0,0,1,.34-.49.76.76,0,0,1,.54-.21.83.83,0,0,1,.67.28A1.05,1.05,0,0,1,41,45.14Zm-1.41,6.72h-1.3l.63,2.07Z" style="fill: #231f20"/>
    </g>
  </g>
</svg>
