<svg xmlns="http://www.w3.org/2000/svg" viewBox="0 0 43.49 57.97">
  <g id="Layer_2" data-name="Layer 2">
    <g id="Layer_1-2" data-name="Layer 1">
      <path d="M43.49,56.32A1.62,1.62,0,0,1,41.84,58H1.58a1.43,1.43,0,0,1-1.14-.51A1.72,1.72,0,0,1,0,56.32V1.58A1.54,1.54,0,0,1,.44.44,1.54,1.54,0,0,1,1.58,0H41.84A1.71,1.71,0,0,1,43,.44a1.47,1.47,0,0,1,.49,1.14Zm-1-54.74a.52.52,0,0,0-.16-.38A.58.58,0,0,0,41.84,1H1.58A.5.5,0,0,0,1,1.58V56.32a.58.58,0,0,0,.18.47.52.52,0,0,0,.38.16H41.84a.56.56,0,0,0,.63-.63ZM6.64,12.9a1,1,0,0,1-.26.72.85.85,0,0,1-.68.3.71.71,0,0,1-.55-.23,1.4,1.4,0,0,1-.33-.51H4.68a5.19,5.19,0,0,0,.05.74,1.57,1.57,0,0,0,.23.7H4.25a1.57,1.57,0,0,0,.23-.7,5.35,5.35,0,0,0,.06-.74H4.39a1.49,1.49,0,0,1-.31.51.67.67,0,0,1-.53.23.85.85,0,0,1-.7-.3,1.07,1.07,0,0,1-.25-.72A1.64,1.64,0,0,1,3,11.81c.31-.35.6-.69.86-1a11.54,11.54,0,0,0,.73-1c.23.35.48.7.73,1s.52.69.78,1a2.62,2.62,0,0,1,.37.49A1.27,1.27,0,0,1,6.64,12.9ZM6.4,6.36a1.81,1.81,0,0,1-.53,1.36,1.94,1.94,0,0,1-1.41.51A1.47,1.47,0,0,1,2.81,6.71l.95-.07a1,1,0,0,0,.16.58.58.58,0,0,0,.54.27.79.79,0,0,0,.76-.35,1.61,1.61,0,0,0,.19-.78,1.82,1.82,0,0,0-.17-.77.64.64,0,0,0-.63-.39.65.65,0,0,0-.6.27,1.67,1.67,0,0,0-.25.65H3V3H6v.74H3.83V4.85a1,1,0,0,1,.85-.39A1.57,1.57,0,0,1,5.94,5,2,2,0,0,1,6.4,6.36Zm10.69,5a2.19,2.19,0,0,1-.48,1.41,1.62,1.62,0,0,1-1.35.59,1.38,1.38,0,0,1-1.07-.47,3,3,0,0,1-.65-1h-.29a14.26,14.26,0,0,0,.09,1.51,2.8,2.8,0,0,0,.48,1.38H12.38a3,3,0,0,0,.49-1.38,12.17,12.17,0,0,0,.1-1.51h-.28a3.85,3.85,0,0,1-.67,1,1.37,1.37,0,0,1-1.09.47,1.56,1.56,0,0,1-1.31-.59,2.19,2.19,0,0,1-.48-1.41A3.36,3.36,0,0,1,10,9l1.62-2a15.86,15.86,0,0,0,1.47-2.11A14.86,14.86,0,0,0,14.55,7l1.66,2A3.41,3.41,0,0,1,17.09,11.32Zm0,35.4A3.39,3.39,0,0,1,16.21,49l-1.64,2a15.44,15.44,0,0,0-1.46,2.13,16.79,16.79,0,0,0-1.46-2.11c-.52-.66-1.07-1.33-1.63-2a3.34,3.34,0,0,1-.88-2.32,2.16,2.16,0,0,1,.48-1.4,1.57,1.57,0,0,1,1.31-.6,1.35,1.35,0,0,1,1.09.49,4.48,4.48,0,0,1,.67,1H13a12.22,12.22,0,0,0-.1-1.48,3.18,3.18,0,0,0-.49-1.4h1.44a3,3,0,0,0-.48,1.4,14.35,14.35,0,0,0-.09,1.48h.29a3.37,3.37,0,0,1,.65-1,1.37,1.37,0,0,1,1.07-.49,1.63,1.63,0,0,1,1.35.6A2.16,2.16,0,0,1,17.09,46.72ZM25.7,30.41a2.23,2.23,0,0,1-.46,1.41,1.56,1.56,0,0,1-1.33.59,1.39,1.39,0,0,1-1.08-.49,3.57,3.57,0,0,1-.65-1H21.9A13.94,13.94,0,0,0,22,32.4a3.1,3.1,0,0,0,.47,1.39H21a3.12,3.12,0,0,0,.5-1.39,11.9,11.9,0,0,0,.1-1.5H21.3a3.72,3.72,0,0,1-.63,1,1.35,1.35,0,0,1-1.09.49,1.56,1.56,0,0,1-1.33-.59,2.23,2.23,0,0,1-.46-1.41,3.13,3.13,0,0,1,.88-2.32l1.62-2A17.74,17.74,0,0,0,21.76,24a14.54,14.54,0,0,0,1.44,2.11l1.66,2A3.38,3.38,0,0,1,25.7,30.41Zm8.72-19.09A2.23,2.23,0,0,1,34,12.73a1.57,1.57,0,0,1-1.34.59,1.36,1.36,0,0,1-1.08-.47,3.15,3.15,0,0,1-.64-1h-.28a14.26,14.26,0,0,0,.09,1.51,2.89,2.89,0,0,0,.47,1.38H29.74a2.8,2.8,0,0,0,.48-1.38,14.06,14.06,0,0,0,.08-1.51H30a3.3,3.3,0,0,1-.63,1,1.37,1.37,0,0,1-1.09.47A1.58,1.58,0,0,1,27,12.73a2.28,2.28,0,0,1-.45-1.41A3.54,3.54,0,0,1,27.35,9c.54-.66,1.09-1.31,1.64-2a14.13,14.13,0,0,0,1.46-2.11A15,15,0,0,0,31.92,7l1.65,2A3.34,3.34,0,0,1,34.42,11.32Zm0,35.4A3.32,3.32,0,0,1,33.57,49c-.53.66-1.08,1.32-1.63,2a16.59,16.59,0,0,0-1.49,2.13A14.86,14.86,0,0,0,29,51.05l-1.65-2a3.36,3.36,0,0,1-.84-2.32,2.26,2.26,0,0,1,.45-1.4,1.59,1.59,0,0,1,1.34-.6,1.35,1.35,0,0,1,1.09.49,3.72,3.72,0,0,1,.63,1h.28a14.06,14.06,0,0,0-.08-1.48,3,3,0,0,0-.48-1.4h1.44a3.06,3.06,0,0,0-.47,1.4,14.35,14.35,0,0,0-.09,1.48h.28a3.53,3.53,0,0,1,.64-1,1.35,1.35,0,0,1,1.08-.49,1.57,1.57,0,0,1,1.34.6A2.2,2.2,0,0,1,34.42,46.72ZM41,45.14a1.64,1.64,0,0,1-.42,1.09c-.29.38-.57.73-.85,1.06A6,6,0,0,0,39,48.34a8.55,8.55,0,0,0-.72-1.09l-.79-1a2,2,0,0,1-.35-.47,1.35,1.35,0,0,1-.14-.62,1,1,0,0,1,.25-.7.81.81,0,0,1,.66-.28.77.77,0,0,1,.57.21,1.32,1.32,0,0,1,.31.49h.14a5.19,5.19,0,0,0-.05-.74,1.75,1.75,0,0,0-.23-.7h.7a1.75,1.75,0,0,0-.22.7,5.35,5.35,0,0,0-.06.74h.14a1.28,1.28,0,0,1,.34-.49.76.76,0,0,1,.54-.21.83.83,0,0,1,.67.28A1,1,0,0,1,41,45.14Zm-1.13,6.29a1.12,1.12,0,0,0-.17-.61.64.64,0,0,0-.57-.27.74.74,0,0,0-.72.36,1.6,1.6,0,0,0-.19.8,1.85,1.85,0,0,0,.18.78.59.59,0,0,0,.59.39.7.7,0,0,0,.64-.29,1.85,1.85,0,0,0,.24-.66h.78v3.16h-3v-.7h2.18V53.23a1.21,1.21,0,0,1-.88.35,1.57,1.57,0,0,1-1.26-.53,2,2,0,0,1-.46-1.34,1.8,1.8,0,0,1,.53-1.37,2,2,0,0,1,1.4-.49,1.47,1.47,0,0,1,1.66,1.51Z" style="fill: #231f20"/>
    </g>
  </g>
</svg>
