<svg xmlns="http://www.w3.org/2000/svg" viewBox="0 0 43.49 57.97">
  <g id="Layer_2" data-name="Layer 2">
    <g id="Layer_1-2" data-name="Layer 1">
      <path d="M43.49,56.32A1.62,1.62,0,0,1,41.84,58H1.58a1.43,1.43,0,0,1-1.14-.51A1.72,1.72,0,0,1,0,56.32V1.58A1.54,1.54,0,0,1,.44.44,1.54,1.54,0,0,1,1.58,0H41.84A1.71,1.71,0,0,1,43,.44a1.47,1.47,0,0,1,.49,1.14Zm-1-54.74a.52.52,0,0,0-.16-.38A.58.58,0,0,0,41.84,1H1.58A.5.5,0,0,0,1,1.58V56.32a.58.58,0,0,0,.18.47.52.52,0,0,0,.38.16H41.84a.56.56,0,0,0,.63-.63ZM7.28,8.3l-.57.56L6.05,8.3a2.71,2.71,0,0,1-1.37.35,2.36,2.36,0,0,1-1.87-.77,3.15,3.15,0,0,1-.63-2,3.17,3.17,0,0,1,.63-2A2.35,2.35,0,0,1,4.68,3a2.44,2.44,0,0,1,1.89.81,2.84,2.84,0,0,1,.64,1.94,4.26,4.26,0,0,1-.13,1.14,1.63,1.63,0,0,1-.44.79Zm-.64,4.6a1,1,0,0,1-.26.72.85.85,0,0,1-.68.3.71.71,0,0,1-.55-.23,1.4,1.4,0,0,1-.33-.51H4.68a5.19,5.19,0,0,0,.05.74,1.57,1.57,0,0,0,.23.7H4.25a1.57,1.57,0,0,0,.23-.7,5.35,5.35,0,0,0,.06-.74H4.39a1.49,1.49,0,0,1-.31.51.67.67,0,0,1-.53.23.85.85,0,0,1-.7-.3,1.07,1.07,0,0,1-.25-.72A1.64,1.64,0,0,1,3,11.81c.31-.35.6-.69.86-1a11.54,11.54,0,0,0,.73-1c.23.35.48.7.73,1s.52.69.78,1a2.62,2.62,0,0,1,.37.49A1.27,1.27,0,0,1,6.64,12.9ZM6.12,5.84C6.12,4.59,5.64,4,4.68,4s-1.45.62-1.45,1.87S3.71,7.7,4.68,7.7a1.2,1.2,0,0,0,.59-.14l-.52-.49.59-.57.5.5A2.4,2.4,0,0,0,6.12,5.84ZM35.3,49.78H8.3V8.3h27Zm-.95-1V9.21H9.21V48.83ZM18.53,17.09a2.16,2.16,0,0,1-.48,1.4,1.6,1.6,0,0,1-1.35.6,1.42,1.42,0,0,1-1.07-.47,3.12,3.12,0,0,1-.65-1H14.7a13.71,13.71,0,0,0,.08,1.49,3,3,0,0,0,.48,1.39H13.82a3.19,3.19,0,0,0,.49-1.39,11.87,11.87,0,0,0,.1-1.49h-.28a3.77,3.77,0,0,1-.67,1,1.39,1.39,0,0,1-1.08.47,1.57,1.57,0,0,1-1.32-.6,2.16,2.16,0,0,1-.48-1.4,3.39,3.39,0,0,1,.88-2.32l1.62-2a17.5,17.5,0,0,0,1.47-2.13A14.86,14.86,0,0,0,16,12.76l1.65,2A3.39,3.39,0,0,1,18.53,17.09Zm5.66,20.28a5.51,5.51,0,0,1-.44,2.18,5.63,5.63,0,0,1-1.2,1.79A5.45,5.45,0,0,1,18.6,43a5.35,5.35,0,0,1-2.25-.43.26.26,0,0,0-.14-.07l-.14-.07c-.19-.11-.37-.23-.55-.35a3.54,3.54,0,0,1-.47-.38A8.2,8.2,0,0,1,12.15,38a10.82,10.82,0,0,1-.55-4.83c.05-.33.08-.63.11-.9a6.26,6.26,0,0,1,.1-.72L12,30.9a.19.19,0,0,1,.21-.21h4c.21,0,.28.12.21.35l-.11.42a2.15,2.15,0,0,0-.09.43,3.47,3.47,0,0,1-.08.52,4.05,4.05,0,0,1,1.19-.47,5.58,5.58,0,0,1,1.34-.16,5.51,5.51,0,0,1,2.18.44,5.75,5.75,0,0,1,1.79,1.2,5.31,5.31,0,0,1,1.21,1.77A5,5,0,0,1,24.19,37.37Zm-8,4.54a14.43,14.43,0,0,1-.93-2.25,8.42,8.42,0,0,1-.36-1.87A10.82,10.82,0,0,1,15,36c.07-.61.16-1.3.28-2.07a3.36,3.36,0,0,0,.07-.58,2.47,2.47,0,0,1,.07-.58c.09-.29.17-.56.23-.83s.11-.5.16-.69H12.45a25.49,25.49,0,0,0-.34,3.2,9.45,9.45,0,0,0,.32,2.85,7.28,7.28,0,0,0,1.26,2.5A8.87,8.87,0,0,0,16.21,41.91Zm.14-18.14a.92.92,0,0,1-.23.63.72.72,0,0,1-.55.24.77.77,0,0,1-.52-.14,1,1,0,0,1,.14.43.68.68,0,0,1-.57.77v.81l1.31.07c.18,0,.28.11.28.26s-.1.23-.28.23H15.4a1.23,1.23,0,0,1,.46,1,1.5,1.5,0,0,1-.43,1.05,1.12,1.12,0,0,1-1,.39,1.5,1.5,0,0,1-1.09-.42,1.39,1.39,0,0,1-.42-1,1.33,1.33,0,0,1,.42-1h-.49c-.19,0-.28-.08-.28-.23s.09-.24.28-.26l1.3-.07V25.7a.68.68,0,0,1-.59-.77.86.86,0,0,1,.14-.43.86.86,0,0,1-.43.14.77.77,0,0,1-.87-.87.72.72,0,0,1,.24-.55.92.92,0,0,1,.63-.23,1,1,0,0,1,.43.14.77.77,0,0,1-.14-.52.72.72,0,0,1,.24-.55.92.92,0,0,1,.63-.23.76.76,0,0,1,.55.23.75.75,0,0,1,.23.55.83.83,0,0,1-.14.52.83.83,0,0,1,.52-.14.79.79,0,0,1,.78.78Zm-2.81,0a.26.26,0,0,0-.29-.29c-.23,0-.35.1-.35.29a.31.31,0,0,0,.35.35C13.44,24.12,13.54,24,13.54,23.77Zm1.79,4.32a1,1,0,0,0-.27-.7.81.81,0,0,0-.65-.32.93.93,0,0,0-.73.32,1,1,0,0,0-.29.7.92.92,0,0,0,.29.67,1,1,0,0,0,.73.28.64.64,0,0,0,.65-.25A1,1,0,0,0,15.33,28.09Zm7.87,19.3q.11.47-.45.21l-1.66-1.16q-.53.63-.75.93c-.15.2-.3.3-.42.3s-.29-.1-.48-.31-.49-.52-.91-.92c-.42.4-.73.7-.92.92a.71.71,0,0,1-.47.31q-.2,0-.42-.3c-.16-.2-.42-.51-.79-.93L14.27,47.6a.33.33,0,0,1-.31,0c-.1,0-.12-.12-.07-.26.21-1.22.35-2.14.44-2.78a7.85,7.85,0,0,1,.24-1.3c.08-.23.18-.32.3-.26l.58.33a5.87,5.87,0,0,0,1.13.51,5.71,5.71,0,0,0,2,.27,6.3,6.3,0,0,0,1.84-.25A6.08,6.08,0,0,0,22,43.07a.21.21,0,0,1,.23,0c.08,0,.12.11.12.23ZM14.7,22.61a.26.26,0,0,0-.29-.29c-.23,0-.35.1-.35.29s.12.38.35.38S14.7,22.86,14.7,22.61Zm0,1.16a.26.26,0,0,0-.29-.29c-.23,0-.35.1-.35.29a.31.31,0,0,0,.35.35C14.6,24.12,14.7,24,14.7,23.77Zm0,1.16a.26.26,0,0,0-.29-.29c-.23,0-.35.1-.35.29a.31.31,0,0,0,.35.35C14.6,25.28,14.7,25.16,14.7,24.93ZM22,43.7a5,5,0,0,1-1.6.76,8.26,8.26,0,0,1-1.84.19,8.11,8.11,0,0,1-1.81-.19,5.69,5.69,0,0,1-1.67-.76l-.57,3.13c.47-.31.81-.54,1-.71a1,1,0,0,1,.51-.24.56.56,0,0,1,.41.28c.14.19.38.48.74.88l.91-.84a.8.8,0,0,1,.47-.29.79.79,0,0,1,.48.29l.91.84c.36-.4.61-.69.76-.88s.29-.28.4-.28a.88.88,0,0,1,.48.24c.2.17.52.4,1,.71ZM15.86,23.77a.26.26,0,0,0-.29-.29c-.25,0-.38.1-.38.29s.13.35.38.35S15.86,24,15.86,23.77Zm7.84,13.6a4.64,4.64,0,0,0-.37-2,4.93,4.93,0,0,0-1.11-1.61,5.28,5.28,0,0,0-1.64-1.09,4.91,4.91,0,0,0-2-.41,4.75,4.75,0,0,0-2.67.78l-.07.14c-.15.79-.26,1.51-.36,2.14a13.13,13.13,0,0,0-.14,1.85A7.77,7.77,0,0,0,15.59,39a11.17,11.17,0,0,0,.76,2.05,4.1,4.1,0,0,1,.28.65,1.72,1.72,0,0,0,.21.48,4.81,4.81,0,0,0,1.76.31,4.9,4.9,0,0,0,2-.4A5,5,0,0,0,22.2,41a5.36,5.36,0,0,0,1.09-1.63A5,5,0,0,0,23.7,37.37ZM19.37,24.64A5.24,5.24,0,0,0,16,26.09a.23.23,0,0,1-.36,0c-.11-.13-.09-.28.07-.44a6,6,0,0,1,1.69-1,5.14,5.14,0,0,1,2-.4c.17,0,.25,0,.25.19A.24.24,0,0,1,19.37,24.64ZM18.6,39.48a.86.86,0,0,0-.34-.07h-.33a1.78,1.78,0,0,1-.53.11,2.09,2.09,0,0,1-.56-.11h-.33a1.09,1.09,0,0,0-.37.07,3.18,3.18,0,0,1,.45-.81,1,1,0,0,1,.78-.35,1,1,0,0,1,.81.35A2.83,2.83,0,0,1,18.6,39.48Zm1.86-4.11a.24.24,0,0,1-.28.28.67.67,0,0,1-.33-.18.94.94,0,0,0-.55-.17.7.7,0,0,0-.47.17.55.55,0,0,1-.3.18c-.21,0-.32-.09-.32-.28a.29.29,0,0,1,.14-.21,1.65,1.65,0,0,1,.32-.18,2.29,2.29,0,0,1,.37-.12,1.07,1.07,0,0,1,.26-.06A2.3,2.3,0,0,1,20,35C20.3,35.1,20.46,35.23,20.46,35.37Zm-.95,1.37a.23.23,0,0,1,.25.21,1.7,1.7,0,0,1,0,.54c0,.23-.08.47-.14.74s-.11.54-.16.79-.08.23-.24.2-.23-.15-.18-.34l.21-1.58-.49-.07c-.19,0-.28-.08-.28-.25s.09-.24.28-.24ZM32,24.86c-.05.32-.09.62-.13.89a6,6,0,0,1-.12.72l-.1.67c0,.12-.07.18-.22.18h-4c-.21,0-.28-.11-.21-.32l.11-.42a2.16,2.16,0,0,0,.1-.42c0-.17.06-.34.11-.53a4.44,4.44,0,0,1-1.23.51,6,6,0,0,1-1.3.16,5.63,5.63,0,0,1-4-1.66,5.5,5.5,0,0,1-1.21-1.79,5,5,0,0,1-.41-2.18,5.2,5.2,0,0,1,.46-2.18A6,6,0,0,1,21,16.7a5.54,5.54,0,0,1,4-1.65,5.1,5.1,0,0,1,2.21.45.19.19,0,0,0,.14.07l.18.07.52.34a2.33,2.33,0,0,1,.46.37A8.37,8.37,0,0,1,31.43,20,10.48,10.48,0,0,1,32,24.86ZM22.11,39.48a.82.82,0,0,0-.33-.07h-.33a1.85,1.85,0,0,1-.53.11,1.78,1.78,0,0,1-.53-.11H20a1.15,1.15,0,0,0-.39.07,3.21,3.21,0,0,1,.46-.81.94.94,0,0,1,.77-.35,1,1,0,0,1,.85.35A2.16,2.16,0,0,1,22.11,39.48Zm5.63-14.62c.14-.8.26-1.52.35-2.15a10.45,10.45,0,0,0,.11-1.83A10.77,10.77,0,0,0,28,19.07,10.31,10.31,0,0,0,27.21,17a3.42,3.42,0,0,1-.28-.67,1.64,1.64,0,0,0-.21-.49,4.12,4.12,0,0,0-.86-.23,5.52,5.52,0,0,0-.86-.06,5.11,5.11,0,0,0-4.73,3.12,4.91,4.91,0,0,0-.41,2,4.58,4.58,0,0,0,.37,2,5.54,5.54,0,0,0,1.09,1.63A5,5,0,0,0,23,25.4a5.12,5.12,0,0,0,2,.4,4.75,4.75,0,0,0,2.67-.8Zm1.93-14.21c-.21,1.22-.36,2.15-.46,2.78a10.45,10.45,0,0,1-.24,1.3c-.07.23-.17.33-.28.28a5.24,5.24,0,0,1-.58-.31A5.87,5.87,0,0,0,27,14.19a5.57,5.57,0,0,0-1.91-.27,6.85,6.85,0,0,0-1.88.23,5.4,5.4,0,0,0-1.64.83.3.3,0,0,1-.26,0,.22.22,0,0,1-.13-.22l-.77-4.12c-.05-.14,0-.23.07-.26a.42.42,0,0,1,.35,0l1.65,1.16c.36-.42.61-.73.76-.93a.61.61,0,0,1,.44-.3c.14,0,.3.11.49.32s.49.51.92.91a8.18,8.18,0,0,0,.89-.88c.18-.21.33-.32.46-.33s.28.08.44.28.43.51.81.93l1.65-1.16a.32.32,0,0,1,.3,0C29.7,10.42,29.72,10.51,29.67,10.65Zm-.56.6c-.47.3-.81.54-1,.7a.91.91,0,0,1-.51.25c-.13,0-.26-.09-.4-.28s-.39-.48-.74-.88c-.42.37-.73.66-.92.84a.74.74,0,0,1-.49.28.76.76,0,0,1-.49-.28c-.19-.18-.49-.47-.92-.84-.35.4-.6.69-.75.88s-.29.28-.41.28A.85.85,0,0,1,22,12c-.2-.16-.52-.4-1-.7l.6,3.09a5,5,0,0,1,1.58-.75,7.76,7.76,0,0,1,1.87-.2,7.36,7.36,0,0,1,1.79.2,5.67,5.67,0,0,1,1.65.75Zm-5.2,7.35a3.14,3.14,0,0,1-.46.77.93.93,0,0,1-.77.35.94.94,0,0,1-.81-.35,2.32,2.32,0,0,1-.42-.77.78.78,0,0,0,.33.07h.33a1.78,1.78,0,0,1,.53-.11,2.09,2.09,0,0,1,.56.11h.34A1.13,1.13,0,0,0,23.91,18.6Zm1.44,4.08a.33.33,0,0,1-.14.22,1.05,1.05,0,0,1-.34.2l-.37.12a.77.77,0,0,1-.24.05,2,2,0,0,1-.67-.17c-.3-.12-.46-.26-.46-.42a.26.26,0,0,1,.28-.29.62.62,0,0,1,.32.2.75.75,0,0,0,.53.19.69.69,0,0,0,.49-.19.62.62,0,0,1,.32-.2A.26.26,0,0,1,25.35,22.68Zm-1.3-1.41a.19.19,0,0,1-.21-.19,1.44,1.44,0,0,1,0-.51,6,6,0,0,1,.12-.72c.06-.27.11-.55.16-.83s.09-.2.26-.18.24.13.19.32l-.24,1.58h.53c.18.05.28.15.28.3s-.1.23-.28.23Zm3.83,11.14a5.1,5.1,0,0,1-1.71,1.06,5.41,5.41,0,0,1-2,.39c-.19,0-.28,0-.28-.16s.09-.24.28-.27A5.64,5.64,0,0,0,26,33a5.4,5.4,0,0,0,1.6-1,.2.2,0,0,1,.33,0C28,32.14,28,32.27,27.88,32.41ZM27.42,18.6a3.42,3.42,0,0,1-.44.77.86.86,0,0,1-.75.35,1,1,0,0,1-.85-.35A2.06,2.06,0,0,1,25,18.6a.76.76,0,0,0,.31.07h.32a2.09,2.09,0,0,1,.56-.11,1.78,1.78,0,0,1,.53.11h.33A1.09,1.09,0,0,0,27.42,18.6ZM33,41a3.32,3.32,0,0,1-.85,2.29l-1.63,2A14.61,14.61,0,0,0,29,47.39a17.68,17.68,0,0,0-1.48-2.11l-1.65-2A3.36,3.36,0,0,1,25.07,41a2.33,2.33,0,0,1,.45-1.42A1.57,1.57,0,0,1,26.86,39a1.38,1.38,0,0,1,1.09.5,3.53,3.53,0,0,1,.63,1h.28c0-.42,0-.91-.08-1.47a3,3,0,0,0-.48-1.41h1.44A3,3,0,0,0,29.27,39a14,14,0,0,0-.09,1.47h.28a3.53,3.53,0,0,1,.63-1,1.39,1.39,0,0,1,1.09-.5,1.57,1.57,0,0,1,1.34.62A2.34,2.34,0,0,1,33,41Zm-1.8-6.78a.88.88,0,0,1-.22.63.79.79,0,0,1-.58.25.8.8,0,0,1-.5-.14.8.8,0,0,1,.14.42.78.78,0,0,1-.23.61.7.7,0,0,1-.54.23c-.59,0-.88-.28-.88-.84a.9.9,0,0,1,.14-.42.9.9,0,0,1-.42.14.78.78,0,0,1-.88-.88.71.71,0,0,1,.25-.55.89.89,0,0,1,.63-.23.9.9,0,0,1,.42.14.83.83,0,0,1-.14-.52.64.64,0,0,1,.56-.71v-.88H27.67c-.19,0-.28-.08-.28-.24s.09-.25.28-.25h.49a1.19,1.19,0,0,1-.42-1,1.49,1.49,0,0,1,.42-1.05,1.39,1.39,0,0,1,1.09-.46,1.69,1.69,0,0,1,1,.49,1.39,1.39,0,0,1,.42,1,1.14,1.14,0,0,1-.46,1h.53c.19,0,.28.09.28.25s-.09.24-.28.24h-1.3v.88a.64.64,0,0,1,.56.71.77.77,0,0,1-.14.52.8.8,0,0,1,.5-.14.82.82,0,0,1,.58.23A.75.75,0,0,1,31.18,34.21Zm-.07-7.42a25.38,25.38,0,0,0,.34-3.18,9.36,9.36,0,0,0-.32-2.83,7.37,7.37,0,0,0-1.26-2.5,9.1,9.1,0,0,0-2.52-2.14,12.78,12.78,0,0,1,1,2.23,8,8,0,0,1,.35,1.86A9.17,9.17,0,0,1,28.6,22c-.08.61-.18,1.3-.3,2.08a2.82,2.82,0,0,0-.07.59,2.46,2.46,0,0,1-.07.57l-.35,1.51Zm-2.74,7.42a.24.24,0,0,0-.28-.28c-.23,0-.35.09-.35.28a.31.31,0,0,0,.35.35C28.28,34.56,28.37,34.44,28.37,34.21ZM30.16,30a.88.88,0,0,0-.26-.65,1.26,1.26,0,0,0-.65-.33,1,1,0,0,0-.74.3,1,1,0,0,0-.28.68.91.91,0,0,0,.28.67,1,1,0,0,0,.74.28.85.85,0,0,0,.65-.28A.93.93,0,0,0,30.16,30Zm-.63,3.1a.24.24,0,0,0-.28-.28c-.26,0-.39.09-.39.28s.13.38.39.38S29.53,33.31,29.53,33.05Zm0,1.16a.24.24,0,0,0-.28-.28c-.26,0-.39.09-.39.28s.13.35.39.35S29.53,34.44,29.53,34.21Zm0,1.16a.24.24,0,0,0-.28-.28c-.26,0-.39.09-.39.28s.13.35.39.35S29.53,35.6,29.53,35.37Zm1.16-1.16c0-.19-.1-.28-.31-.28S30,34,30,34.21a.32.32,0,0,0,.36.35C30.59,34.56,30.69,34.44,30.69,34.21Zm10.72,18a2.72,2.72,0,0,1-.66,2,2.24,2.24,0,0,1-1.87.81A2.21,2.21,0,0,1,37,54.21a2.82,2.82,0,0,1-.67-1.93,2.67,2.67,0,0,1,.6-1.94l-.67-.56.6-.6.63.6a2.83,2.83,0,0,1,1.37-.39,2.24,2.24,0,0,1,1.87.81A2.77,2.77,0,0,1,41.41,52.21ZM41,45.14a1.64,1.64,0,0,1-.42,1.09c-.29.38-.57.73-.85,1.06A6,6,0,0,0,39,48.34a8.55,8.55,0,0,0-.72-1.09l-.79-1a2,2,0,0,1-.35-.47,1.35,1.35,0,0,1-.14-.62,1,1,0,0,1,.25-.7.81.81,0,0,1,.66-.28.77.77,0,0,1,.57.21,1.32,1.32,0,0,1,.31.49h.14a5.19,5.19,0,0,0-.05-.74,1.75,1.75,0,0,0-.23-.7h.7a1.75,1.75,0,0,0-.22.7,5.35,5.35,0,0,0-.06.74h.14a1.28,1.28,0,0,1,.34-.49.76.76,0,0,1,.54-.21.83.83,0,0,1,.67.28A1,1,0,0,1,41,45.14Zm-.64,7.07c0-1.25-.48-1.87-1.44-1.87a1.13,1.13,0,0,0-.56.14l.49.5-.56.59-.53-.52a2.64,2.64,0,0,0-.28,1.16q0,1.86,1.44,1.86T40.32,52.21Z" style="fill: #231f20"/>
    </g>
  </g>
</svg>
