<svg xmlns="http://www.w3.org/2000/svg" viewBox="0 0 43.49 57.97">
  <g id="Layer_2" data-name="Layer 2">
    <g id="Layer_1-2" data-name="Layer 1">
      <path d="M43.49,56.32A1.62,1.62,0,0,1,41.84,58H1.58a1.43,1.43,0,0,1-1.14-.51A1.72,1.72,0,0,1,0,56.32V1.58A1.54,1.54,0,0,1,.44.44,1.54,1.54,0,0,1,1.58,0H41.84A1.71,1.71,0,0,1,43,.44a1.47,1.47,0,0,1,.49,1.14Zm-1-54.74a.52.52,0,0,0-.16-.38A.58.58,0,0,0,41.84,1H1.58A.5.5,0,0,0,1,1.58V56.32a.58.58,0,0,0,.18.47.52.52,0,0,0,.38.16H41.84a.56.56,0,0,0,.63-.63ZM6.64,12.9a1,1,0,0,1-.26.72.85.85,0,0,1-.68.3.71.71,0,0,1-.55-.23,1.4,1.4,0,0,1-.33-.51H4.68a5.19,5.19,0,0,0,.05.74,1.57,1.57,0,0,0,.23.7H4.25a1.57,1.57,0,0,0,.23-.7,5.35,5.35,0,0,0,.06-.74H4.39a1.49,1.49,0,0,1-.31.51.67.67,0,0,1-.53.23.85.85,0,0,1-.7-.3,1.07,1.07,0,0,1-.25-.72A1.64,1.64,0,0,1,3,11.81c.31-.35.6-.69.86-1a11.54,11.54,0,0,0,.73-1c.23.35.48.7.73,1s.52.69.78,1a2.62,2.62,0,0,1,.37.49A1.27,1.27,0,0,1,6.64,12.9ZM6.4,6.79a1.18,1.18,0,0,1-.55,1.1,2.27,2.27,0,0,1-1.24.34A2.42,2.42,0,0,1,3.3,7.91a1.34,1.34,0,0,1-.49-1.2l.95-.14a1.09,1.09,0,0,0,.18.67.75.75,0,0,0,.67.25.7.7,0,0,0,.8-.78.76.76,0,0,0-.14-.5.68.68,0,0,0-.37-.27,2.44,2.44,0,0,0-.47-.09H4V5.2a3.67,3.67,0,0,0,.86-.1c.3-.07.44-.31.44-.71a.89.89,0,0,0-.17-.54.68.68,0,0,0-.56-.23A.6.6,0,0,0,4,3.88a1.46,1.46,0,0,0-.14.66l-1-.08a1.83,1.83,0,0,1,.5-1.16,1.56,1.56,0,0,1,1.16-.42,2,2,0,0,1,1.21.39,1.32,1.32,0,0,1,.51,1.12,1.17,1.17,0,0,1-.16.69,1.29,1.29,0,0,1-.55.4A1.7,1.7,0,0,1,6.19,6,1.38,1.38,0,0,1,6.4,6.79Zm19.37,4.53a2.14,2.14,0,0,1-.49,1.41,1.68,1.68,0,0,1-1.37.59,1.28,1.28,0,0,1-1-.47,3.46,3.46,0,0,1-.62-1H22a14.26,14.26,0,0,0,.09,1.51,2.8,2.8,0,0,0,.48,1.38H21a2.9,2.9,0,0,0,.5-1.38,12.17,12.17,0,0,0,.1-1.51H21.3a3.83,3.83,0,0,1-.59,1,1.28,1.28,0,0,1-1.06.47,1.68,1.68,0,0,1-1.35-.59,2.11,2.11,0,0,1-.51-1.41A3.52,3.52,0,0,1,18.67,9c.54-.66,1.09-1.31,1.65-2a14.43,14.43,0,0,0,1.51-2.11A14.74,14.74,0,0,0,23.26,7c.52.66,1.06,1.31,1.6,2a4.13,4.13,0,0,1,.66,1.07A3.1,3.1,0,0,1,25.77,11.32Zm0,19.09a2.14,2.14,0,0,1-.49,1.41,1.68,1.68,0,0,1-1.37.59,1.27,1.27,0,0,1-1-.49,3.93,3.93,0,0,1-.62-1H22a13.94,13.94,0,0,0,.09,1.5,3,3,0,0,0,.48,1.39H21a3.12,3.12,0,0,0,.5-1.39,11.9,11.9,0,0,0,.1-1.5H21.3a4.42,4.42,0,0,1-.59,1,1.27,1.27,0,0,1-1.06.49,1.68,1.68,0,0,1-1.35-.59,2.11,2.11,0,0,1-.51-1.41,3.52,3.52,0,0,1,.88-2.32l1.65-2A15.09,15.09,0,0,0,21.83,24a15.43,15.43,0,0,0,1.43,2.12c.52.67,1.06,1.33,1.6,2A3.41,3.41,0,0,1,25.77,30.41Zm0,16.31A3.36,3.36,0,0,1,24.93,49l-1.67,2a12,12,0,0,0-1.43,2.11c-.47-.75-1-1.47-1.47-2.15s-1.06-1.33-1.62-2A4,4,0,0,1,18,48a2.91,2.91,0,0,1-.25-1.23,2.08,2.08,0,0,1,.51-1.4,1.68,1.68,0,0,1,1.35-.6,1.27,1.27,0,0,1,1.06.49,4.42,4.42,0,0,1,.59,1h.32a12.22,12.22,0,0,0-.1-1.48,3.07,3.07,0,0,0-.5-1.4h1.52a3,3,0,0,0-.48,1.4A14.35,14.35,0,0,0,22,46.23h.28a3.93,3.93,0,0,1,.62-1,1.27,1.27,0,0,1,1-.49,1.68,1.68,0,0,1,1.37.6A2.12,2.12,0,0,1,25.77,46.72ZM41,45.14a1.64,1.64,0,0,1-.42,1.09c-.29.38-.57.73-.85,1.06A6,6,0,0,0,39,48.34a8.55,8.55,0,0,0-.72-1.09l-.79-1a2,2,0,0,1-.35-.47,1.35,1.35,0,0,1-.14-.62,1,1,0,0,1,.25-.7.81.81,0,0,1,.66-.28.77.77,0,0,1,.57.21,1.32,1.32,0,0,1,.31.49h.14a5.19,5.19,0,0,0-.05-.74,1.75,1.75,0,0,0-.23-.7h.7a1.75,1.75,0,0,0-.22.7,5.35,5.35,0,0,0-.06.74h.14a1.28,1.28,0,0,1,.34-.49.76.76,0,0,1,.54-.21.83.83,0,0,1,.67.28A1.05,1.05,0,0,1,41,45.14ZM39.83,51.5a1.1,1.1,0,0,0-.19-.7.85.85,0,0,0-.69-.25c-.51,0-.77.27-.77.81s.16.67.49.74a4.62,4.62,0,0,0,.95.11v.67a4.24,4.24,0,0,0-.88.08q-.42.09-.42.69a1,1,0,0,0,.16.56.6.6,0,0,0,.54.25.61.61,0,0,0,.6-.28,1.54,1.54,0,0,0,.14-.67l.92.07A1.5,1.5,0,0,1,39,55.16a2,2,0,0,1-1.21-.37,1.32,1.32,0,0,1-.51-1.14,1.11,1.11,0,0,1,.18-.67,1.35,1.35,0,0,1,.56-.42,1.74,1.74,0,0,1-.67-.49,1.29,1.29,0,0,1-.21-.78,1.18,1.18,0,0,1,.55-1.1A2.24,2.24,0,0,1,39,49.85a2.36,2.36,0,0,1,1.3.32,1.31,1.31,0,0,1,.5,1.19Z" style="fill: #231f20"/>
    </g>
  </g>
</svg>
