<svg xmlns="http://www.w3.org/2000/svg" viewBox="0 0 43.49 57.97">
  <g id="Layer_2" data-name="Layer 2">
    <g id="Layer_1-2" data-name="Layer 1">
      <path d="M43.49,56.32A1.62,1.62,0,0,1,41.84,58H1.58a1.43,1.43,0,0,1-1.14-.51A1.72,1.72,0,0,1,0,56.32V1.58A1.54,1.54,0,0,1,.44.44,1.54,1.54,0,0,1,1.58,0H41.84A1.71,1.71,0,0,1,43,.44a1.47,1.47,0,0,1,.49,1.14Zm-1-54.74a.52.52,0,0,0-.16-.38A.58.58,0,0,0,41.84,1H1.58A.5.5,0,0,0,1,1.58V56.32a.58.58,0,0,0,.18.47.52.52,0,0,0,.38.16H41.84a.56.56,0,0,0,.63-.63ZM6.64,12.9a1,1,0,0,1-.26.72.85.85,0,0,1-.68.3.71.71,0,0,1-.55-.23,1.4,1.4,0,0,1-.33-.51H4.68a5.19,5.19,0,0,0,.05.74,1.57,1.57,0,0,0,.23.7H4.25a1.57,1.57,0,0,0,.23-.7,5.35,5.35,0,0,0,.06-.74H4.39a1.49,1.49,0,0,1-.31.51.67.67,0,0,1-.53.23.85.85,0,0,1-.7-.3,1.07,1.07,0,0,1-.25-.72A1.64,1.64,0,0,1,3,11.81c.31-.35.6-.69.86-1a11.54,11.54,0,0,0,.73-1c.23.35.48.7.73,1s.52.69.78,1a2.62,2.62,0,0,1,.37.49A1.27,1.27,0,0,1,6.64,12.9ZM6.26,4.78A1.74,1.74,0,0,1,5.7,6.17a10.66,10.66,0,0,1-1.24.9l-.31.22a3.93,3.93,0,0,0-.32.27H6.19V8.3H2.74V8.23a4,4,0,0,1,.07-.67,1.24,1.24,0,0,1,.35-.63,1.87,1.87,0,0,1,.57-.5c.23-.14.47-.28.7-.44A2.74,2.74,0,0,0,5,5.47a1.24,1.24,0,0,0,.24-.79A.91.91,0,0,0,5,4a.79.79,0,0,0-.65-.27.6.6,0,0,0-.63.39,2.32,2.32,0,0,0-.14.77l-.88-.07C2.74,3.63,3.32,3,4.46,3a1.81,1.81,0,0,1,1.31.48A1.71,1.71,0,0,1,6.26,4.78Zm19.51,6.54a2.14,2.14,0,0,1-.49,1.41,1.68,1.68,0,0,1-1.37.59,1.28,1.28,0,0,1-1-.47,3.46,3.46,0,0,1-.62-1H22a14.26,14.26,0,0,0,.09,1.51,2.8,2.8,0,0,0,.48,1.38H21a2.9,2.9,0,0,0,.5-1.38,12.17,12.17,0,0,0,.1-1.51H21.3a3.83,3.83,0,0,1-.59,1,1.28,1.28,0,0,1-1.06.47,1.68,1.68,0,0,1-1.35-.59,2.11,2.11,0,0,1-.51-1.41A3.52,3.52,0,0,1,18.67,9c.54-.66,1.09-1.31,1.65-2a14.43,14.43,0,0,0,1.51-2.11A14.74,14.74,0,0,0,23.26,7c.52.66,1.06,1.31,1.6,2a4.13,4.13,0,0,1,.66,1.07A3.1,3.1,0,0,1,25.77,11.32Zm0,35.4A3.36,3.36,0,0,1,24.93,49l-1.67,2a12,12,0,0,0-1.43,2.11c-.47-.75-1-1.47-1.47-2.15s-1.06-1.33-1.62-2A4,4,0,0,1,18,48a2.91,2.91,0,0,1-.25-1.23,2.08,2.08,0,0,1,.51-1.4,1.68,1.68,0,0,1,1.35-.6,1.27,1.27,0,0,1,1.06.49,4.42,4.42,0,0,1,.59,1h.32a12.22,12.22,0,0,0-.1-1.48,3.07,3.07,0,0,0-.5-1.4h1.52a3,3,0,0,0-.48,1.4A14.35,14.35,0,0,0,22,46.23h.28a3.93,3.93,0,0,1,.62-1,1.27,1.27,0,0,1,1-.49,1.68,1.68,0,0,1,1.37.6A2.12,2.12,0,0,1,25.77,46.72ZM41,45.14a1.64,1.64,0,0,1-.42,1.09c-.29.38-.57.73-.85,1.06A6,6,0,0,0,39,48.34a8.55,8.55,0,0,0-.72-1.09l-.79-1a2,2,0,0,1-.35-.47,1.35,1.35,0,0,1-.14-.62,1,1,0,0,1,.25-.7.81.81,0,0,1,.66-.28.77.77,0,0,1,.57.21,1.32,1.32,0,0,1,.31.49h.14a5.19,5.19,0,0,0-.05-.74,1.75,1.75,0,0,0-.23-.7h.7a1.75,1.75,0,0,0-.22.7,5.35,5.35,0,0,0-.06.74h.14a1.28,1.28,0,0,1,.34-.49.76.76,0,0,1,.54-.21.83.83,0,0,1,.67.28A1.05,1.05,0,0,1,41,45.14Zm-.14,8.09A1.56,1.56,0,0,1,39.09,55a1.81,1.81,0,0,1-1.3-.46,1.61,1.61,0,0,1-.49-1.26,1.67,1.67,0,0,1,.58-1.39c.39-.32.79-.63,1.21-.93l.34-.23a3,3,0,0,0,.33-.27H37.37v-.7h3.45v.07a3.69,3.69,0,0,1-.07.65,1.28,1.28,0,0,1-.36.62,1.75,1.75,0,0,1-.56.47,7.15,7.15,0,0,0-.68.44,2.77,2.77,0,0,0-.58.55,1.15,1.15,0,0,0-.25.79,1.11,1.11,0,0,0,.21.67.76.76,0,0,0,.63.28.62.62,0,0,0,.65-.39,2,2,0,0,0,.16-.77Z" style="fill: #231f20"/>
    </g>
  </g>
</svg>
