<svg xmlns="http://www.w3.org/2000/svg" viewBox="0 0 43.49 57.97">
  <g id="Layer_2" data-name="Layer 2">
    <g id="Layer_1-2" data-name="Layer 1">
      <path d="M43.49,56.32A1.62,1.62,0,0,1,41.84,58H1.58a1.43,1.43,0,0,1-1.14-.51A1.72,1.72,0,0,1,0,56.32V1.58A1.54,1.54,0,0,1,.44.44,1.54,1.54,0,0,1,1.58,0H41.84A1.71,1.71,0,0,1,43,.44a1.47,1.47,0,0,1,.49,1.14Zm-1-54.74a.52.52,0,0,0-.16-.38A.58.58,0,0,0,41.84,1H1.58A.5.5,0,0,0,1,1.58V56.32a.58.58,0,0,0,.18.47.52.52,0,0,0,.38.16H41.84a.56.56,0,0,0,.63-.63ZM3.62,8.16h-1V4.32H1.86V3.76A1,1,0,0,0,3,3h.67Zm3,4.74a1,1,0,0,1-.26.72.85.85,0,0,1-.68.3.71.71,0,0,1-.55-.23,1.4,1.4,0,0,1-.33-.51H4.68a5.19,5.19,0,0,0,.05.74,1.57,1.57,0,0,0,.23.7H4.25a1.57,1.57,0,0,0,.23-.7,5.35,5.35,0,0,0,.06-.74H4.39a1.49,1.49,0,0,1-.31.51.67.67,0,0,1-.53.23.85.85,0,0,1-.7-.3,1.07,1.07,0,0,1-.25-.72A1.64,1.64,0,0,1,3,11.81c.31-.35.6-.69.86-1a11.54,11.54,0,0,0,.73-1c.23.35.48.7.73,1s.52.69.78,1a2.62,2.62,0,0,1,.37.49A1.27,1.27,0,0,1,6.64,12.9Zm.71-7.35a7.15,7.15,0,0,1-.06.9,2.55,2.55,0,0,1-.24.88A1.71,1.71,0,0,1,6.52,8a1.5,1.5,0,0,1-.9.25A1.46,1.46,0,0,1,4.76,8a1.58,1.58,0,0,1-.51-.65A3.07,3.07,0,0,1,4,6.45,7.15,7.15,0,0,1,4,5.55,7.5,7.5,0,0,1,4,4.62a2.94,2.94,0,0,1,.22-.86,1.58,1.58,0,0,1,.51-.63,1.46,1.46,0,0,1,.86-.25,1.5,1.5,0,0,1,.88.25A1.47,1.47,0,0,1,7,3.78a3.46,3.46,0,0,1,.25.88A7.08,7.08,0,0,1,7.35,5.55Zm-.95,0c0-.14,0-.32,0-.54a3.85,3.85,0,0,0-.09-.67,1.35,1.35,0,0,0-.23-.56.5.5,0,0,0-.44-.23.49.49,0,0,0-.45.23A1.49,1.49,0,0,0,5,4.34,3.05,3.05,0,0,0,4.89,5v1A3,3,0,0,0,5,6.73a1.59,1.59,0,0,0,.21.58.47.47,0,0,0,.45.25.52.52,0,0,0,.48-.25,1.6,1.6,0,0,0,.23-.58,3,3,0,0,0,.07-.67Zm10.69,5.77a2.19,2.19,0,0,1-.48,1.41,1.62,1.62,0,0,1-1.35.59,1.38,1.38,0,0,1-1.07-.47,3,3,0,0,1-.65-1h-.29a14.26,14.26,0,0,0,.09,1.51,2.8,2.8,0,0,0,.48,1.38H12.38a3,3,0,0,0,.49-1.38,12.17,12.17,0,0,0,.1-1.51h-.28a3.85,3.85,0,0,1-.67,1,1.37,1.37,0,0,1-1.09.47,1.56,1.56,0,0,1-1.31-.59,2.19,2.19,0,0,1-.48-1.41A3.36,3.36,0,0,1,10,9l1.62-2a15.86,15.86,0,0,0,1.47-2.11A14.86,14.86,0,0,0,14.55,7l1.66,2A3.41,3.41,0,0,1,17.09,11.32Zm0,13a2.19,2.19,0,0,1-.48,1.41,1.63,1.63,0,0,1-1.35.6,1.4,1.4,0,0,1-1.07-.49,3.37,3.37,0,0,1-.65-1h-.29a14,14,0,0,0,.09,1.47,3,3,0,0,0,.48,1.41H12.38a3.27,3.27,0,0,0,.49-1.41,11.94,11.94,0,0,0,.1-1.47h-.28a4.48,4.48,0,0,1-.67,1,1.38,1.38,0,0,1-1.09.49,1.57,1.57,0,0,1-1.31-.6,2.19,2.19,0,0,1-.48-1.41A3.13,3.13,0,0,1,10,22c.54-.65,1.08-1.32,1.62-2a17.5,17.5,0,0,0,1.47-2.13A16.34,16.34,0,0,0,14.55,20l1.66,2A3.41,3.41,0,0,1,17.09,24.36Zm0,9.35A3.37,3.37,0,0,1,16.21,36l-1.64,2a14.76,14.76,0,0,0-1.46,2.12A17.55,17.55,0,0,0,11.65,38c-.52-.65-1.07-1.32-1.63-2a3.32,3.32,0,0,1-.88-2.29,2.26,2.26,0,0,1,.48-1.42,1.55,1.55,0,0,1,1.31-.61,1.35,1.35,0,0,1,1.09.49,4.48,4.48,0,0,1,.67,1H13a12.09,12.09,0,0,0-.1-1.48,3,3,0,0,0-.49-1.37h1.44a2.76,2.76,0,0,0-.48,1.37,14.19,14.19,0,0,0-.09,1.48h.29a3.37,3.37,0,0,1,.65-1,1.37,1.37,0,0,1,1.07-.49,1.61,1.61,0,0,1,1.35.61A2.26,2.26,0,0,1,17.09,33.71Zm0,13A3.39,3.39,0,0,1,16.21,49l-1.64,2a15.44,15.44,0,0,0-1.46,2.13,16.79,16.79,0,0,0-1.46-2.11c-.52-.66-1.07-1.33-1.63-2a3.34,3.34,0,0,1-.88-2.32,2.16,2.16,0,0,1,.48-1.4,1.57,1.57,0,0,1,1.31-.6,1.35,1.35,0,0,1,1.09.49,4.48,4.48,0,0,1,.67,1H13a12.22,12.22,0,0,0-.1-1.48,3.18,3.18,0,0,0-.49-1.4h1.44a3,3,0,0,0-.48,1.4,14.35,14.35,0,0,0-.09,1.48h.29a3.37,3.37,0,0,1,.65-1,1.37,1.37,0,0,1,1.07-.49,1.63,1.63,0,0,1,1.35.6A2.16,2.16,0,0,1,17.09,46.72ZM25.7,18a2.28,2.28,0,0,1-.46,1.42,1.55,1.55,0,0,1-1.33.62,1.39,1.39,0,0,1-1.08-.49,3.57,3.57,0,0,1-.65-1H21.9A14,14,0,0,0,22,20a3.06,3.06,0,0,0,.47,1.41H21a3.07,3.07,0,0,0,.5-1.41,11.94,11.94,0,0,0,.1-1.47H21.3a3.72,3.72,0,0,1-.63,1,1.35,1.35,0,0,1-1.09.49,1.55,1.55,0,0,1-1.33-.62A2.28,2.28,0,0,1,17.79,18a3.32,3.32,0,0,1,.88-2.29l1.62-2a18.7,18.7,0,0,0,1.47-2.13,14,14,0,0,0,1.44,2.11c.54.66,1.09,1.33,1.66,2A3.36,3.36,0,0,1,25.7,18Zm.07,22a3.45,3.45,0,0,1-.84,2.32l-1.64,2a14.61,14.61,0,0,0-1.46,2.13,17.62,17.62,0,0,0-1.47-2.11l-1.62-2A3.34,3.34,0,0,1,17.86,40a2.21,2.21,0,0,1,.47-1.4,1.6,1.6,0,0,1,1.32-.6,1.4,1.4,0,0,1,1.09.47,3.66,3.66,0,0,1,.64,1h.31a12.29,12.29,0,0,0-.1-1.51,2.86,2.86,0,0,0-.5-1.37h1.45A2.76,2.76,0,0,0,22.06,38,14.41,14.41,0,0,0,22,39.55h.28a3.29,3.29,0,0,1,.65-1A1.44,1.44,0,0,1,24,38a1.57,1.57,0,0,1,1.33.6A2.2,2.2,0,0,1,25.77,40Zm8.65-28.72A2.23,2.23,0,0,1,34,12.73a1.57,1.57,0,0,1-1.34.59,1.36,1.36,0,0,1-1.08-.47,3.15,3.15,0,0,1-.64-1h-.28a14.26,14.26,0,0,0,.09,1.51,2.89,2.89,0,0,0,.47,1.38H29.74a2.8,2.8,0,0,0,.48-1.38c.05-.56.08-1.06.08-1.51H30a3.3,3.3,0,0,1-.63,1,1.37,1.37,0,0,1-1.09.47A1.58,1.58,0,0,1,27,12.73a2.28,2.28,0,0,1-.45-1.41A3.54,3.54,0,0,1,27.35,9c.54-.66,1.09-1.31,1.64-2a14.13,14.13,0,0,0,1.46-2.11A15,15,0,0,0,31.92,7l1.65,2A3.34,3.34,0,0,1,34.42,11.32Zm0,13A2.23,2.23,0,0,1,34,25.77a1.57,1.57,0,0,1-1.34.6,1.38,1.38,0,0,1-1.08-.49,3.53,3.53,0,0,1-.64-1h-.28a14,14,0,0,0,.09,1.47,3.14,3.14,0,0,0,.47,1.41H29.74a3,3,0,0,0,.48-1.41c.05-.56.08-1,.08-1.47H30a3.72,3.72,0,0,1-.63,1,1.38,1.38,0,0,1-1.09.49,1.59,1.59,0,0,1-1.34-.6,2.28,2.28,0,0,1-.45-1.41A3.4,3.4,0,0,1,27.35,22l1.64-2a15.44,15.44,0,0,0,1.46-2.13A16.54,16.54,0,0,0,31.92,20l1.65,2A3.36,3.36,0,0,1,34.42,24.36Zm0,9.35A3.28,3.28,0,0,1,33.57,36l-1.63,2a15.82,15.82,0,0,0-1.49,2.12A15.45,15.45,0,0,0,29,38l-1.65-2a3.32,3.32,0,0,1-.84-2.29A2.36,2.36,0,0,1,27,32.29a1.57,1.57,0,0,1,1.34-.61,1.35,1.35,0,0,1,1.09.49,3.72,3.72,0,0,1,.63,1h.28c0-.42,0-.92-.08-1.48a2.76,2.76,0,0,0-.48-1.37h1.44a2.85,2.85,0,0,0-.47,1.37,14.19,14.19,0,0,0-.09,1.48h.28a3.53,3.53,0,0,1,.64-1,1.35,1.35,0,0,1,1.08-.49,1.55,1.55,0,0,1,1.34.61A2.3,2.3,0,0,1,34.42,33.71Zm0,13A3.32,3.32,0,0,1,33.57,49l-1.63,2a16.59,16.59,0,0,0-1.49,2.13A14.86,14.86,0,0,0,29,51.05l-1.65-2a3.36,3.36,0,0,1-.84-2.32,2.26,2.26,0,0,1,.45-1.4,1.59,1.59,0,0,1,1.34-.6,1.35,1.35,0,0,1,1.09.49,3.72,3.72,0,0,1,.63,1h.28c0-.42,0-.91-.08-1.48a3,3,0,0,0-.48-1.4h1.44a3.06,3.06,0,0,0-.47,1.4,14.35,14.35,0,0,0-.09,1.48h.28a3.53,3.53,0,0,1,.64-1,1.35,1.35,0,0,1,1.08-.49,1.57,1.57,0,0,1,1.34.6A2.2,2.2,0,0,1,34.42,46.72Zm5.2,5.77c0,.3,0,.61,0,.93a2.61,2.61,0,0,1-.25.86,1.63,1.63,0,0,1-.53.63,1.35,1.35,0,0,1-.86.25,1.37,1.37,0,0,1-.86-.25,1.71,1.71,0,0,1-.53-.65,3.47,3.47,0,0,1-.26-.88,5.6,5.6,0,0,1-.07-.89c0-.28,0-.58,0-.88a2.76,2.76,0,0,1,.25-.86A1.62,1.62,0,0,1,37,50.1a1.42,1.42,0,0,1,.89-.25,1.35,1.35,0,0,1,.86.25,1.62,1.62,0,0,1,.53.65,2.76,2.76,0,0,1,.25.86C39.6,51.91,39.62,52.21,39.62,52.49ZM41,45.14a1.64,1.64,0,0,1-.42,1.09c-.29.38-.57.73-.85,1.06A6,6,0,0,0,39,48.34a8.55,8.55,0,0,0-.72-1.09l-.79-1a2,2,0,0,1-.35-.47,1.35,1.35,0,0,1-.14-.62,1,1,0,0,1,.25-.7.81.81,0,0,1,.66-.28.77.77,0,0,1,.57.21,1.32,1.32,0,0,1,.31.49h.14a5.19,5.19,0,0,0-.05-.74,1.75,1.75,0,0,0-.23-.7h.7a1.75,1.75,0,0,0-.22.7,5.35,5.35,0,0,0-.06.74h.14a1.28,1.28,0,0,1,.34-.49.76.76,0,0,1,.54-.21.83.83,0,0,1,.67.28A1.05,1.05,0,0,1,41,45.14Zm-2.29,7.35V52a3.05,3.05,0,0,0-.07-.67,2.19,2.19,0,0,0-.21-.58.5.5,0,0,0-.46-.25.53.53,0,0,0-.47.25,1.68,1.68,0,0,0-.23.58,3.05,3.05,0,0,0-.07.67v.51c0,.14,0,.33,0,.56a4.08,4.08,0,0,0,.09.69,1.49,1.49,0,0,0,.22.56.53.53,0,0,0,.44.23.5.5,0,0,0,.46-.23,1.93,1.93,0,0,0,.21-.56,3.23,3.23,0,0,0,.07-.69Zm3,1.83c-.64,0-1,.25-1.09.77H40V49.92h.92v3.8h.81Z" style="fill: #231f20"/>
    </g>
  </g>
</svg>
